KarnataWesleyanMissionPress.ufo
<glyph name="exclam" format="2">
  <advance width="220"/>
  <unicode hex="0021"/>
  <outline>
    <component base="period" yOffset="-20"/>
    <contour>
      <point x="119.847" y="775.233" type="curve" smooth="yes"/>
      <point x="211.122" y="778.552"/>
      <point x="201.165" y="703.873"/>
      <point x="197.846" y="637.491" type="curve" smooth="yes"/>
      <point x="189.548" y="484.814"/>
      <point x="131.464" y="373.625"/>
      <point x="131.464" y="179.46" type="curve" smooth="yes"/>
      <point x="131.464" y="154.567"/>
      <point x="94.9545" y="154.567"/>
      <point x="96.614" y="179.46" type="curve" smooth="yes"/>
      <point x="108.231" y="373.625"/>
      <point x="40.1898" y="476.516"/>
      <point x="40.1898" y="637.491" type="curve" smooth="yes"/>
      <point x="40.1898" y="722.127"/>
      <point x="45.1684" y="771.914"/>
    </contour>
  </outline>
</glyph>
<glyph name="parenleft" format="2">
  <advance width="288"/>
  <unicode hex="0028"/>
  <outline>
    <contour>
      <point x="30.3424" y="396.075" type="curve" smooth="yes"/>
      <point x="35.0513" y="545.06"/>
      <point x="105.254" y="706.583"/>
      <point x="235.712" y="792.515" type="curve" smooth="yes"/>
      <point x="267.06" y="813.952"/>
      <point x="290.124" y="784.355"/>
      <point x="269.033" y="759.91" type="curve" smooth="yes"/>
      <point x="171.71" y="646.439"/>
      <point x="122.069" y="570.22"/>
      <point x="110.518" y="377.017" type="curve" smooth="yes"/>
      <point x="99.7318" y="209.208"/>
      <point x="192.395" y="33.3364"/>
      <point x="238.831" y="-34.3026" type="curve" smooth="yes"/>
      <point x="251.331" y="-52.4481"/>
      <point x="223.237" y="-70.3841"/>
      <point x="204.106" y="-55.8628" type="curve" smooth="yes"/>
      <point x="105.008" y="18.3096"/>
      <point x="26.0032" y="236.956"/>
    </contour>
  </outline>
</glyph>
<glyph name="comma" format="2">
  <advance width="208"/>
  <unicode hex="002C"/>
  <outline>
    <component base="period" xOffset="15"/>
    <contour>
      <point x="92" y="19" type="curve" smooth="yes"/>
      <point x="113" y="9"/>
      <point x="215" y="-29"/>
      <point x="63" y="-96" type="curve" smooth="yes"/>
      <point x="31" y="-110"/>
      <point x="34" y="-155"/>
      <point x="69" y="-145" type="curve" smooth="yes"/>
      <point x="165" y="-117"/>
      <point x="227" y="-43"/>
      <point x="202" y="55" type="curve" smooth="yes"/>
      <point x="169" y="182"/>
      <point x="67" y="32"/>
    </contour>
  </outline>
</glyph>
<glyph name="period" format="2">
  <advance width="187"/>
  <unicode hex="002E"/>
  <outline>
    <contour>
      <point x="40" y="50" type="curve" smooth="yes"/>
      <point x="40" y="9"/>
      <point x="73" y="-24"/>
      <point x="114" y="-24" type="curve" smooth="yes"/>
      <point x="154" y="-24"/>
      <point x="187" y="9"/>
      <point x="187" y="50" type="curve" smooth="yes"/>
      <point x="187" y="91"/>
      <point x="154" y="124"/>
      <point x="114" y="124" type="curve" smooth="yes"/>
      <point x="73" y="124"/>
      <point x="40" y="91"/>
    </contour>
  </outline>
</glyph>
<glyph name="two" format="2">
  <advance width="565"/>
  <unicode hex="0032"/>
  <outline>
    <contour>
      <point x="92.1067" y="571.343" type="curve" smooth="yes"/>
      <point x="81.3989" y="502.507"/>
      <point x="174.71" y="534.63"/>
      <point x="183.889" y="432.141" type="curve" smooth="yes"/>
      <point x="186.948" y="395.428"/>
      <point x="139.527" y="370.953"/>
      <point x="107.404" y="381.661" type="curve" smooth="yes"/>
      <point x="64.5722" y="396.958"/>
      <point x="40.097" y="465.794"/>
      <point x="40.097" y="510.155" type="curve" smooth="yes"/>
      <point x="40.097" y="634.061"/>
      <point x="174.71" y="683.011"/>
      <point x="274.141" y="683.011" type="curve" smooth="yes"/>
      <point x="416.403" y="683.011"/>
      <point x="558.664" y="577.462"/>
      <point x="466.883" y="427.552" type="curve" smooth="yes"/>
      <point x="433.229" y="374.012"/>
      <point x="323.091" y="245.518"/>
      <point x="203.775" y="152.206" type="curve" smooth="yes"/>
      <point x="141.057" y="103.256"/>
      <point x="165.532" y="101.726"/>
      <point x="199.186" y="101.726" type="curve" smooth="yes"/>
      <point x="254.255" y="101.726"/>
      <point x="352.155" y="101.726"/>
      <point x="410.284" y="101.726" type="curve" smooth="yes"/>
      <point x="440.878" y="101.726"/>
      <point x="471.472" y="219.513"/>
      <point x="506.655" y="231.75" type="curve" smooth="yes"/>
      <point x="523.481" y="237.869"/>
      <point x="526.541" y="234.81"/>
      <point x="523.481" y="217.983" type="curve" smooth="yes"/>
      <point x="511.244" y="153.736"/>
      <point x="476.061" y="0.766105"/>
      <point x="468.412" y="0.766105" type="curve" smooth="yes"/>
      <point x="333.799" y="0.766105"/>
      <point x="185.418" y="0.766105"/>
      <point x="50.8049" y="0.766105" type="curve" smooth="yes"/>
      <point x="7.9734" y="0.766105"/>
      <point x="104.344" y="123.142"/>
      <point x="190.007" y="188.919" type="curve" smooth="yes"/>
      <point x="323.091" y="291.409"/>
      <point x="401.106" y="444.378"/>
      <point x="381.22" y="539.22" type="curve" smooth="yes"/>
      <point x="349.096" y="689.13"/>
      <point x="102.815" y="644.769"/>
    </contour>
  </outline>
</glyph>
<glyph name="five" format="2">
  <advance width="529"/>
  <unicode hex="0035"/>
  <outline>
    <contour>
      <point x="220.181" y="-2.03191" type="curve" smooth="yes"/>
      <point x="148.766" y="-2.03191"/>
      <point x="48.2021" y="41.6915"/>
      <point x="40.9149" y="127.681" type="curve" smooth="yes"/>
      <point x="32.1702" y="220.957"/>
      <point x="144.394" y="232.617"/>
      <point x="151.681" y="146.628" type="curve" smooth="yes"/>
      <point x="156.053" y="92.7021"/>
      <point x="110.872" y="82.5"/>
      <point x="134.191" y="53.3511" type="curve" smooth="yes"/>
      <point x="163.34" y="16.9149"/>
      <point x="247.872" y="21.2872"/>
      <point x="301.798" y="51.8936" type="curve" smooth="yes"/>
      <point x="460.66" y="140.798"/>
      <point x="374.67" y="448.319"/>
      <point x="198.319" y="401.681" type="curve" smooth="yes"/>
      <point x="164.798" y="392.936"/>
      <point x="148.766" y="368.16"/>
      <point x="141.479" y="333.181" type="curve" smooth="yes"/>
      <point x="137.106" y="311.319"/>
      <point x="115.245" y="318.606"/>
      <point x="115.245" y="346.298" type="curve" smooth="yes"/>
      <point x="115.245" y="417.713"/>
      <point x="115.245" y="591.149"/>
      <point x="115.245" y="662.564" type="curve" smooth="yes"/>
      <point x="115.245" y="675.681"/>
      <point x="123.989" y="682.968"/>
      <point x="151.681" y="682.968" type="curve" smooth="yes"/>
      <point x="163.34" y="682.968"/>
      <point x="208.521" y="682.968"/>
      <point x="424.223" y="682.968" type="curve" smooth="yes"/>
      <point x="446.085" y="682.968"/>
      <point x="444.628" y="614.468"/>
      <point x="424.223" y="614.468" type="curve" smooth="yes"/>
      <point x="373.213" y="614.468"/>
      <point x="242.043" y="614.468"/>
      <point x="191.032" y="614.468" type="curve" smooth="yes"/>
      <point x="176.457" y="614.468"/>
      <point x="179.372" y="604.266"/>
      <point x="179.372" y="589.691" type="curve" smooth="yes"/>
      <point x="179.372" y="559.085"/>
      <point x="177.915" y="478.926"/>
      <point x="177.915" y="442.489" type="curve" smooth="yes"/>
      <point x="177.915" y="427.915"/>
      <point x="176.457" y="422.085"/>
      <point x="183.745" y="427.915" type="curve" smooth="yes"/>
      <point x="256.617" y="486.213"/>
      <point x="479.606" y="442.489"/>
      <point x="478.149" y="220.957" type="curve" smooth="yes"/>
      <point x="478.149" y="65.0106"/>
      <point x="336.777" y="-2.03191"/>
    </contour>
  </outline>
</glyph>
<glyph name="six" format="2">
  <advance width="544"/>
  <unicode hex="0036"/>
  <outline>
    <contour>
      <point x="40.6013" y="298.473" type="curve" smooth="yes"/>
      <point x="40.6013" y="442.692"/>
      <point x="102.002" y="609.758"/>
      <point x="270.496" y="666.875" type="curve" smooth="yes"/>
      <point x="349.031" y="694.005"/>
      <point x="444.701" y="688.293"/>
      <point x="488.967" y="639.744" type="curve" smooth="yes"/>
      <point x="527.52" y="598.335"/>
      <point x="483.255" y="529.795"/>
      <point x="421.855" y="545.502" type="curve" smooth="yes"/>
      <point x="364.738" y="554.069"/>
      <point x="366.166" y="615.47"/>
      <point x="314.761" y="621.181" type="curve" smooth="yes"/>
      <point x="211.951" y="634.033"/>
      <point x="151.979" y="476.962"/>
      <point x="163.402" y="399.855" type="curve" smooth="yes"/>
      <point x="164.83" y="385.575"/>
      <point x="169.114" y="385.575"/>
      <point x="183.393" y="396.999" type="curve" smooth="yes"/>
      <point x="293.342" y="476.962"/>
      <point x="503.246" y="418.417"/>
      <point x="503.246" y="228.505" type="curve" smooth="yes"/>
      <point x="503.246" y="94.2808"/>
      <point x="399.008" y="0.0384434"/>
      <point x="253.361" y="0.0384434" type="curve" smooth="yes"/>
      <point x="73.4434" y="0.0384434"/>
      <point x="40.6013" y="139.974"/>
    </contour>
    <contour>
      <point x="213.379" y="42.8759" type="curve" smooth="yes"/>
      <point x="303.338" y="17.1734"/>
      <point x="374.733" y="75.7179"/>
      <point x="387.585" y="169.96" type="curve" smooth="yes"/>
      <point x="399.008" y="251.351"/>
      <point x="414.715" y="385.575"/>
      <point x="299.054" y="385.575" type="curve" smooth="yes"/>
      <point x="220.519" y="385.575"/>
      <point x="157.69" y="307.04"/>
      <point x="146.267" y="194.235" type="curve" smooth="yes"/>
      <point x="139.127" y="125.695"/>
      <point x="151.979" y="60.0109"/>
    </contour>
  </outline>
</glyph>
<glyph name="seven" format="2">
  <advance width="469"/>
  <unicode hex="0037"/>
  <outline>
    <contour>
      <point x="206.552" y="64.3727" type="curve" smooth="yes"/>
      <point x="174.494" y="-17.0036"/>
      <point x="61.0608" y="-29.3334"/>
      <point x="72.1576" y="58.2078" type="curve" smooth="yes"/>
      <point x="83.2544" y="143.283"/>
      <point x="190.523" y="190.136"/>
      <point x="338.48" y="527.971" type="curve" smooth="yes"/>
      <point x="344.645" y="542.767"/>
      <point x="333.548" y="545.233"/>
      <point x="323.684" y="545.233" type="curve" smooth="yes"/>
      <point x="302.724" y="545.233"/>
      <point x="95.5841" y="563.727"/>
      <point x="78.3225" y="546.466" type="curve" smooth="yes"/>
      <point x="67.2257" y="535.369"/>
      <point x="67.2257" y="521.806"/>
      <point x="56.1289" y="510.709" type="curve" smooth="yes"/>
      <point x="49.9641" y="505.778"/>
      <point x="38.8673" y="497.147"/>
      <point x="41.3332" y="508.243" type="curve" smooth="yes"/>
      <point x="53.663" y="556.329"/>
      <point x="79.5554" y="621.677"/>
      <point x="93.1182" y="653.734" type="curve" smooth="yes"/>
      <point x="99.283" y="668.53"/>
      <point x="162.165" y="646.337"/>
      <point x="342.179" y="646.337" type="curve" smooth="yes"/>
      <point x="355.742" y="646.337"/>
      <point x="384.1" y="647.57"/>
      <point x="403.828" y="643.871" type="curve" smooth="yes"/>
      <point x="419.856" y="640.172"/>
      <point x="428.487" y="634.007"/>
      <point x="428.487" y="616.745" type="curve" smooth="yes"/>
      <point x="428.487" y="569.892"/>
      <point x="382.867" y="539.068"/>
      <point x="363.14" y="498.38" type="curve" smooth="yes"/>
      <point x="238.609" y="245.62"/>
      <point x="243.541" y="156.846"/>
    </contour>
  </outline>
</glyph>
<glyph name="eight" format="2">
  <advance width="550"/>
  <unicode hex="0038"/>
  <outline>
    <contour>
      <point x="257.79" y="-1.44785" type="curve" smooth="yes"/>
      <point x="135.838" y="3.52982"/>
      <point x="35.0398" y="52.0621"/>
      <point x="41.2618" y="190.192" type="curve" smooth="yes"/>
      <point x="44.9951" y="266.102"/>
      <point x="87.3053" y="295.968"/>
      <point x="138.326" y="315.879" type="curve" smooth="yes"/>
      <point x="149.526" y="319.612"/>
      <point x="68.639" y="345.745"/>
      <point x="61.1725" y="495.075" type="curve" smooth="yes"/>
      <point x="53.706" y="628.227"/>
      <point x="154.504" y="689.204"/>
      <point x="268.99" y="682.982" type="curve" smooth="yes"/>
      <point x="369.788" y="679.248"/>
      <point x="490.496" y="649.382"/>
      <point x="490.496" y="529.918" type="curve" smooth="yes"/>
      <point x="490.496" y="394.277"/>
      <point x="394.676" y="383.077"/>
      <point x="412.098" y="375.611" type="curve" smooth="yes"/>
      <point x="505.429" y="337.034"/>
      <point x="512.896" y="257.391"/>
      <point x="507.918" y="181.481" type="curve" smooth="yes"/>
      <point x="497.963" y="42.1068"/>
      <point x="398.41" y="-8.91435"/>
    </contour>
    <contour>
      <point x="434.498" y="135.438" type="curve" smooth="yes"/>
      <point x="434.498" y="247.436"/>
      <point x="264.013" y="286.013"/>
      <point x="191.836" y="299.701" type="curve" smooth="yes"/>
      <point x="165.704" y="304.679"/>
      <point x="104.727" y="239.969"/>
      <point x="120.905" y="150.371" type="curve" smooth="yes"/>
      <point x="128.371" y="111.794"/>
      <point x="160.726" y="33.3958"/>
      <point x="257.79" y="28.4182" type="curve" smooth="yes"/>
      <point x="346.144" y="24.6849"/>
      <point x="434.498" y="68.2395"/>
    </contour>
    <contour>
      <point x="352.366" y="402.988" type="curve" smooth="yes"/>
      <point x="390.943" y="400.499"/>
      <point x="422.054" y="437.831"/>
      <point x="422.054" y="529.918" type="curve" smooth="yes"/>
      <point x="422.054" y="594.628"/>
      <point x="358.588" y="626.983"/>
      <point x="297.612" y="630.716" type="curve" smooth="yes"/>
      <point x="224.191" y="635.694"/>
      <point x="128.371" y="624.494"/>
      <point x="137.082" y="529.918" type="curve" smooth="yes"/>
      <point x="145.793" y="422.898"/>
      <point x="266.501" y="409.21"/>
    </contour>
  </outline>
</glyph>
<glyph name="A" format="2">
  <advance width="698"/>
  <unicode hex="0041"/>
  <outline>
    <contour>
      <point x="388" y="10" type="line" smooth="yes"/>
      <point x="388" y="3"/>
      <point x="391" y="0"/>
      <point x="398" y="0" type="curve" smooth="yes"/>
      <point x="668" y="0" type="line" smooth="yes"/>
      <point x="675" y="0"/>
      <point x="678" y="3"/>
      <point x="678" y="10" type="curve" smooth="yes"/>
      <point x="678" y="20" type="line" smooth="yes"/>
      <point x="678" y="27"/>
      <point x="675" y="30"/>
      <point x="668" y="30" type="curve" smooth="yes"/>
      <point x="599" y="30" type="line" smooth="yes"/>
      <point x="592" y="30"/>
      <point x="588" y="34"/>
      <point x="586" y="40" type="curve" smooth="yes"/>
      <point x="361" y="731" type="line" smooth="yes"/>
      <point x="359" y="737"/>
      <point x="355" y="741"/>
      <point x="348" y="741" type="curve" smooth="yes"/>
      <point x="337" y="741" type="line" smooth="yes"/>
      <point x="330" y="741"/>
      <point x="326" y="737"/>
      <point x="324" y="731" type="curve" smooth="yes"/>
      <point x="95" y="30" type="line"/>
      <point x="30" y="30" type="line" smooth="yes"/>
      <point x="23" y="30"/>
      <point x="20" y="27"/>
      <point x="20" y="20" type="curve" smooth="yes"/>
      <point x="20" y="10" type="line" smooth="yes"/>
      <point x="20" y="3"/>
      <point x="23" y="0"/>
      <point x="30" y="0" type="curve" smooth="yes"/>
      <point x="240" y="0" type="line" smooth="yes"/>
      <point x="247" y="0"/>
      <point x="250" y="3"/>
      <point x="250" y="10" type="curve" smooth="yes"/>
      <point x="250" y="20" type="line" smooth="yes"/>
      <point x="250" y="27"/>
      <point x="247" y="30"/>
      <point x="240" y="30" type="curve" smooth="yes"/>
      <point x="199" y="30" type="line" smooth="yes"/>
      <point x="150" y="30"/>
      <point x="133" y="55"/>
      <point x="147" y="98" type="curve"/>
      <point x="148" y="102"/>
      <point x="149" y="105"/>
      <point x="150" y="108" type="curve" smooth="yes"/>
      <point x="298" y="563" type="line"/>
      <point x="288" y="563" type="line"/>
      <point x="458" y="40" type="line" smooth="yes"/>
      <point x="460" y="34"/>
      <point x="458" y="30"/>
      <point x="451" y="30" type="curve" smooth="yes"/>
      <point x="398" y="30" type="line" smooth="yes"/>
      <point x="391" y="30"/>
      <point x="388" y="27"/>
      <point x="388" y="20" type="curve" smooth="yes"/>
    </contour>
    <contour>
      <point x="191" y="250" type="line"/>
      <point x="413" y="250" type="line"/>
      <point x="413" y="270" type="line"/>
      <point x="191" y="270" type="line"/>
    </contour>
  </outline>
</glyph>
<glyph name="D" format="2">
  <advance width="791"/>
  <unicode hex="0044"/>
  <outline>
    <contour>
      <point x="75.9972" y="711.143" type="line" smooth="yes"/>
      <point x="75.9972" y="703.648"/>
      <point x="79.2093" y="700.436"/>
      <point x="86.704" y="700.436" type="curve" smooth="yes"/>
      <point x="219.468" y="700.436" type="line" smooth="yes"/>
      <point x="226.963" y="700.436"/>
      <point x="230.175" y="697.224"/>
      <point x="230.175" y="689.729" type="curve" smooth="yes"/>
      <point x="230.175" y="40.8978" type="line" smooth="yes"/>
      <point x="230.175" y="33.4031"/>
      <point x="226.963" y="30.1911"/>
      <point x="219.468" y="30.1911" type="curve" smooth="yes"/>
      <point x="86.704" y="30.1911" type="line" smooth="yes"/>
      <point x="79.2093" y="30.1911"/>
      <point x="75.9972" y="26.979"/>
      <point x="75.9972" y="19.4843" type="curve" smooth="yes"/>
      <point x="75.9972" y="10.9188" type="line" smooth="yes"/>
      <point x="75.9972" y="3.42407"/>
      <point x="79.2093" y="0.212037"/>
      <point x="86.704" y="0.212037" type="curve" smooth="yes"/>
      <point x="357.586" y="0.212037" type="line" smooth="yes"/>
      <point x="365.081" y="0.212037"/>
      <point x="368.293" y="3.42407"/>
      <point x="368.293" y="10.9188" type="curve" smooth="yes"/>
      <point x="368.293" y="720.779" type="line" smooth="yes"/>
      <point x="368.293" y="728.274"/>
      <point x="365.081" y="731.486"/>
      <point x="357.586" y="731.486" type="curve" smooth="yes"/>
      <point x="86.704" y="731.486" type="line" smooth="yes"/>
      <point x="79.2093" y="731.486"/>
      <point x="75.9972" y="728.274"/>
      <point x="75.9972" y="720.779" type="curve" smooth="yes"/>
    </contour>
    <contour>
      <point x="276.88" y="29.8769" type="curve"/>
      <point x="276.88" y="23.6502"/>
      <point x="276.88" y="4.96991"/>
      <point x="276.88" y="-0.0114865" type="curve"/>
      <point x="303.033" y="-0.0114865"/>
      <point x="440.021" y="-1.25684"/>
      <point x="476.136" y="-1.25684" type="curve" smooth="yes"/>
      <point x="649.24" y="-1.25684"/>
      <point x="770.039" y="161.884"/>
      <point x="770.039" y="352.423" type="curve" smooth="yes"/>
      <point x="770.039" y="557.905"/>
      <point x="660.448" y="731.009"/>
      <point x="476.136" y="731.009" type="curve" smooth="yes"/>
      <point x="447.493" y="731.009"/>
      <point x="374.018" y="731.009"/>
      <point x="306.769" y="731.009" type="curve"/>
      <point x="306.769" y="723.537"/>
      <point x="306.769" y="714.819"/>
      <point x="306.769" y="701.121" type="curve"/>
      <point x="336.657" y="701.121"/>
      <point x="433.795" y="701.121"/>
      <point x="476.136" y="701.121" type="curve" smooth="yes"/>
      <point x="618.106" y="701.121"/>
      <point x="657.958" y="489.411"/>
      <point x="657.958" y="352.423" type="curve" smooth="yes"/>
      <point x="657.958" y="232.869"/>
      <point x="618.106" y="29.8769"/>
      <point x="476.136" y="29.8769" type="curve" smooth="yes"/>
      <point x="392.698" y="29.8769"/>
      <point x="306.769" y="29.8769"/>
    </contour>
  </outline>
</glyph>
<glyph name="F" format="2">
  <advance width="814"/>
  <unicode hex="0046"/>
  <outline>
    <contour>
      <point x="75.9972" y="711.143" type="line" smooth="yes"/>
      <point x="75.9972" y="703.648"/>
      <point x="79.2093" y="700.436"/>
      <point x="86.704" y="700.436" type="curve" smooth="yes"/>
      <point x="219.468" y="700.436" type="line" smooth="yes"/>
      <point x="226.963" y="700.436"/>
      <point x="230.175" y="697.224"/>
      <point x="230.175" y="689.729" type="curve" smooth="yes"/>
      <point x="230.175" y="41.9685" type="line" smooth="yes"/>
      <point x="230.175" y="34.4738"/>
      <point x="226.963" y="31.2617"/>
      <point x="219.468" y="31.2617" type="curve" smooth="yes"/>
      <point x="86.704" y="31.2617" type="line" smooth="yes"/>
      <point x="79.2093" y="31.2617"/>
      <point x="75.9972" y="28.0497"/>
      <point x="75.9972" y="20.5549" type="curve" smooth="yes"/>
      <point x="75.9972" y="10.9188" type="line" smooth="yes"/>
      <point x="75.9972" y="3.42407"/>
      <point x="79.2093" y="0.212037"/>
      <point x="86.704" y="0.212037" type="curve" smooth="yes"/>
      <point x="521.4" y="0.212037" type="line" smooth="yes"/>
      <point x="528.894" y="0.212037"/>
      <point x="532.107" y="3.42407"/>
      <point x="532.107" y="10.9188" type="curve" smooth="yes"/>
      <point x="532.107" y="20.5549" type="line" smooth="yes"/>
      <point x="532.107" y="28.0497"/>
      <point x="528.894" y="31.2617"/>
      <point x="521.4" y="31.2617" type="curve" smooth="yes"/>
      <point x="378.999" y="31.2617" type="line" smooth="yes"/>
      <point x="371.505" y="31.2617"/>
      <point x="368.293" y="34.4738"/>
      <point x="368.293" y="41.9685" type="curve" smooth="yes"/>
      <point x="368.293" y="689.729" type="line" smooth="yes"/>
      <point x="368.293" y="697.224"/>
      <point x="371.505" y="700.436"/>
      <point x="378.999" y="700.436" type="curve" smooth="yes"/>
      <point x="434.675" y="700.436" type="line" smooth="yes"/>
      <point x="442.169" y="700.436"/>
      <point x="445.382" y="703.648"/>
      <point x="445.382" y="711.143" type="curve" smooth="yes"/>
      <point x="445.382" y="720.779" type="line" smooth="yes"/>
      <point x="445.382" y="728.274"/>
      <point x="442.169" y="731.486"/>
      <point x="434.675" y="731.486" type="curve" smooth="yes"/>
      <point x="86.704" y="731.486" type="line" smooth="yes"/>
      <point x="79.2093" y="731.486"/>
      <point x="75.9972" y="728.274"/>
      <point x="75.9972" y="720.779" type="curve" smooth="yes"/>
    </contour>
    <contour>
      <point x="409" y="710" type="line" smooth="yes"/>
      <point x="409" y="703"/>
      <point x="412" y="700"/>
      <point x="419" y="700" type="curve" smooth="yes"/>
      <point x="442" y="700"/>
      <point x="445" y="700"/>
      <point x="522" y="700" type="curve" smooth="yes"/>
      <point x="677" y="700"/>
      <point x="710" y="638"/>
      <point x="714" y="480" type="curve" smooth="yes"/>
      <point x="714" y="473"/>
      <point x="717" y="470"/>
      <point x="724" y="470" type="curve" smooth="yes"/>
      <point x="729" y="470" type="line" smooth="yes"/>
      <point x="736" y="470"/>
      <point x="739" y="473"/>
      <point x="739" y="480" type="curve" smooth="yes"/>
      <point x="739" y="721" type="line" smooth="yes"/>
      <point x="739" y="728"/>
      <point x="736" y="731"/>
      <point x="729" y="731" type="curve" smooth="yes"/>
      <point x="419" y="731" type="line" smooth="yes"/>
      <point x="412" y="731"/>
      <point x="409" y="728"/>
      <point x="409" y="721" type="curve" smooth="yes"/>
    </contour>
    <contour>
      <point x="345.089" y="349.727" type="line" smooth="yes"/>
      <point x="345.089" y="344.79"/>
      <point x="347.205" y="342.674"/>
      <point x="352.141" y="342.674" type="curve" smooth="yes"/>
      <point x="368.362" y="342.674"/>
      <point x="370.478" y="342.674"/>
      <point x="424.782" y="342.674" type="curve" smooth="yes"/>
      <point x="534.095" y="342.674"/>
      <point x="557.369" y="298.949"/>
      <point x="560.19" y="187.519" type="curve" smooth="yes"/>
      <point x="560.19" y="182.583"/>
      <point x="562.305" y="180.467"/>
      <point x="567.242" y="180.467" type="curve" smooth="yes"/>
      <point x="570.768" y="180.467" type="line" smooth="yes"/>
      <point x="575.705" y="180.467"/>
      <point x="577.821" y="182.583"/>
      <point x="577.821" y="187.519" type="curve" smooth="yes"/>
      <point x="577.821" y="357.484" type="line" smooth="yes"/>
      <point x="577.821" y="362.421"/>
      <point x="575.705" y="364.537"/>
      <point x="570.768" y="364.537" type="curve" smooth="yes"/>
      <point x="352.141" y="364.537" type="line" smooth="yes"/>
      <point x="347.205" y="364.537"/>
      <point x="345.089" y="362.421"/>
      <point x="345.089" y="357.484" type="curve" smooth="yes"/>
    </contour>
    <contour>
      <point x="345.089" y="359.273" type="line" smooth="yes"/>
      <point x="345.089" y="364.21"/>
      <point x="347.205" y="366.326"/>
      <point x="352.141" y="366.326" type="curve" smooth="yes"/>
      <point x="368.362" y="366.326"/>
      <point x="370.478" y="366.326"/>
      <point x="424.782" y="366.326" type="curve" smooth="yes"/>
      <point x="534.095" y="366.326"/>
      <point x="557.369" y="410.051"/>
      <point x="560.19" y="521.481" type="curve" smooth="yes"/>
      <point x="560.19" y="526.417"/>
      <point x="562.305" y="528.533"/>
      <point x="567.242" y="528.533" type="curve" smooth="yes"/>
      <point x="570.768" y="528.533" type="line" smooth="yes"/>
      <point x="575.705" y="528.533"/>
      <point x="577.821" y="526.417"/>
      <point x="577.821" y="521.481" type="curve" smooth="yes"/>
      <point x="577.821" y="351.516" type="line" smooth="yes"/>
      <point x="577.821" y="346.579"/>
      <point x="575.705" y="344.463"/>
      <point x="570.768" y="344.463" type="curve" smooth="yes"/>
      <point x="352.141" y="344.463" type="line" smooth="yes"/>
      <point x="347.205" y="344.463"/>
      <point x="345.089" y="346.579"/>
      <point x="345.089" y="351.516" type="curve" smooth="yes"/>
    </contour>
  </outline>
</glyph>
<glyph name="S" format="2">
  <advance width="617"/>
  <unicode hex="0053"/>
  <outline>
    <contour>
      <point x="427.738" y="660.015" type="curve" smooth="yes"/>
      <point x="433.88" y="653.874"/>
      <point x="438.793" y="655.102"/>
      <point x="442.478" y="662.472" type="curve" smooth="yes"/>
      <point x="480.554" y="738.625" type="line" smooth="yes"/>
      <point x="483.01" y="743.538"/>
      <point x="487.923" y="747.223"/>
      <point x="494.065" y="747.223" type="curve"/>
      <point x="494.065" y="747.223" type="line"/>
      <point x="500.206" y="747.223"/>
      <point x="502.663" y="743.538"/>
      <point x="502.663" y="737.396" type="curve" smooth="yes"/>
      <point x="502.663" y="612.113"/>
      <point x="502.663" y="505.254"/>
      <point x="502.663" y="452.438" type="curve" smooth="yes"/>
      <point x="502.663" y="446.297"/>
      <point x="498.978" y="442.612"/>
      <point x="492.837" y="442.612" type="curve"/>
      <point x="492.837" y="442.612" type="line"/>
      <point x="486.695" y="442.612"/>
      <point x="483.01" y="445.068"/>
      <point x="481.782" y="451.21" type="curve" smooth="yes"/>
      <point x="448.619" y="561.754"/>
      <point x="384.749" y="699.32"/>
      <point x="259.466" y="699.32" type="curve" smooth="yes"/>
      <point x="104.704" y="699.32"/>
      <point x="104.704" y="533.504"/>
      <point x="199.28" y="469.634" type="curve" smooth="yes"/>
      <point x="291.401" y="406.992"/>
      <point x="446.162" y="429.101"/>
      <point x="529.685" y="297.676" type="curve" smooth="yes"/>
      <point x="605.837" y="178.534"/>
      <point x="565.304" y="0.435324"/>
      <point x="393.347" y="-6.93429" type="curve" smooth="yes"/>
      <point x="286.487" y="-11.8474"/>
      <point x="245.955" y="33.5986"/>
      <point x="172.258" y="96.2403" type="curve" smooth="yes"/>
      <point x="166.117" y="101.153"/>
      <point x="161.204" y="99.9251"/>
      <point x="156.291" y="92.5555" type="curve" smooth="yes"/>
      <point x="139.095" y="65.5335"/>
      <point x="116.986" y="34.8268"/>
      <point x="98.5624" y="10.2615" type="curve" smooth="yes"/>
      <point x="94.8776" y="5.3484"/>
      <point x="91.1928" y="2.89186"/>
      <point x="85.0514" y="2.89186" type="curve"/>
      <point x="85.0514" y="2.89186" type="line"/>
      <point x="78.9101" y="2.89186"/>
      <point x="75.2253" y="6.57667"/>
      <point x="75.2253" y="12.718" type="curve" smooth="yes"/>
      <point x="75.2253" y="317.329" type="line" smooth="yes"/>
      <point x="75.2253" y="323.47"/>
      <point x="78.9101" y="327.155"/>
      <point x="85.0514" y="327.155" type="curve"/>
      <point x="85.0514" y="327.155" type="line"/>
      <point x="91.1928" y="327.155"/>
      <point x="94.8776" y="324.698"/>
      <point x="97.3341" y="318.557" type="curve" smooth="yes"/>
      <point x="136.639" y="214.154"/>
      <point x="198.052" y="102.382"/>
      <point x="284.031" y="56.9357" type="curve" smooth="yes"/>
      <point x="455.988" y="-33.9562"/>
      <point x="530.913" y="177.306"/>
      <point x="393.347" y="254.687" type="curve" smooth="yes"/>
      <point x="279.118" y="318.557"/>
      <point x="82.5949" y="291.535"/>
      <point x="82.5949" y="522.449" type="curve" smooth="yes"/>
      <point x="82.5949" y="651.418"/>
      <point x="130.497" y="731.255"/>
      <point x="259.466" y="731.255" type="curve" smooth="yes"/>
      <point x="311.053" y="731.255"/>
      <point x="367.553" y="716.516"/>
    </contour>
  </outline>
</glyph>
<glyph name="U" format="2">
  <advance width="855"/>
  <unicode hex="0055"/>
  <outline>
    <contour>
      <point x="431" y="723" type="line" smooth="yes"/>
      <point x="431" y="730"/>
      <point x="428" y="733"/>
      <point x="421" y="733" type="curve" smooth="yes"/>
      <point x="60" y="733" type="line" smooth="yes"/>
      <point x="53" y="733"/>
      <point x="50" y="730"/>
      <point x="50" y="723" type="curve" smooth="yes"/>
      <point x="50" y="713" type="line" smooth="yes"/>
      <point x="50" y="706"/>
      <point x="53" y="703"/>
      <point x="60" y="703" type="curve" smooth="yes"/>
      <point x="180" y="703" type="line" smooth="yes"/>
      <point x="187" y="703"/>
      <point x="190" y="700"/>
      <point x="190" y="693" type="curve" smooth="yes"/>
      <point x="190" y="503"/>
      <point x="190" y="370"/>
      <point x="190" y="205" type="curve" smooth="yes"/>
      <point x="190" y="48"/>
      <point x="301" y="0"/>
      <point x="441" y="0" type="curve" smooth="yes"/>
      <point x="565" y="0"/>
      <point x="665" y="94"/>
      <point x="665" y="205" type="curve" smooth="yes"/>
      <point x="665" y="362"/>
      <point x="665" y="492"/>
      <point x="665" y="663" type="curve" smooth="yes"/>
      <point x="665" y="690"/>
      <point x="678" y="703"/>
      <point x="705" y="703" type="curve" smooth="yes"/>
      <point x="795" y="703" type="line" smooth="yes"/>
      <point x="802" y="703"/>
      <point x="805" y="706"/>
      <point x="805" y="713" type="curve" smooth="yes"/>
      <point x="805" y="723" type="line" smooth="yes"/>
      <point x="805" y="730"/>
      <point x="802" y="733"/>
      <point x="795" y="733" type="curve" smooth="yes"/>
      <point x="499" y="733" type="line" smooth="yes"/>
      <point x="492" y="733"/>
      <point x="489" y="730"/>
      <point x="489" y="723" type="curve" smooth="yes"/>
      <point x="489" y="713" type="line" smooth="yes"/>
      <point x="489" y="706"/>
      <point x="492" y="703"/>
      <point x="499" y="703" type="curve" smooth="yes"/>
      <point x="580" y="703" type="line" smooth="yes"/>
      <point x="629" y="703"/>
      <point x="632" y="680"/>
      <point x="632" y="635" type="curve" smooth="yes"/>
      <point x="632" y="472"/>
      <point x="632" y="357"/>
      <point x="632" y="205" type="curve" smooth="yes"/>
      <point x="632" y="117"/>
      <point x="555" y="48"/>
      <point x="461" y="48" type="curve" smooth="yes"/>
      <point x="342" y="48"/>
      <point x="298" y="107"/>
      <point x="298" y="205" type="curve" smooth="yes"/>
      <point x="298" y="370"/>
      <point x="298" y="505"/>
      <point x="298" y="693" type="curve" smooth="yes"/>
      <point x="298" y="700"/>
      <point x="301" y="703"/>
      <point x="308" y="703" type="curve" smooth="yes"/>
      <point x="421" y="703" type="line" smooth="yes"/>
      <point x="428" y="703"/>
      <point x="431" y="706"/>
      <point x="431" y="713" type="curve" smooth="yes"/>
    </contour>
  </outline>
</glyph>
<glyph name="W" format="2">
  <advance width="1250"/>
  <unicode hex="0057"/>
  <outline>
    <contour>
      <point x="754" y="723" type="line" smooth="yes"/>
      <point x="754" y="730"/>
      <point x="751" y="733"/>
      <point x="744" y="733" type="curve" smooth="yes"/>
      <point x="477" y="733" type="line" smooth="yes"/>
      <point x="470" y="733"/>
      <point x="467" y="730"/>
      <point x="467" y="723" type="curve" smooth="yes"/>
      <point x="467" y="713" type="line" smooth="yes"/>
      <point x="467" y="706"/>
      <point x="470" y="703"/>
      <point x="477" y="703" type="curve" smooth="yes"/>
      <point x="516" y="703" type="line" smooth="yes"/>
      <point x="543" y="703"/>
      <point x="561" y="691"/>
      <point x="569" y="665" type="curve" smooth="yes"/>
      <point x="785" y="5" type="line" smooth="yes"/>
      <point x="786" y="1"/>
      <point x="788" y="0"/>
      <point x="792" y="0" type="curve"/>
      <point x="792" y="0" type="line"/>
      <point x="796" y="0"/>
      <point x="799" y="2"/>
      <point x="800" y="5" type="curve" smooth="yes"/>
      <point x="1018" y="665" type="line" smooth="yes"/>
      <point x="1026" y="690"/>
      <point x="1044" y="703"/>
      <point x="1070" y="703" type="curve" smooth="yes"/>
      <point x="1160" y="703" type="line" smooth="yes"/>
      <point x="1167" y="703"/>
      <point x="1170" y="706"/>
      <point x="1170" y="713" type="curve" smooth="yes"/>
      <point x="1170" y="723" type="line" smooth="yes"/>
      <point x="1170" y="730"/>
      <point x="1167" y="733"/>
      <point x="1160" y="733" type="curve" smooth="yes"/>
      <point x="835" y="733" type="line" smooth="yes"/>
      <point x="828" y="733"/>
      <point x="825" y="730"/>
      <point x="825" y="723" type="curve" smooth="yes"/>
      <point x="825" y="713" type="line" smooth="yes"/>
      <point x="825" y="706"/>
      <point x="828" y="703"/>
      <point x="835" y="703" type="curve" smooth="yes"/>
      <point x="926" y="703" type="line" smooth="yes"/>
      <point x="975" y="703"/>
      <point x="992" y="678"/>
      <point x="978" y="635" type="curve"/>
      <point x="977" y="631"/>
      <point x="976" y="628"/>
      <point x="975" y="625" type="curve" smooth="yes"/>
      <point x="827" y="178" type="line"/>
      <point x="837" y="178" type="line"/>
      <point x="677" y="665" type="line" smooth="yes"/>
      <point x="669" y="690"/>
      <point x="677" y="703"/>
      <point x="704" y="703" type="curve" smooth="yes"/>
      <point x="744" y="703" type="line" smooth="yes"/>
      <point x="751" y="703"/>
      <point x="754" y="706"/>
      <point x="754" y="713" type="curve" smooth="yes"/>
    </contour>
    <contour>
      <point x="438" y="723" type="line" smooth="yes"/>
      <point x="438" y="730"/>
      <point x="435" y="733"/>
      <point x="428" y="733" type="curve" smooth="yes"/>
      <point x="60" y="733" type="line" smooth="yes"/>
      <point x="53" y="733"/>
      <point x="50" y="730"/>
      <point x="50" y="723" type="curve" smooth="yes"/>
      <point x="50" y="713" type="line" smooth="yes"/>
      <point x="50" y="706"/>
      <point x="53" y="703"/>
      <point x="60" y="703" type="curve" smooth="yes"/>
      <point x="180" y="703" type="line" smooth="yes"/>
      <point x="187" y="703"/>
      <point x="191" y="700"/>
      <point x="193" y="693" type="curve" smooth="yes"/>
      <point x="419" y="5" type="line" smooth="yes"/>
      <point x="420" y="1"/>
      <point x="422" y="0"/>
      <point x="426" y="0" type="curve"/>
      <point x="426" y="0" type="line"/>
      <point x="430" y="0"/>
      <point x="433" y="2"/>
      <point x="434" y="5" type="curve" smooth="yes"/>
      <point x="651" y="665" type="line" smooth="yes"/>
      <point x="659" y="690"/>
      <point x="677" y="703"/>
      <point x="704" y="703" type="curve" smooth="yes"/>
      <point x="783" y="703" type="line" smooth="yes"/>
      <point x="790" y="703"/>
      <point x="793" y="706"/>
      <point x="793" y="713" type="curve" smooth="yes"/>
      <point x="793" y="723" type="line" smooth="yes"/>
      <point x="793" y="730"/>
      <point x="790" y="733"/>
      <point x="783" y="733" type="curve" smooth="yes"/>
      <point x="500" y="733" type="line" smooth="yes"/>
      <point x="493" y="733"/>
      <point x="490" y="730"/>
      <point x="490" y="723" type="curve" smooth="yes"/>
      <point x="490" y="713" type="line" smooth="yes"/>
      <point x="490" y="706"/>
      <point x="493" y="703"/>
      <point x="500" y="703" type="curve" smooth="yes"/>
      <point x="560" y="703" type="line" smooth="yes"/>
      <point x="609" y="703"/>
      <point x="626" y="678"/>
      <point x="612" y="635" type="curve"/>
      <point x="611" y="631"/>
      <point x="610" y="628"/>
      <point x="609" y="625" type="curve" smooth="yes"/>
      <point x="461" y="178" type="line"/>
      <point x="471" y="178" type="line"/>
      <point x="301" y="693" type="line" smooth="yes"/>
      <point x="299" y="700"/>
      <point x="301" y="703"/>
      <point x="308" y="703" type="curve" smooth="yes"/>
      <point x="428" y="703" type="line" smooth="yes"/>
      <point x="435" y="703"/>
      <point x="438" y="706"/>
      <point x="438" y="713" type="curve" smooth="yes"/>
    </contour>
  </outline>
</glyph>
<glyph name="Z" format="2">
  <advance width="626"/>
  <unicode hex="005A"/>
  <outline>
    <contour>
      <point x="452.573" y="730.415" type="line" smooth="yes"/>
      <point x="445.078" y="730.415"/>
      <point x="439.724" y="728.274"/>
      <point x="436.512" y="721.85" type="curve" smooth="yes"/>
      <point x="55.3506" y="8.77747" type="line" smooth="yes"/>
      <point x="52.1386" y="2.3534"/>
      <point x="53.2093" y="-0.858642"/>
      <point x="60.704" y="-0.858642" type="curve" smooth="yes"/>
      <point x="177.408" y="-0.858642" type="line" smooth="yes"/>
      <point x="184.903" y="-0.858642"/>
      <point x="190.256" y="2.3534"/>
      <point x="193.468" y="8.77747" type="curve" smooth="yes"/>
      <point x="570.347" y="713.284" type="line" smooth="yes"/>
      <point x="573.559" y="719.708"/>
      <point x="572.489" y="723.991"/>
      <point x="564.994" y="723.991" type="curve" smooth="yes"/>
    </contour>
    <contour>
      <point x="569" y="710" type="line" smooth="yes"/>
      <point x="566" y="704"/>
      <point x="562" y="701"/>
      <point x="555" y="701" type="curve" smooth="yes"/>
      <point x="505" y="701"/>
      <point x="347" y="701"/>
      <point x="267" y="701" type="curve" smooth="yes"/>
      <point x="112" y="701"/>
      <point x="79" y="639"/>
      <point x="75" y="481" type="curve" smooth="yes"/>
      <point x="75" y="474"/>
      <point x="72" y="471"/>
      <point x="65" y="471" type="curve" smooth="yes"/>
      <point x="60" y="471" type="line" smooth="yes"/>
      <point x="53" y="471"/>
      <point x="50" y="474"/>
      <point x="50" y="481" type="curve" smooth="yes"/>
      <point x="50" y="722" type="line" smooth="yes"/>
      <point x="50" y="729"/>
      <point x="53" y="732"/>
      <point x="60" y="732" type="curve" smooth="yes"/>
      <point x="570" y="732" type="line" smooth="yes"/>
      <point x="577" y="732"/>
      <point x="579" y="729"/>
      <point x="576" y="723" type="curve" smooth="yes"/>
    </contour>
    <contour>
      <point x="563" y="-1" type="line" smooth="yes"/>
      <point x="570" y="-1"/>
      <point x="573" y="2"/>
      <point x="573" y="9" type="curve" smooth="yes"/>
      <point x="573" y="251" type="line" smooth="yes"/>
      <point x="573" y="258"/>
      <point x="570" y="261"/>
      <point x="563" y="261" type="curve" smooth="yes"/>
      <point x="558" y="261" type="line" smooth="yes"/>
      <point x="551" y="261"/>
      <point x="548" y="258"/>
      <point x="548" y="251" type="curve" smooth="yes"/>
      <point x="544" y="93"/>
      <point x="511" y="30"/>
      <point x="356" y="30" type="curve" smooth="yes"/>
      <point x="276" y="30"/>
      <point x="146" y="30"/>
      <point x="100" y="30" type="curve" smooth="yes"/>
      <point x="93" y="30"/>
      <point x="90" y="27"/>
      <point x="90" y="20" type="curve" smooth="yes"/>
      <point x="90" y="9" type="line" smooth="yes"/>
      <point x="90" y="2"/>
      <point x="93" y="-1"/>
      <point x="100" y="-1" type="curve" smooth="yes"/>
    </contour>
  </outline>
</glyph>
<glyph name="g" format="2">
  <advance width="613"/>
  <unicode hex="0067"/>
  <outline>
    <contour>
      <point x="376.069" y="450.592" type="curve" smooth="yes"/>
      <point x="390.467" y="446.272"/>
      <point x="401.986" y="449.152"/>
      <point x="413.505" y="457.791" type="curve" smooth="yes"/>
      <point x="423.584" y="466.43"/>
      <point x="433.663" y="473.629"/>
      <point x="455.26" y="475.069" type="curve" smooth="yes"/>
      <point x="525.813" y="479.389"/>
      <point x="567.568" y="404.517"/>
      <point x="561.809" y="355.562" type="curve" smooth="yes"/>
      <point x="558.929" y="328.205"/>
      <point x="540.211" y="315.247"/>
      <point x="512.854" y="315.247" type="curve" smooth="yes"/>
      <point x="495.576" y="315.247"/>
      <point x="459.58" y="325.325"/>
      <point x="462.46" y="364.201" type="curve" smooth="yes"/>
      <point x="465.339" y="400.197"/>
      <point x="494.136" y="400.197"/>
      <point x="495.576" y="413.156" type="curve"/>
      <point x="499.895" y="441.953"/>
      <point x="399.106" y="443.392"/>
      <point x="412.065" y="413.156" type="curve" smooth="yes"/>
      <point x="463.899" y="293.649"/>
      <point x="417.824" y="149.665"/>
      <point x="265.201" y="149.665" type="curve" smooth="yes"/>
      <point x="247.923" y="149.665"/>
      <point x="184.57" y="156.864"/>
      <point x="164.412" y="165.503" type="curve" smooth="yes"/>
      <point x="118.337" y="184.221"/>
      <point x="102.499" y="133.826"/>
      <point x="99.6193" y="97.8304" type="curve" smooth="yes"/>
      <point x="98.1795" y="87.7515"/>
      <point x="103.939" y="83.4319"/>
      <point x="114.018" y="83.4319" type="curve" smooth="yes"/>
      <point x="278.16" y="92.071"/>
      <point x="495.576" y="110.789"/>
      <point x="495.576" y="-97.9882" type="curve" smooth="yes"/>
      <point x="495.576" y="-214.615"/>
      <point x="380.389" y="-279.408"/>
      <point x="281.039" y="-279.408" type="curve" smooth="yes"/>
      <point x="183.13" y="-279.408"/>
      <point x="60.7436" y="-256.371"/>
      <point x="50.6647" y="-146.943" type="curve" smooth="yes"/>
      <point x="46.3452" y="-105.187"/>
      <point x="65.0631" y="-61.9921"/>
      <point x="88.1006" y="-40.3945" type="curve" smooth="yes"/>
      <point x="95.2998" y="-33.1953"/>
      <point x="96.7396" y="-28.8757"/>
      <point x="89.5404" y="-21.6765" type="curve" smooth="yes"/>
      <point x="63.6233" y="4.24063"/>
      <point x="50.6647" y="22.9586"/>
      <point x="50.6647" y="66.1538" type="curve" smooth="yes"/>
      <point x="50.6647" y="107.909"/>
      <point x="76.5818" y="153.984"/>
      <point x="96.7396" y="179.901" type="curve" smooth="yes"/>
      <point x="102.499" y="187.101"/>
      <point x="102.499" y="194.3"/>
      <point x="96.7396" y="201.499" type="curve" smooth="yes"/>
      <point x="80.9014" y="220.217"/>
      <point x="70.8225" y="241.815"/>
      <point x="66.5029" y="280.69" type="curve" smooth="yes"/>
      <point x="53.5444" y="413.156"/>
      <point x="134.176" y="479.389"/>
      <point x="247.923" y="479.389" type="curve" smooth="yes"/>
      <point x="302.637" y="479.389"/>
      <point x="342.953" y="460.671"/>
    </contour>
    <contour>
      <point x="164.412" y="315.247" type="curve" smooth="yes"/>
      <point x="164.412" y="247.574"/>
      <point x="164.412" y="182.781"/>
      <point x="247.923" y="182.781" type="curve" smooth="yes"/>
      <point x="329.994" y="182.781"/>
      <point x="329.994" y="231.736"/>
      <point x="329.994" y="315.247" type="curve" smooth="yes"/>
      <point x="329.994" y="397.318"/>
      <point x="329.994" y="446.272"/>
      <point x="247.923" y="446.272" type="curve" smooth="yes"/>
      <point x="164.412" y="446.272"/>
      <point x="164.412" y="380.039"/>
    </contour>
    <contour>
      <point x="93.8599" y="-125.345" type="curve" smooth="yes"/>
      <point x="93.8599" y="-226.134"/>
      <point x="181.69" y="-247.732"/>
      <point x="265.201" y="-247.732" type="curve" smooth="yes"/>
      <point x="363.11" y="-247.732"/>
      <point x="429.343" y="-197.337"/>
      <point x="429.343" y="-97.9882" type="curve" smooth="yes"/>
      <point x="429.343" y="-38.9546"/>
      <point x="380.389" y="-18.7968"/>
      <point x="314.156" y="-15.9172" type="curve" smooth="yes"/>
      <point x="217.686" y="-13.0375"/>
      <point x="93.8599" y="-27.4359"/>
    </contour>
  </outline>
  <guideline angle="0" x="0" y="480"/>
</glyph>
<glyph name="i" format="2">
  <advance width="431"/>
  <unicode hex="0069"/>
  <outline>
    <contour>
      <point x="50.5417" y="489.512" type="line" smooth="yes"/>
      <point x="50.5417" y="482.018"/>
      <point x="53.7537" y="478.806"/>
      <point x="61.2485" y="478.806" type="curve" smooth="yes"/>
      <point x="112.641" y="478.806" type="line" smooth="yes"/>
      <point x="147.973" y="478.806"/>
      <point x="166.175" y="460.604"/>
      <point x="166.175" y="425.272" type="curve" smooth="yes"/>
      <point x="166.175" y="41.9685" type="line" smooth="yes"/>
      <point x="166.175" y="34.4738"/>
      <point x="162.963" y="31.2617"/>
      <point x="155.468" y="31.2617" type="curve" smooth="yes"/>
      <point x="61.2485" y="31.2617" type="line" smooth="yes"/>
      <point x="53.7537" y="31.2617"/>
      <point x="50.5417" y="28.0497"/>
      <point x="50.5417" y="20.5549" type="curve" smooth="yes"/>
      <point x="50.5417" y="10.9188" type="line" smooth="yes"/>
      <point x="50.5417" y="3.42407"/>
      <point x="53.7537" y="0.212037"/>
      <point x="61.2485" y="0.212037" type="curve" smooth="yes"/>
      <point x="369.604" y="0.212037" type="line" smooth="yes"/>
      <point x="377.099" y="0.212037"/>
      <point x="380.311" y="3.42407"/>
      <point x="380.311" y="10.9188" type="curve" smooth="yes"/>
      <point x="380.311" y="20.5549" type="line" smooth="yes"/>
      <point x="380.311" y="28.0497"/>
      <point x="377.099" y="31.2617"/>
      <point x="369.604" y="31.2617" type="curve" smooth="yes"/>
      <point x="275.384" y="31.2617" type="line" smooth="yes"/>
      <point x="267.89" y="31.2617"/>
      <point x="264.677" y="34.4738"/>
      <point x="264.677" y="41.9685" type="curve" smooth="yes"/>
      <point x="264.677" y="499.148" type="line" smooth="yes"/>
      <point x="264.677" y="506.643"/>
      <point x="261.465" y="509.855"/>
      <point x="253.971" y="509.855" type="curve" smooth="yes"/>
      <point x="61.2485" y="509.855" type="line" smooth="yes"/>
      <point x="53.7537" y="509.855"/>
      <point x="50.5417" y="506.643"/>
      <point x="50.5417" y="499.148" type="curve" smooth="yes"/>
    </contour>
    <contour>
      <point x="137" y="672" type="curve" smooth="yes"/>
      <point x="137" y="637"/>
      <point x="166" y="608"/>
      <point x="201" y="608" type="curve" smooth="yes"/>
      <point x="236" y="608"/>
      <point x="265" y="637"/>
      <point x="265" y="672" type="curve" smooth="yes"/>
      <point x="265" y="707"/>
      <point x="236" y="736"/>
      <point x="201" y="736" type="curve" smooth="yes"/>
      <point x="166" y="736"/>
      <point x="137" y="707"/>
    </contour>
  </outline>
  <guideline angle="0" x="0" y="480"/>
</glyph>
<glyph name="j" format="2">
  <advance width="491"/>
  <unicode hex="006A"/>
  <outline>
    <contour>
      <point x="283" y="672" type="curve" smooth="yes"/>
      <point x="283" y="637"/>
      <point x="312" y="608"/>
      <point x="347" y="608" type="curve" smooth="yes"/>
      <point x="382" y="608"/>
      <point x="411" y="637"/>
      <point x="411" y="672" type="curve" smooth="yes"/>
      <point x="411" y="707"/>
      <point x="382" y="736"/>
      <point x="347" y="736" type="curve" smooth="yes"/>
      <point x="312" y="736"/>
      <point x="283" y="707"/>
    </contour>
    <contour>
      <point x="197" y="490" type="line" smooth="yes"/>
      <point x="197" y="482"/>
      <point x="200" y="479"/>
      <point x="207" y="479" type="curve" smooth="yes"/>
      <point x="258" y="479" type="line" smooth="yes"/>
      <point x="293" y="479"/>
      <point x="311" y="461"/>
      <point x="311" y="425" type="curve" smooth="yes"/>
      <point x="311" y="-152" type="line" smooth="yes"/>
      <point x="311" y="-271"/>
      <point x="201" y="-292"/>
      <point x="190" y="-223" type="curve" smooth="yes"/>
      <point x="184" y="-183"/>
      <point x="209" y="-164"/>
      <point x="209" y="-123" type="curve" smooth="yes"/>
      <point x="209" y="-31"/>
      <point x="50" y="-35"/>
      <point x="50" y="-164" type="curve" smooth="yes"/>
      <point x="50" y="-262"/>
      <point x="129" y="-304"/>
      <point x="230" y="-304" type="curve" smooth="yes"/>
      <point x="373" y="-304"/>
      <point x="411" y="-216"/>
      <point x="411" y="-83" type="curve" smooth="yes"/>
      <point x="411" y="499" type="line" smooth="yes"/>
      <point x="411" y="507"/>
      <point x="407" y="510"/>
      <point x="400" y="510" type="curve" smooth="yes"/>
      <point x="207" y="510" type="line" smooth="yes"/>
      <point x="200" y="510"/>
      <point x="197" y="507"/>
      <point x="197" y="499" type="curve" smooth="yes"/>
    </contour>
  </outline>
  <guideline angle="0" x="0" y="480"/>
</glyph>
<glyph name="l" format="2">
  <advance width="451"/>
  <unicode hex="006C"/>
  <outline>
    <contour>
      <point x="60.5417" y="711.143" type="line" smooth="yes"/>
      <point x="60.5417" y="703.648"/>
      <point x="63.7537" y="700.436"/>
      <point x="71.2485" y="700.436" type="curve" smooth="yes"/>
      <point x="122.641" y="700.436" type="line" smooth="yes"/>
      <point x="157.973" y="700.436"/>
      <point x="176.175" y="682.235"/>
      <point x="176.175" y="646.902" type="curve" smooth="yes"/>
      <point x="176.175" y="41.9685" type="line" smooth="yes"/>
      <point x="176.175" y="34.4738"/>
      <point x="172.963" y="31.2617"/>
      <point x="165.468" y="31.2617" type="curve" smooth="yes"/>
      <point x="71.2485" y="31.2617" type="line" smooth="yes"/>
      <point x="63.7537" y="31.2617"/>
      <point x="60.5417" y="28.0497"/>
      <point x="60.5417" y="20.5549" type="curve" smooth="yes"/>
      <point x="60.5417" y="10.9188" type="line" smooth="yes"/>
      <point x="60.5417" y="3.42407"/>
      <point x="63.7537" y="0.212037"/>
      <point x="71.2485" y="0.212037" type="curve" smooth="yes"/>
      <point x="379.604" y="0.212037" type="line" smooth="yes"/>
      <point x="387.099" y="0.212037"/>
      <point x="390.311" y="3.42407"/>
      <point x="390.311" y="10.9188" type="curve" smooth="yes"/>
      <point x="390.311" y="20.5549" type="line" smooth="yes"/>
      <point x="390.311" y="28.0497"/>
      <point x="387.099" y="31.2617"/>
      <point x="379.604" y="31.2617" type="curve" smooth="yes"/>
      <point x="285.384" y="31.2617" type="line" smooth="yes"/>
      <point x="277.89" y="31.2617"/>
      <point x="274.677" y="34.4738"/>
      <point x="274.677" y="41.9685" type="curve" smooth="yes"/>
      <point x="274.677" y="720.779" type="line" smooth="yes"/>
      <point x="274.677" y="728.274"/>
      <point x="271.465" y="731.486"/>
      <point x="263.971" y="731.486" type="curve" smooth="yes"/>
      <point x="71.2485" y="731.486" type="line" smooth="yes"/>
      <point x="63.7537" y="731.486"/>
      <point x="60.5417" y="728.274"/>
      <point x="60.5417" y="720.779" type="curve" smooth="yes"/>
    </contour>
  </outline>
</glyph>
<glyph name="m" format="2">
  <advance width="947"/>
  <unicode hex="006D"/>
  <outline>
    <component base="n"/>
    <contour>
      <point x="818.924" y="41.8531" type="curve" smooth="yes"/>
      <point x="818.924" y="33.891"/>
      <point x="822.337" y="30.4787"/>
      <point x="830.299" y="30.4787" type="curve" smooth="yes"/>
      <point x="884.896" y="30.4787" type="line" smooth="yes"/>
      <point x="892.858" y="30.4787"/>
      <point x="896.27" y="27.0664"/>
      <point x="896.27" y="19.1043" type="curve" smooth="yes"/>
      <point x="896.27" y="16.8294"/>
      <point x="896.27" y="14.5545"/>
      <point x="896.27" y="11.1422" type="curve" smooth="yes"/>
      <point x="896.27" y="3.1801"/>
      <point x="892.858" y="-0.232222"/>
      <point x="884.896" y="-0.232222" type="curve" smooth="yes"/>
      <point x="649.446" y="-0.232222" type="line" smooth="yes"/>
      <point x="641.483" y="-0.232222"/>
      <point x="638.071" y="3.1801"/>
      <point x="638.071" y="11.1422" type="curve" smooth="yes"/>
      <point x="638.071" y="14.5545"/>
      <point x="638.071" y="16.8294"/>
      <point x="638.071" y="19.1043" type="curve" smooth="yes"/>
      <point x="638.071" y="27.0664"/>
      <point x="641.483" y="30.4787"/>
      <point x="649.446" y="30.4787" type="curve" smooth="yes"/>
      <point x="660.82" y="30.4787"/>
      <point x="676.744" y="30.4787"/>
      <point x="699.493" y="30.4787" type="curve" smooth="yes"/>
      <point x="707.455" y="30.4787"/>
      <point x="710.867" y="33.891"/>
      <point x="710.867" y="41.8531" type="curve" smooth="yes"/>
      <point x="710.867" y="380.81" type="line" smooth="yes"/>
      <point x="710.867" y="413.796"/>
      <point x="680.156" y="438.82"/>
      <point x="638.071" y="429.72" type="curve" smooth="yes"/>
      <point x="545.938" y="410.384"/>
      <point x="508.403" y="293.228"/>
      <point x="509.54" y="218.156" type="curve"/>
      <point x="502.716" y="231.806"/>
      <point x="473.142" y="278.441"/>
      <point x="461.768" y="296.64" type="curve"/>
      <point x="531.152" y="393.322"/>
      <point x="547.076" y="479.768"/>
      <point x="688.119" y="479.768" type="curve" smooth="yes"/>
      <point x="743.853" y="479.768"/>
      <point x="818.924" y="442.232"/>
      <point x="818.924" y="380.81" type="curve" smooth="yes"/>
      <point x="818.924" y="276.166"/>
      <point x="818.924" y="101"/>
    </contour>
  </outline>
  <guideline angle="0" x="0" y="480"/>
</glyph>
<glyph name="n" format="2">
  <advance width="677"/>
  <unicode hex="006E"/>
  <outline>
    <contour>
      <point x="50.1778" y="459.533" type="line" smooth="yes"/>
      <point x="50.1778" y="452.039"/>
      <point x="53.3898" y="448.827"/>
      <point x="60.8846" y="448.827" type="curve" smooth="yes"/>
      <point x="102.641" y="448.827" type="line" smooth="yes"/>
      <point x="137.973" y="448.827"/>
      <point x="156.175" y="430.625"/>
      <point x="156.175" y="395.293" type="curve" smooth="yes"/>
      <point x="156.175" y="41.9685" type="line" smooth="yes"/>
      <point x="156.175" y="34.4738"/>
      <point x="152.963" y="31.2617"/>
      <point x="145.468" y="31.2617" type="curve" smooth="yes"/>
      <point x="60.8846" y="31.2617" type="line" smooth="yes"/>
      <point x="53.3898" y="31.2617"/>
      <point x="50.1778" y="28.0497"/>
      <point x="50.1778" y="20.5549" type="curve" smooth="yes"/>
      <point x="50.1778" y="10.9188" type="line" smooth="yes"/>
      <point x="50.1778" y="3.42407"/>
      <point x="53.3898" y="0.212037"/>
      <point x="60.8846" y="0.212037" type="curve" smooth="yes"/>
      <point x="349.968" y="0.212037" type="line" smooth="yes"/>
      <point x="357.463" y="0.212037"/>
      <point x="360.675" y="3.42407"/>
      <point x="360.675" y="10.9188" type="curve" smooth="yes"/>
      <point x="360.675" y="20.5549" type="line" smooth="yes"/>
      <point x="360.675" y="28.0497"/>
      <point x="357.463" y="31.2617"/>
      <point x="349.968" y="31.2617" type="curve" smooth="yes"/>
      <point x="265.384" y="31.2617" type="line" smooth="yes"/>
      <point x="257.89" y="31.2617"/>
      <point x="254.677" y="34.4738"/>
      <point x="254.677" y="41.9685" type="curve" smooth="yes"/>
      <point x="254.677" y="469.169" type="line" smooth="yes"/>
      <point x="254.677" y="476.664"/>
      <point x="251.465" y="479.876"/>
      <point x="243.971" y="479.876" type="curve" smooth="yes"/>
      <point x="60.8846" y="479.876" type="line" smooth="yes"/>
      <point x="53.3898" y="479.876"/>
      <point x="50.1778" y="476.664"/>
      <point x="50.1778" y="469.169" type="curve" smooth="yes"/>
    </contour>
    <contour>
      <point x="549.635" y="41.8531" type="curve" smooth="yes"/>
      <point x="549.635" y="101"/>
      <point x="549.635" y="276.166"/>
      <point x="549.635" y="380.81" type="curve" smooth="yes"/>
      <point x="549.635" y="442.232"/>
      <point x="474.564" y="479.768"/>
      <point x="418.829" y="479.768" type="curve" smooth="yes"/>
      <point x="277.787" y="479.768"/>
      <point x="261.863" y="393.322"/>
      <point x="192.479" y="296.64" type="curve"/>
      <point x="203.853" y="278.441"/>
      <point x="233.427" y="231.806"/>
      <point x="240.251" y="218.156" type="curve"/>
      <point x="239.114" y="293.228"/>
      <point x="276.649" y="410.384"/>
      <point x="368.782" y="429.72" type="curve" smooth="yes"/>
      <point x="410.867" y="438.82"/>
      <point x="441.578" y="413.796"/>
      <point x="441.578" y="380.81" type="curve" smooth="yes"/>
      <point x="441.578" y="41.8531" type="line" smooth="yes"/>
      <point x="441.578" y="33.891"/>
      <point x="438.166" y="30.4787"/>
      <point x="430.204" y="30.4787" type="curve" smooth="yes"/>
      <point x="407.455" y="30.4787"/>
      <point x="391.531" y="30.4787"/>
      <point x="380.156" y="30.4787" type="curve" smooth="yes"/>
      <point x="372.194" y="30.4787"/>
      <point x="368.782" y="27.0664"/>
      <point x="368.782" y="19.1043" type="curve" smooth="yes"/>
      <point x="368.782" y="16.8294"/>
      <point x="368.782" y="14.5545"/>
      <point x="368.782" y="11.1422" type="curve" smooth="yes"/>
      <point x="368.782" y="3.1801"/>
      <point x="372.194" y="-0.232222"/>
      <point x="380.156" y="-0.232222" type="curve" smooth="yes"/>
      <point x="615.607" y="-0.232222" type="line" smooth="yes"/>
      <point x="623.569" y="-0.232222"/>
      <point x="626.981" y="3.1801"/>
      <point x="626.981" y="11.1422" type="curve" smooth="yes"/>
      <point x="626.981" y="14.5545"/>
      <point x="626.981" y="16.8294"/>
      <point x="626.981" y="19.1043" type="curve" smooth="yes"/>
      <point x="626.981" y="27.0664"/>
      <point x="623.569" y="30.4787"/>
      <point x="615.607" y="30.4787" type="curve" smooth="yes"/>
      <point x="561.01" y="30.4787" type="line" smooth="yes"/>
      <point x="553.047" y="30.4787"/>
      <point x="549.635" y="33.891"/>
    </contour>
  </outline>
  <guideline angle="0" x="0" y="480"/>
</glyph>
<glyph name="s" format="2">
  <advance width="425"/>
  <unicode hex="0073"/>
  <outline>
    <contour>
      <point x="283.157" y="432.658" type="curve" smooth="yes"/>
      <point x="287.21" y="428.605"/>
      <point x="290.453" y="429.416"/>
      <point x="292.884" y="434.279" type="curve" smooth="yes"/>
      <point x="318.013" y="484.537" type="line" smooth="yes"/>
      <point x="319.634" y="487.779"/>
      <point x="322.877" y="490.211"/>
      <point x="326.93" y="490.211" type="curve"/>
      <point x="326.93" y="490.211" type="line"/>
      <point x="330.983" y="490.211"/>
      <point x="332.604" y="487.779"/>
      <point x="332.604" y="483.726" type="curve" smooth="yes"/>
      <point x="332.604" y="401.045"/>
      <point x="332.604" y="330.522"/>
      <point x="332.604" y="295.666" type="curve" smooth="yes"/>
      <point x="332.604" y="291.613"/>
      <point x="330.172" y="289.181"/>
      <point x="326.119" y="289.181" type="curve"/>
      <point x="326.119" y="289.181" type="line"/>
      <point x="322.066" y="289.181"/>
      <point x="319.634" y="290.802"/>
      <point x="318.824" y="294.855" type="curve" smooth="yes"/>
      <point x="296.937" y="367.81"/>
      <point x="254.786" y="458.598"/>
      <point x="172.104" y="458.598" type="curve" smooth="yes"/>
      <point x="69.9682" y="458.598"/>
      <point x="69.9682" y="349.166"/>
      <point x="132.385" y="307.015" type="curve" smooth="yes"/>
      <point x="193.18" y="265.674"/>
      <point x="295.316" y="280.265"/>
      <point x="350.437" y="193.53" type="curve" smooth="yes"/>
      <point x="400.695" y="114.901"/>
      <point x="373.945" y="-2.63647"/>
      <point x="260.46" y="-7.50009" type="curve" smooth="yes"/>
      <point x="189.938" y="-10.7425"/>
      <point x="163.188" y="19.2499"/>
      <point x="114.551" y="60.5907" type="curve" smooth="yes"/>
      <point x="110.498" y="63.8331"/>
      <point x="107.256" y="63.0225"/>
      <point x="104.014" y="58.1589" type="curve" smooth="yes"/>
      <point x="92.6651" y="40.3256"/>
      <point x="78.0742" y="20.0605"/>
      <point x="65.9151" y="3.84837" type="curve" smooth="yes"/>
      <point x="63.4833" y="0.605952"/>
      <point x="61.0515" y="-1.01526"/>
      <point x="56.9985" y="-1.01526" type="curve"/>
      <point x="56.9985" y="-1.01526" type="line"/>
      <point x="52.9455" y="-1.01526"/>
      <point x="50.5137" y="1.41656"/>
      <point x="50.5137" y="5.46958" type="curve" smooth="yes"/>
      <point x="50.5137" y="206.5" type="line" smooth="yes"/>
      <point x="50.5137" y="210.553"/>
      <point x="52.9455" y="212.984"/>
      <point x="56.9985" y="212.984" type="curve"/>
      <point x="56.9985" y="212.984" type="line"/>
      <point x="61.0515" y="212.984"/>
      <point x="63.4833" y="211.363"/>
      <point x="65.1045" y="207.31" type="curve" smooth="yes"/>
      <point x="91.0439" y="138.409"/>
      <point x="131.574" y="64.6437"/>
      <point x="188.316" y="34.6513" type="curve" smooth="yes"/>
      <point x="301.801" y="-25.3334"/>
      <point x="351.248" y="114.091"/>
      <point x="260.46" y="165.159" type="curve" smooth="yes"/>
      <point x="185.074" y="207.31"/>
      <point x="55.3773" y="189.477"/>
      <point x="55.3773" y="341.871" type="curve" smooth="yes"/>
      <point x="55.3773" y="426.984"/>
      <point x="86.9909" y="479.673"/>
      <point x="172.104" y="479.673" type="curve" smooth="yes"/>
      <point x="206.15" y="479.673"/>
      <point x="243.438" y="469.946"/>
    </contour>
  </outline>
  <guideline angle="0" x="0" y="480"/>
</glyph>
<glyph name="t" format="2">
  <advance width="513"/>
  <unicode hex="0074"/>
  <outline>
    <contour>
      <point x="60.5417" y="450.968" type="line" smooth="yes"/>
      <point x="60.5417" y="443.473"/>
      <point x="63.7537" y="440.261"/>
      <point x="71.2485" y="440.261" type="curve" smooth="yes"/>
      <point x="175.104" y="440.261" type="line" smooth="yes"/>
      <point x="182.599" y="440.261"/>
      <point x="185.811" y="437.049"/>
      <point x="185.811" y="429.554" type="curve" smooth="yes"/>
      <point x="185.811" y="127.623" type="line" smooth="yes"/>
      <point x="185.811" y="56.958"/>
      <point x="227.568" y="-4.07068"/>
      <point x="302.515" y="-4.07068" type="curve" smooth="yes"/>
      <point x="398.876" y="-4.07068"/>
      <point x="462.046" y="45.1806"/>
      <point x="451.34" y="208.994" type="curve" smooth="yes"/>
      <point x="450.269" y="218.631"/>
      <point x="445.986" y="222.913"/>
      <point x="436.35" y="222.913" type="curve"/>
      <point x="436.35" y="222.913" type="line"/>
      <point x="426.714" y="222.913"/>
      <point x="422.431" y="218.631"/>
      <point x="423.502" y="208.994" type="curve" smooth="yes"/>
      <point x="433.138" y="111.563"/>
      <point x="418.148" y="39.8272"/>
      <point x="341.06" y="39.8272" type="curve" smooth="yes"/>
      <point x="289.667" y="39.8272"/>
      <point x="274.677" y="95.5025"/>
      <point x="274.677" y="127.623" type="curve" smooth="yes"/>
      <point x="274.677" y="429.554" type="line" smooth="yes"/>
      <point x="274.677" y="437.049"/>
      <point x="277.89" y="440.261"/>
      <point x="285.384" y="440.261" type="curve" smooth="yes"/>
      <point x="379.604" y="440.261" type="line" smooth="yes"/>
      <point x="387.099" y="440.261"/>
      <point x="390.311" y="443.473"/>
      <point x="390.311" y="450.968" type="curve" smooth="yes"/>
      <point x="390.311" y="460.604" type="line" smooth="yes"/>
      <point x="390.311" y="468.099"/>
      <point x="387.099" y="471.311"/>
      <point x="379.604" y="471.311" type="curve" smooth="yes"/>
      <point x="274.677" y="471.311" type="line"/>
      <point x="274.677" y="707.931" type="line" smooth="yes"/>
      <point x="274.677" y="725.062"/>
      <point x="267.183" y="732.557"/>
      <point x="250.052" y="732.557" type="curve"/>
      <point x="250.052" y="732.557" type="line"/>
      <point x="232.921" y="732.557"/>
      <point x="224.356" y="725.062"/>
      <point x="224.356" y="707.931" type="curve" smooth="yes"/>
      <point x="224.356" y="615.853" type="line" smooth="yes"/>
      <point x="224.356" y="518.421"/>
      <point x="177.246" y="471.311"/>
      <point x="79.8139" y="471.311" type="curve" smooth="yes"/>
      <point x="71.2485" y="471.311" type="line" smooth="yes"/>
      <point x="63.7537" y="471.311"/>
      <point x="60.5417" y="468.099"/>
      <point x="60.5417" y="460.604" type="curve" smooth="yes"/>
    </contour>
  </outline>
</glyph>
<glyph name="u" format="2">
  <advance width="677"/>
  <unicode hex="0075"/>
  <outline>
    <contour>
      <point x="626.822" y="20.4666" type="line" smooth="yes"/>
      <point x="626.822" y="27.9614"/>
      <point x="623.61" y="31.1734"/>
      <point x="616.115" y="31.1734" type="curve" smooth="yes"/>
      <point x="574.359" y="31.1734" type="line" smooth="yes"/>
      <point x="539.027" y="31.1734"/>
      <point x="520.825" y="49.375"/>
      <point x="520.825" y="84.7074" type="curve" smooth="yes"/>
      <point x="520.825" y="469.081" type="line" smooth="yes"/>
      <point x="520.825" y="476.576"/>
      <point x="517.613" y="479.788"/>
      <point x="510.118" y="479.788" type="curve" smooth="yes"/>
      <point x="327.032" y="479.788" type="line" smooth="yes"/>
      <point x="319.537" y="479.788"/>
      <point x="316.325" y="476.576"/>
      <point x="316.325" y="469.081" type="curve" smooth="yes"/>
      <point x="316.325" y="459.445" type="line" smooth="yes"/>
      <point x="316.325" y="451.95"/>
      <point x="319.537" y="448.738"/>
      <point x="327.032" y="448.738" type="curve" smooth="yes"/>
      <point x="390.202" y="448.738" type="line" smooth="yes"/>
      <point x="411.616" y="448.738"/>
      <point x="422.323" y="438.031"/>
      <point x="422.323" y="416.618" type="curve" smooth="yes"/>
      <point x="422.323" y="10.8305" type="line" smooth="yes"/>
      <point x="422.323" y="3.33578"/>
      <point x="425.535" y="0.12374"/>
      <point x="433.029" y="0.12374" type="curve" smooth="yes"/>
      <point x="616.115" y="0.12374" type="line" smooth="yes"/>
      <point x="623.61" y="0.12374"/>
      <point x="626.822" y="3.33578"/>
      <point x="626.822" y="10.8305" type="curve" smooth="yes"/>
    </contour>
    <contour>
      <point x="127.365" y="415.398" type="curve" smooth="yes"/>
      <point x="127.365" y="342.602"/>
      <point x="127.365" y="192.46"/>
      <point x="127.365" y="99.1896" type="curve" smooth="yes"/>
      <point x="127.365" y="37.7678"/>
      <point x="202.436" y="0.232204"/>
      <point x="258.171" y="0.232204" type="curve" smooth="yes"/>
      <point x="399.213" y="0.232204"/>
      <point x="415.137" y="86.6777"/>
      <point x="484.521" y="183.36" type="curve"/>
      <point x="473.147" y="201.559"/>
      <point x="443.573" y="248.194"/>
      <point x="436.749" y="261.844" type="curve"/>
      <point x="437.886" y="186.772"/>
      <point x="400.351" y="69.6161"/>
      <point x="308.218" y="50.2796" type="curve" smooth="yes"/>
      <point x="266.133" y="41.1801"/>
      <point x="235.422" y="66.2038"/>
      <point x="235.422" y="99.1896" type="curve" smooth="yes"/>
      <point x="235.422" y="468.858" type="line" smooth="yes"/>
      <point x="235.422" y="476.82"/>
      <point x="232.009" y="480.232"/>
      <point x="224.047" y="480.232" type="curve" smooth="yes"/>
      <point x="61.3933" y="480.232" type="line" smooth="yes"/>
      <point x="53.4312" y="480.232"/>
      <point x="50.0189" y="476.82"/>
      <point x="50.0189" y="468.858" type="curve" smooth="yes"/>
      <point x="50.0189" y="465.445"/>
      <point x="50.0189" y="463.171"/>
      <point x="50.0189" y="460.896" type="curve" smooth="yes"/>
      <point x="50.0189" y="452.934"/>
      <point x="53.4312" y="449.521"/>
      <point x="61.3933" y="449.521" type="curve" smooth="yes"/>
      <point x="93.2416" y="449.521" type="line" smooth="yes"/>
      <point x="115.99" y="449.521"/>
      <point x="127.365" y="438.147"/>
    </contour>
  </outline>
  <guideline angle="0" x="0" y="0"/>
</glyph>
<glyph name="v" format="2">
  <advance width="581"/>
  <unicode hex="0076"/>
  <outline>
    <contour>
      <point x="309.822" y="473.136" type="line" smooth="yes"/>
      <point x="309.822" y="477.75"/>
      <point x="307.845" y="479.727"/>
      <point x="303.231" y="479.727" type="curve" smooth="yes"/>
      <point x="36.9598" y="479.727" type="line" smooth="yes"/>
      <point x="32.3462" y="479.727"/>
      <point x="30.3689" y="477.75"/>
      <point x="30.3689" y="473.136" type="curve" smooth="yes"/>
      <point x="30.3689" y="456.659" type="line" smooth="yes"/>
      <point x="30.3689" y="452.046"/>
      <point x="32.3462" y="450.068"/>
      <point x="36.9598" y="450.068" type="curve" smooth="yes"/>
      <point x="116.05" y="450.068" type="line" smooth="yes"/>
      <point x="120.664" y="450.068"/>
      <point x="123.3" y="448.091"/>
      <point x="124.618" y="443.477" type="curve" smooth="yes"/>
      <point x="272.913" y="2.54797" type="line" smooth="yes"/>
      <point x="274.231" y="-1.40656"/>
      <point x="276.868" y="-3.38382"/>
      <point x="281.481" y="-3.38382" type="curve" smooth="yes"/>
      <point x="305.867" y="-3.38382" type="line" smooth="yes"/>
      <point x="310.481" y="-3.38382"/>
      <point x="313.117" y="-1.40656"/>
      <point x="314.436" y="2.54797" type="curve" smooth="yes"/>
      <point x="456.799" y="425.023" type="line" smooth="yes"/>
      <point x="462.73" y="441.5"/>
      <point x="473.935" y="450.068"/>
      <point x="491.73" y="450.068" type="curve" smooth="yes"/>
      <point x="543.798" y="450.068" type="line" smooth="yes"/>
      <point x="548.412" y="450.068"/>
      <point x="550.389" y="452.046"/>
      <point x="550.389" y="456.659" type="curve" smooth="yes"/>
      <point x="550.389" y="473.136" type="line" smooth="yes"/>
      <point x="550.389" y="477.75"/>
      <point x="548.412" y="479.727"/>
      <point x="543.798" y="479.727" type="curve" smooth="yes"/>
      <point x="350.685" y="479.727" type="line" smooth="yes"/>
      <point x="346.072" y="479.727"/>
      <point x="344.095" y="477.75"/>
      <point x="344.095" y="473.136" type="curve" smooth="yes"/>
      <point x="344.095" y="456.659" type="line" smooth="yes"/>
      <point x="344.095" y="452.046"/>
      <point x="346.072" y="450.068"/>
      <point x="350.685" y="450.068" type="curve" smooth="yes"/>
      <point x="390.231" y="450.068" type="line" smooth="yes"/>
      <point x="422.526" y="450.068"/>
      <point x="433.73" y="433.591"/>
      <point x="424.503" y="405.25" type="curve"/>
      <point x="423.844" y="402.614"/>
      <point x="423.185" y="400.637"/>
      <point x="422.526" y="398.66" type="curve" smooth="yes"/>
      <point x="324.981" y="113.934" type="line"/>
      <point x="331.572" y="113.934" type="line"/>
      <point x="219.527" y="443.477" type="line" smooth="yes"/>
      <point x="218.209" y="448.091"/>
      <point x="219.527" y="450.068"/>
      <point x="224.141" y="450.068" type="curve" smooth="yes"/>
      <point x="303.231" y="450.068" type="line" smooth="yes"/>
      <point x="307.845" y="450.068"/>
      <point x="309.822" y="452.046"/>
      <point x="309.822" y="456.659" type="curve" smooth="yes"/>
    </contour>
  </outline>
  <guideline angle="0.179313" x="32" y="480"/>
</glyph>
<glyph name="kn_am" format="2">
  <advance width="607"/>
  <unicode hex="0C82"/>
  <outline>
    <contour>
      <point x="334" y="54" type="curve" smooth="yes"/>
      <point x="103" y="2"/>
      <point x="41" y="221"/>
      <point x="52" y="323" type="curve" smooth="yes"/>
      <point x="69" y="488"/>
      <point x="150" y="544"/>
      <point x="247" y="568" type="curve" smooth="yes"/>
      <point x="388" y="603"/>
      <point x="546" y="473"/>
      <point x="556" y="331" type="curve" smooth="yes"/>
      <point x="568" y="171"/>
      <point x="470" y="84"/>
    </contour>
    <contour>
      <point x="316" y="153" type="curve" smooth="yes"/>
      <point x="393" y="170"/>
      <point x="518" y="229"/>
      <point x="485" y="383" type="curve" smooth="yes"/>
      <point x="471" y="450"/>
      <point x="388" y="523"/>
      <point x="261" y="494" type="curve" smooth="yes"/>
      <point x="188" y="478"/>
      <point x="114" y="424"/>
      <point x="100" y="329" type="curve" smooth="yes"/>
      <point x="80" y="193"/>
      <point x="201" y="128"/>
    </contour>
  </outline>
</glyph>
<glyph name="kn_ah" format="2">
  <advance width="533"/>
  <unicode hex="0C83"/>
  <outline>
    <contour>
      <point x="233" y="-159" type="curve" smooth="yes"/>
      <point x="109" y="-159"/>
      <point x="44" y="-66"/>
      <point x="51" y="52" type="curve" smooth="yes"/>
      <point x="58" y="169"/>
      <point x="119" y="259"/>
      <point x="237" y="260" type="curve" smooth="yes"/>
      <point x="362" y="261"/>
      <point x="457" y="190"/>
      <point x="457" y="52" type="curve" smooth="yes"/>
      <point x="457" y="-90"/>
      <point x="364" y="-159"/>
    </contour>
    <contour>
      <point x="251" y="-60" type="curve" smooth="yes"/>
      <point x="316" y="-60"/>
      <point x="363" y="-7"/>
      <point x="366" y="50" type="curve" smooth="yes"/>
      <point x="370" y="130"/>
      <point x="341" y="189"/>
      <point x="251" y="189" type="curve" smooth="yes"/>
      <point x="160" y="189"/>
      <point x="123" y="116"/>
      <point x="122" y="53" type="curve" smooth="yes"/>
      <point x="122" y="-10"/>
      <point x="170" y="-60"/>
    </contour>
    <contour>
      <point x="256" y="318" type="curve" smooth="yes"/>
      <point x="148" y="323"/>
      <point x="62" y="395"/>
      <point x="63" y="509" type="curve" smooth="yes"/>
      <point x="64" y="624"/>
      <point x="125" y="734"/>
      <point x="257" y="730" type="curve" smooth="yes"/>
      <point x="362" y="727"/>
      <point x="483" y="649"/>
      <point x="483" y="534" type="curve" smooth="yes"/>
      <point x="483" y="393"/>
      <point x="395" y="311"/>
    </contour>
    <contour>
      <point x="392" y="517" type="curve" smooth="yes"/>
      <point x="392" y="569"/>
      <point x="339" y="633"/>
      <point x="266" y="633" type="curve" smooth="yes"/>
      <point x="208" y="633"/>
      <point x="142" y="588"/>
      <point x="142" y="522" type="curve" smooth="yes"/>
      <point x="142" y="440"/>
      <point x="184" y="386"/>
      <point x="269" y="386" type="curve" smooth="yes"/>
      <point x="347" y="386"/>
      <point x="392" y="426"/>
    </contour>
  </outline>
</glyph>
<glyph name="kn_i" format="2">
  <advance width="973"/>
  <unicode hex="0C87"/>
  <outline>
    <contour>
      <point x="867" y="-174" type="curve" smooth="yes"/>
      <point x="867" y="-134"/>
      <point x="851" y="-19"/>
      <point x="833" y="44" type="curve" smooth="yes"/>
      <point x="825" y="73"/>
      <point x="787" y="129"/>
      <point x="783" y="120" type="curve" smooth="yes"/>
      <point x="768" y="86"/>
      <point x="695" y="14"/>
      <point x="608" y="0" type="curve" smooth="yes"/>
      <point x="485" y="-20"/>
      <point x="424" y="51"/>
      <point x="424" y="118" type="curve" smooth="yes"/>
      <point x="424" y="208"/>
      <point x="538" y="276"/>
      <point x="622" y="271" type="curve" smooth="yes"/>
      <point x="740" y="264"/>
      <point x="768" y="202"/>
      <point x="771" y="205" type="curve" smooth="yes"/>
      <point x="802" y="236"/>
      <point x="821" y="305"/>
      <point x="821" y="354" type="curve" smooth="yes"/>
      <point x="821" y="453"/>
      <point x="765" y="520"/>
      <point x="636" y="520" type="curve" smooth="yes"/>
      <point x="570" y="520"/>
      <point x="484" y="464"/>
      <point x="463" y="401" type="curve" smooth="yes"/>
      <point x="448" y="358"/>
      <point x="458" y="344"/>
      <point x="458" y="313" type="curve" smooth="yes"/>
      <point x="458" y="270"/>
      <point x="405" y="270"/>
      <point x="405" y="313" type="curve" smooth="yes"/>
      <point x="405" y="344"/>
      <point x="425" y="357"/>
      <point x="405" y="401" type="curve" smooth="yes"/>
      <point x="369" y="480"/>
      <point x="316" y="524"/>
      <point x="221" y="507" type="curve" smooth="yes"/>
      <point x="163" y="497"/>
      <point x="92" y="420"/>
      <point x="129" y="322" type="curve" smooth="yes"/>
      <point x="144" y="282"/>
      <point x="198" y="221"/>
      <point x="205" y="192" type="curve" smooth="yes"/>
      <point x="212" y="163"/>
      <point x="193" y="133"/>
      <point x="159" y="152" type="curve" smooth="yes"/>
      <point x="63" y="206"/>
      <point x="30" y="325"/>
      <point x="43" y="429" type="curve" smooth="yes"/>
      <point x="60" y="545"/>
      <point x="152" y="620"/>
      <point x="260" y="620" type="curve" smooth="yes"/>
      <point x="328" y="620"/>
      <point x="389" y="567"/>
      <point x="415" y="510" type="curve" smooth="yes"/>
      <point x="440" y="456"/>
      <point x="429" y="456"/>
      <point x="464" y="510" type="curve" smooth="yes"/>
      <point x="496" y="560"/>
      <point x="561" y="620"/>
      <point x="636" y="620" type="curve" smooth="yes"/>
      <point x="780" y="620"/>
      <point x="875" y="494"/>
      <point x="875" y="354" type="curve" smooth="yes"/>
      <point x="875" y="261"/>
      <point x="830" y="191"/>
      <point x="806" y="161" type="curve" smooth="yes"/>
      <point x="798" y="151"/>
      <point x="854" y="94"/>
      <point x="881" y="40" type="curve" smooth="yes"/>
      <point x="925" y="-48"/>
      <point x="937" y="-141"/>
      <point x="931" y="-164" type="curve" smooth="yes"/>
      <point x="924" y="-195"/>
      <point x="867" y="-213"/>
    </contour>
    <contour>
      <point x="608" y="100" type="curve" smooth="yes"/>
      <point x="686" y="112"/>
      <point x="739" y="163"/>
      <point x="735" y="170" type="curve" smooth="yes"/>
      <point x="725" y="187"/>
      <point x="675" y="213"/>
      <point x="622" y="214" type="curve" smooth="yes"/>
      <point x="540" y="216"/>
      <point x="463" y="163"/>
      <point x="518" y="114" type="curve" smooth="yes"/>
      <point x="545" y="90"/>
      <point x="579" y="96"/>
    </contour>
  </outline>
</glyph>
<glyph name="kn_uu" format="2">
  <advance width="1523"/>
  <unicode hex="0C8A"/>
  <outline>
    <contour>
      <point x="787" y="240" type="curve" smooth="yes"/>
      <point x="778" y="312"/>
      <point x="764" y="514"/>
      <point x="656" y="513" type="curve" smooth="yes"/>
      <point x="563" y="512"/>
      <point x="561" y="336"/>
      <point x="562" y="268" type="curve" smooth="yes"/>
      <point x="564" y="121"/>
      <point x="465" y="0"/>
      <point x="275" y="0" type="curve" smooth="yes"/>
      <point x="77" y="0"/>
      <point x="26" y="226"/>
      <point x="44" y="410" type="curve" smooth="yes"/>
      <point x="51" y="486"/>
      <point x="112" y="595"/>
      <point x="188" y="620" type="curve" smooth="yes"/>
      <point x="258" y="643"/>
      <point x="347" y="597"/>
      <point x="368" y="525" type="curve" smooth="yes"/>
      <point x="390" y="447"/>
      <point x="346" y="353"/>
      <point x="237" y="364" type="curve" smooth="yes"/>
      <point x="166" y="371"/>
      <point x="134" y="437"/>
      <point x="113" y="468" type="curve" smooth="yes"/>
      <point x="106" y="479"/>
      <point x="81" y="415"/>
      <point x="81" y="306" type="curve" smooth="yes"/>
      <point x="81" y="213"/>
      <point x="149" y="122"/>
      <point x="239" y="100" type="curve" smooth="yes"/>
      <point x="346" y="73"/>
      <point x="492" y="141"/>
      <point x="502" y="262" type="curve" smooth="yes"/>
      <point x="512" y="372"/>
      <point x="473" y="558"/>
      <point x="590" y="613" type="curve" smooth="yes"/>
      <point x="628" y="631"/>
      <point x="675" y="629"/>
      <point x="714" y="613" type="curve" smooth="yes"/>
      <point x="809" y="575"/>
      <point x="833" y="453"/>
      <point x="831" y="338" type="curve" smooth="yes"/>
      <point x="827" y="111"/>
      <point x="941" y="92"/>
      <point x="968" y="92" type="curve" smooth="yes"/>
      <point x="1104" y="93"/>
      <point x="1097" y="207"/>
      <point x="1064" y="336" type="curve" smooth="yes"/>
      <point x="1035" y="448"/>
      <point x="1044" y="639"/>
      <point x="1196" y="650" type="curve" smooth="yes"/>
      <point x="1288" y="656"/>
      <point x="1389" y="588"/>
      <point x="1442" y="484" type="curve" smooth="yes"/>
      <point x="1507" y="354"/>
      <point x="1497" y="161"/>
      <point x="1385" y="57" type="curve" smooth="yes"/>
      <point x="1372" y="45"/>
      <point x="1351" y="54"/>
      <point x="1346" y="65" type="curve" smooth="yes"/>
      <point x="1325" y="111"/>
      <point x="1457" y="167"/>
      <point x="1420" y="376" type="curve" smooth="yes"/>
      <point x="1398" y="503"/>
      <point x="1284" y="624"/>
      <point x="1177" y="539" type="curve" smooth="yes"/>
      <point x="1110" y="486"/>
      <point x="1135" y="289"/>
      <point x="1155" y="207" type="curve" smooth="yes"/>
      <point x="1189" y="62"/>
      <point x="1070" y="-8"/>
      <point x="968" y="-8" type="curve" smooth="yes"/>
      <point x="852" y="-8"/>
      <point x="800" y="144"/>
    </contour>
    <contour>
      <point x="291" y="423" type="curve" smooth="yes"/>
      <point x="321" y="435"/>
      <point x="326" y="461"/>
      <point x="303" y="491" type="curve" smooth="yes"/>
      <point x="260" y="550"/>
      <point x="158" y="531"/>
      <point x="158" y="488" type="curve" smooth="yes"/>
      <point x="158" y="444"/>
      <point x="247" y="405"/>
    </contour>
  </outline>
</glyph>
<glyph name="kn_r_ext" format="2">
  <advance width="1177"/>
  <unicode hex="0C8B"/>
  <outline>
    <contour>
      <point x="120" y="237" type="curve"/>
      <point x="164" y="300"/>
      <point x="280" y="300"/>
      <point x="300" y="213" type="curve" smooth="yes"/>
      <point x="317" y="142"/>
      <point x="285" y="92"/>
      <point x="241" y="80" type="curve" smooth="yes"/>
      <point x="229" y="77"/>
      <point x="316" y="38"/>
      <point x="399" y="103" type="curve" smooth="yes"/>
      <point x="516" y="194"/>
      <point x="480" y="366"/>
      <point x="400" y="464" type="curve" smooth="yes"/>
      <point x="365" y="507"/>
      <point x="288" y="537"/>
      <point x="289" y="524" type="curve" smooth="yes"/>
      <point x="293" y="492"/>
      <point x="312" y="377"/>
      <point x="217" y="356" type="curve" smooth="yes"/>
      <point x="95" y="330"/>
      <point x="51" y="408"/>
      <point x="42" y="474" type="curve" smooth="yes"/>
      <point x="27" y="576"/>
      <point x="120" y="620"/>
      <point x="203" y="620" type="curve" smooth="yes"/>
      <point x="298" y="620"/>
      <point x="352" y="591"/>
      <point x="415" y="518" type="curve" smooth="yes"/>
      <point x="524" y="390"/>
      <point x="544" y="302"/>
      <point x="549" y="294" type="curve" smooth="yes"/>
      <point x="594" y="229"/>
      <point x="598" y="125"/>
      <point x="694" y="116" type="curve" smooth="yes"/>
      <point x="741" y="112"/>
      <point x="787" y="160"/>
      <point x="796" y="205" type="curve" smooth="yes"/>
      <point x="815" y="304"/>
      <point x="771" y="413"/>
      <point x="699" y="482" type="curve" smooth="yes"/>
      <point x="653" y="527"/>
      <point x="549" y="563"/>
      <point x="439" y="563" type="curve" smooth="yes"/>
      <point x="426" y="563"/>
      <point x="371" y="665"/>
      <point x="414" y="665" type="curve" smooth="yes"/>
      <point x="454" y="665"/>
      <point x="566" y="665"/>
      <point x="629" y="665" type="curve" smooth="yes"/>
      <point x="656" y="665"/>
      <point x="672" y="668"/>
      <point x="676" y="670" type="curve" smooth="yes"/>
      <point x="775" y="715"/>
      <point x="734" y="792"/>
      <point x="700" y="832" type="curve" smooth="yes"/>
      <point x="690" y="844"/>
      <point x="710" y="861"/>
      <point x="724" y="852" type="curve" smooth="yes"/>
      <point x="783" y="813"/>
      <point x="821" y="763"/>
      <point x="821" y="706" type="curve" smooth="yes"/>
      <point x="821" y="607"/>
      <point x="743" y="567"/>
      <point x="701" y="567" type="curve" smooth="yes"/>
      <point x="662" y="567" type="line"/>
      <point x="664" y="575" type="line"/>
      <point x="740" y="513"/>
      <point x="854" y="394"/>
      <point x="851" y="231" type="curve" smooth="yes"/>
      <point x="851" y="214"/>
      <point x="851" y="217"/>
      <point x="853" y="212" type="curve" smooth="yes"/>
      <point x="871" y="173"/>
      <point x="910" y="109"/>
      <point x="944" y="95" type="curve" smooth="yes"/>
      <point x="1090" y="37"/>
      <point x="1106" y="418"/>
      <point x="916" y="522" type="curve" smooth="yes"/>
      <point x="875" y="544"/>
      <point x="866" y="553"/>
      <point x="866" y="575" type="curve" smooth="yes"/>
      <point x="866" y="581"/>
      <point x="870" y="589"/>
      <point x="875" y="593" type="curve" smooth="yes"/>
      <point x="886" y="602"/>
      <point x="901" y="599"/>
      <point x="921" y="585" type="curve" smooth="yes"/>
      <point x="1058" y="493"/>
      <point x="1114" y="428"/>
      <point x="1133" y="277" type="curve" smooth="yes"/>
      <point x="1149" y="153"/>
      <point x="1106" y="61"/>
      <point x="1070" y="30" type="curve" smooth="yes"/>
      <point x="1032" y="-3"/>
      <point x="982" y="-3"/>
      <point x="937" y="21" type="curve" smooth="yes"/>
      <point x="864" y="59"/>
      <point x="852" y="126"/>
      <point x="841" y="155" type="curve" smooth="yes"/>
      <point x="836" y="168"/>
      <point x="839" y="168"/>
      <point x="828" y="139" type="curve" smooth="yes"/>
      <point x="803" y="68"/>
      <point x="775" y="16"/>
      <point x="694" y="16" type="curve" smooth="yes"/>
      <point x="638" y="16"/>
      <point x="591" y="72"/>
      <point x="570" y="122" type="curve" smooth="yes"/>
      <point x="546" y="177"/>
      <point x="551" y="178"/>
      <point x="529" y="146" type="curve" smooth="yes"/>
      <point x="453" y="39"/>
      <point x="355" y="0"/>
      <point x="289" y="0" type="curve" smooth="yes"/>
      <point x="212" y="0"/>
      <point x="149" y="35"/>
      <point x="113" y="102" type="curve" smooth="yes"/>
      <point x="89" y="145"/>
      <point x="87" y="199"/>
    </contour>
    <contour>
      <point x="210" y="436" type="curve" smooth="yes"/>
      <point x="241" y="467"/>
      <point x="218" y="521"/>
      <point x="173" y="527" type="curve" smooth="yes"/>
      <point x="146" y="530"/>
      <point x="120" y="514"/>
      <point x="115" y="488" type="curve" smooth="yes"/>
      <point x="108" y="457"/>
      <point x="130" y="441"/>
      <point x="147" y="434" type="curve" smooth="yes"/>
      <point x="168" y="426"/>
      <point x="196" y="421"/>
    </contour>
    <contour>
      <point x="152" y="178" type="curve" smooth="yes"/>
      <point x="152" y="150"/>
      <point x="178" y="117"/>
      <point x="217" y="120" type="curve" smooth="yes"/>
      <point x="242" y="122"/>
      <point x="255" y="144"/>
      <point x="257" y="160" type="curve" smooth="yes"/>
      <point x="261" y="201"/>
      <point x="233" y="235"/>
      <point x="188" y="232" type="curve" smooth="yes"/>
      <point x="165" y="230"/>
      <point x="152" y="208"/>
    </contour>
  </outline>
</glyph>
<glyph name="kn_ee" format="2">
  <advance width="741"/>
  <unicode hex="0C8F"/>
  <outline>
    <contour>
      <point x="109" y="73" type="curve" smooth="yes"/>
      <point x="67" y="172"/>
      <point x="127" y="337"/>
      <point x="247" y="315" type="curve" smooth="yes"/>
      <point x="361" y="294"/>
      <point x="344" y="190"/>
      <point x="389" y="129" type="curve" smooth="yes"/>
      <point x="424" y="78"/>
      <point x="494" y="77"/>
      <point x="553" y="111" type="curve" smooth="yes"/>
      <point x="749" y="224"/>
      <point x="570" y="581"/>
      <point x="375" y="657" type="curve" smooth="yes"/>
      <point x="361" y="662"/>
      <point x="398" y="698"/>
      <point x="411" y="691" type="curve" smooth="yes"/>
      <point x="485" y="655"/>
      <point x="651" y="487"/>
      <point x="682" y="333" type="curve" smooth="yes"/>
      <point x="697" y="259"/>
      <point x="704" y="73"/>
      <point x="588" y="18" type="curve" smooth="yes"/>
      <point x="557" y="3"/>
      <point x="529" y="-1"/>
      <point x="484" y="7" type="curve" smooth="yes"/>
      <point x="428" y="17"/>
      <point x="388" y="57"/>
      <point x="348" y="94" type="curve"/>
      <point x="359" y="94" type="line"/>
      <point x="333" y="64"/>
      <point x="312" y="35"/>
      <point x="275" y="17" type="curve" smooth="yes"/>
      <point x="205" y="-18"/>
      <point x="139" y="2"/>
    </contour>
    <contour>
      <point x="268" y="89" type="curve" smooth="yes"/>
      <point x="317" y="102"/>
      <point x="322" y="160"/>
      <point x="290" y="192" type="curve" smooth="yes"/>
      <point x="268" y="214"/>
      <point x="242" y="236"/>
      <point x="203" y="226" type="curve" smooth="yes"/>
      <point x="169" y="217"/>
      <point x="150" y="167"/>
      <point x="173" y="135" type="curve" smooth="yes"/>
      <point x="192" y="108"/>
      <point x="233" y="79"/>
    </contour>
    <contour>
      <point x="425" y="640" type="curve"/>
      <point x="425" y="640"/>
      <point x="274" y="470"/>
      <point x="140" y="523" type="curve" smooth="yes"/>
      <point x="8" y="576"/>
      <point x="24" y="796"/>
      <point x="91" y="902" type="curve" smooth="yes"/>
      <point x="244" y="1144"/>
      <point x="512" y="1050"/>
      <point x="658" y="864" type="curve" smooth="yes"/>
      <point x="680" y="836"/>
      <point x="696" y="809"/>
      <point x="700" y="791" type="curve" smooth="yes"/>
      <point x="706" y="762"/>
      <point x="675" y="753"/>
      <point x="662" y="771" type="curve" smooth="yes"/>
      <point x="647" y="793"/>
      <point x="643" y="820"/>
      <point x="630" y="840" type="curve" smooth="yes"/>
      <point x="494" y="1049"/>
      <point x="203" y="1053"/>
      <point x="130" y="832" type="curve" smooth="yes"/>
      <point x="103" y="750"/>
      <point x="117" y="642"/>
      <point x="162" y="604" type="curve" smooth="yes"/>
      <point x="219" y="556"/>
      <point x="355" y="597"/>
      <point x="379" y="671" type="curve"/>
      <point x="399" y="666"/>
      <point x="404" y="673"/>
    </contour>
  </outline>
</glyph>
<glyph name="kn_ai" format="2">
  <advance width="804"/>
  <unicode hex="0C90"/>
  <outline>
    <contour>
      <point x="213" y="0" type="curve" smooth="yes"/>
      <point x="133" y="0"/>
      <point x="57" y="65"/>
      <point x="76" y="159" type="curve" smooth="yes"/>
      <point x="86" y="211"/>
      <point x="129" y="268"/>
      <point x="190" y="286" type="curve" smooth="yes"/>
      <point x="272" y="311"/>
      <point x="328" y="260"/>
      <point x="373" y="201" type="curve" smooth="yes"/>
      <point x="431" y="124"/>
      <point x="473" y="100"/>
      <point x="530" y="100" type="curve" smooth="yes"/>
      <point x="708" y="100"/>
      <point x="731" y="350"/>
      <point x="637" y="433" type="curve" smooth="yes"/>
      <point x="600" y="466"/>
      <point x="513" y="496"/>
      <point x="437" y="411" type="curve" smooth="yes"/>
      <point x="420" y="393"/>
      <point x="422" y="371"/>
      <point x="407" y="371" type="curve" smooth="yes"/>
      <point x="395" y="371"/>
      <point x="390" y="395"/>
      <point x="385" y="424" type="curve" smooth="yes"/>
      <point x="372" y="508"/>
      <point x="285" y="540"/>
      <point x="218" y="531" type="curve" smooth="yes"/>
      <point x="142" y="521"/>
      <point x="66" y="453"/>
      <point x="79" y="374" type="curve" smooth="yes"/>
      <point x="80" y="365"/>
      <point x="65" y="358"/>
      <point x="61" y="364" type="curve" smooth="yes"/>
      <point x="-1" y="463"/>
      <point x="89" y="626"/>
      <point x="221" y="626" type="curve" smooth="yes"/>
      <point x="310" y="626"/>
      <point x="380" y="558"/>
      <point x="423" y="477" type="curve"/>
      <point x="470" y="524"/>
      <point x="527" y="573"/>
      <point x="600" y="557" type="curve" smooth="yes"/>
      <point x="659" y="546"/>
      <point x="717" y="496"/>
      <point x="745" y="425" type="curve" smooth="yes"/>
      <point x="809" y="260"/>
      <point x="702" y="0"/>
      <point x="533" y="0" type="curve" smooth="yes"/>
      <point x="476" y="0"/>
      <point x="424" y="39"/>
      <point x="393" y="101" type="curve" smooth="yes"/>
      <point x="359" y="168"/>
      <point x="322" y="212"/>
      <point x="317" y="212" type="curve" smooth="yes"/>
      <point x="314" y="212"/>
      <point x="330" y="182"/>
      <point x="337" y="138" type="curve" smooth="yes"/>
      <point x="349" y="59"/>
      <point x="294" y="0"/>
    </contour>
    <contour>
      <point x="242" y="78" type="curve" smooth="yes"/>
      <point x="254" y="81"/>
      <point x="293" y="87"/>
      <point x="297" y="138" type="curve" smooth="yes"/>
      <point x="300" y="176"/>
      <point x="276" y="205"/>
      <point x="229" y="214" type="curve" smooth="yes"/>
      <point x="194" y="221"/>
      <point x="157" y="201"/>
      <point x="150" y="168" type="curve" smooth="yes"/>
      <point x="139" y="117"/>
      <point x="181" y="65"/>
    </contour>
  </outline>
</glyph>
<glyph name="kn_ma_u" format="2">
  <advance width="506"/>
  <unicode hex="0CC1"/>
  <outline>
    <contour>
      <point x="240.46" y="498.566" type="curve" smooth="yes"/>
      <point x="206.769" y="504.149"/>
      <point x="242.029" y="559.899"/>
      <point x="295.903" y="543.571" type="curve" smooth="yes"/>
      <point x="369.333" y="522.808"/>
      <point x="433.895" y="462.931"/>
      <point x="477.046" y="381.177" type="curve" smooth="yes"/>
      <point x="538.708" y="254.099"/>
      <point x="506.2" y="29.111"/>
      <point x="308.353" y="-0.0541143" type="curve" smooth="yes"/>
      <point x="167.745" y="-21.6352"/>
      <point x="46.9102" y="53.058"/>
      <point x="0.473102" y="129.388" type="curve" smooth="yes"/>
      <point x="-23.7233" y="167.775"/>
      <point x="-11.7728" y="265.823"/>
      <point x="5.74919" y="243.344" type="curve" smooth="yes"/>
      <point x="71.9255" y="154.312"/>
      <point x="122.797" y="97.5394"/>
      <point x="217.821" y="90.3872" type="curve" smooth="yes"/>
      <point x="403.513" y="75.0139"/>
      <point x="528.566" y="272.849"/>
      <point x="358.088" y="436.938" type="curve" smooth="yes"/>
      <point x="327.763" y="466.433"/>
      <point x="270.239" y="493.87"/>
    </contour>
  </outline>
</glyph>
<glyph name="kn_virama" format="2">
  <advance width="600"/>
  <unicode hex="0CCD"/>
  <outline>
    <contour>
      <point x="10" y="588.013" type="curve" smooth="yes"/>
      <point x="10" y="658.109"/>
      <point x="81.6896" y="666.075"/>
      <point x="135.855" y="666.075" type="curve" smooth="yes"/>
      <point x="215.51" y="666.075"/>
      <point x="449.696" y="664.482"/>
      <point x="565.993" y="664.482" type="curve" smooth="yes"/>
      <point x="597.855" y="664.482"/>
      <point x="597.855" y="610.316"/>
      <point x="565.993" y="610.316" type="curve" smooth="yes"/>
      <point x="449.696" y="610.316"/>
      <point x="225.069" y="610.316"/>
      <point x="103.993" y="610.316" type="curve" smooth="yes"/>
      <point x="46.6413" y="610.316"/>
      <point x="51.4206" y="549.779"/>
      <point x="97.6206" y="537.034" type="curve" smooth="yes"/>
      <point x="142.227" y="524.289"/>
      <point x="213.917" y="524.289"/>
      <point x="256.931" y="524.289" type="curve" smooth="yes"/>
      <point x="282.42" y="524.289"/>
      <point x="282.42" y="474.903"/>
      <point x="256.931" y="474.903" type="curve" smooth="yes"/>
      <point x="213.917" y="474.903"/>
      <point x="51.4206" y="487.648"/>
      <point x="48.2344" y="433.482" type="curve" smooth="yes"/>
      <point x="45.0482" y="379.317"/>
      <point x="172.496" y="396.841"/>
      <point x="234.627" y="396.841" type="curve" smooth="yes"/>
      <point x="284.013" y="396.841"/>
      <point x="284.013" y="352.234"/>
      <point x="234.627" y="352.234" type="curve" smooth="yes"/>
      <point x="174.089" y="352.234"/>
      <point x="10" y="336.303"/>
      <point x="10" y="420.737" type="curve" smooth="yes"/>
      <point x="10" y="474.903"/>
      <point x="33.8965" y="495.613"/>
      <point x="83.2827" y="506.765" type="curve" smooth="yes"/>
      <point x="111.959" y="513.137"/>
      <point x="10" y="508.358"/>
    </contour>
  </outline>
</glyph>
<glyph name="kn_dherge_e" format="2">
  <advance width="308"/>
  <unicode hex="0CD5"/>
  <outline>
    <contour>
      <point x="6.92237" y="458.661" type="curve" smooth="yes"/>
      <point x="20.1445" y="539.646"/>
      <point x="74.6856" y="666.909"/>
      <point x="172.199" y="666.909" type="curve" smooth="yes"/>
      <point x="249.878" y="666.909"/>
      <point x="307.725" y="590.882"/>
      <point x="307.725" y="516.507" type="curve" smooth="yes"/>
      <point x="307.725" y="422.3"/>
      <point x="258.142" y="352.884"/>
      <point x="154.018" y="380.981" type="curve" smooth="yes"/>
      <point x="97.8243" y="395.856"/>
      <point x="71.3801" y="466.925"/>
      <point x="64.7691" y="466.925" type="curve" smooth="yes"/>
      <point x="51.547" y="466.925"/>
      <point x="53.1997" y="420.647"/>
      <point x="53.1997" y="412.383" type="curve" smooth="yes"/>
      <point x="53.1997" y="366.106"/>
      <point x="66.4218" y="311.565"/>
      <point x="91.2132" y="263.635" type="curve" smooth="yes"/>
      <point x="132.532" y="185.955"/>
      <point x="215.17" y="136.372"/>
      <point x="271.364" y="66.9561" type="curve" smooth="yes"/>
      <point x="311.031" y="12.4149"/>
      <point x="284.586" y="-18.9876"/>
      <point x="230.045" y="12.4149" type="curve" smooth="yes"/>
      <point x="92.866" y="90.0947"/>
      <point x="-7.9525" y="306.607"/>
    </contour>
    <contour>
      <point x="104.435" y="513.202" type="curve" smooth="yes"/>
      <point x="104.435" y="471.883"/>
      <point x="130.88" y="445.439"/>
      <point x="172.199" y="445.439" type="curve" smooth="yes"/>
      <point x="215.17" y="445.439"/>
      <point x="236.656" y="471.883"/>
      <point x="236.656" y="513.202" type="curve" smooth="yes"/>
      <point x="236.656" y="557.827"/>
      <point x="213.518" y="580.965"/>
      <point x="172.199" y="580.965" type="curve" smooth="yes"/>
      <point x="125.921" y="580.965"/>
      <point x="104.435" y="549.563"/>
    </contour>
  </outline>
</glyph>
<glyph name="kn_0" format="2">
  <advance width="735"/>
  <unicode hex="0CE6"/>
  <outline>
    <contour>
      <point x="91.6098" y="146.783" type="curve" smooth="yes"/>
      <point x="-52.4099" y="397.252"/>
      <point x="125.006" y="683.205"/>
      <point x="415.132" y="683.205" type="curve" smooth="yes"/>
      <point x="611.333" y="683.205"/>
      <point x="694.823" y="480.742"/>
      <point x="694.823" y="311.676" type="curve" smooth="yes"/>
      <point x="694.823" y="125.911"/>
      <point x="571.676" y="11.1127"/>
      <point x="385.911" y="0.67644" type="curve" smooth="yes"/>
      <point x="262.764" y="-7.67253"/>
      <point x="141.704" y="59.1192"/>
    </contour>
    <contour>
      <point x="104.133" y="315.85" type="curve" smooth="yes"/>
      <point x="83.2608" y="159.307"/>
      <point x="214.757" y="75.8172"/>
      <point x="352.515" y="88.3406" type="curve" smooth="yes"/>
      <point x="504.884" y="100.864"/>
      <point x="600.897" y="196.877"/>
      <point x="600.897" y="340.897" type="curve" smooth="yes"/>
      <point x="600.897" y="457.783"/>
      <point x="546.629" y="545.447"/>
      <point x="415.132" y="557.97" type="curve" smooth="yes"/>
      <point x="250.24" y="574.668"/>
      <point x="122.918" y="461.957"/>
    </contour>
  </outline>
</glyph>
<glyph name="kn_7" format="2">
  <advance width="456"/>
  <unicode hex="0CED"/>
  <outline>
    <contour>
      <point x="114.4" y="215.308" type="curve" smooth="yes"/>
      <point x="-1.68292" y="69.074"/>
      <point x="287.77" y="-53.0391"/>
      <point x="363.149" y="165.558" type="curve" smooth="yes"/>
      <point x="375.209" y="201.74"/>
      <point x="411.391" y="185.157"/>
      <point x="397.823" y="126.362" type="curve" smooth="yes"/>
      <point x="378.225" y="38.9226"/>
      <point x="322.445" y="-30.4256"/>
      <point x="228.975" y="-30.4256" type="curve" smooth="yes"/>
      <point x="96.3091" y="-30.4256"/>
      <point x="-19.7738" y="82.6421"/>
      <point x="75.2031" y="230.384" type="curve" smooth="yes"/>
      <point x="150.582" y="347.974"/>
      <point x="406.868" y="352.497"/>
      <point x="372.194" y="492.701" type="curve" smooth="yes"/>
      <point x="334.505" y="643.458"/>
      <point x="162.642" y="614.814"/>
      <point x="124.953" y="450.489" type="curve" smooth="yes"/>
      <point x="112.892" y="399.232"/>
      <point x="54.0972" y="458.027"/>
      <point x="67.6653" y="509.284" type="curve" smooth="yes"/>
      <point x="85.7561" y="572.602"/>
      <point x="138.521" y="625.367"/>
      <point x="198.824" y="643.458" type="curve" smooth="yes"/>
      <point x="319.429" y="678.132"/>
      <point x="415.914" y="604.261"/>
      <point x="415.914" y="474.61" type="curve" smooth="yes"/>
      <point x="415.914" y="323.853"/>
      <point x="188.271" y="308.778"/>
    </contour>
  </outline>
</glyph>
<glyph name="kn_b_i" format="2">
  <advance width="811"/>
  <outline>
    <contour>
      <point x="421" y="97" type="curve" smooth="yes"/>
      <point x="403" y="133"/>
      <point x="392" y="118"/>
      <point x="372" y="92" type="curve" smooth="yes"/>
      <point x="337" y="46"/>
      <point x="258" y="3"/>
      <point x="199" y="3" type="curve" smooth="yes"/>
      <point x="55" y="3"/>
      <point x="-8" y="179"/>
      <point x="82" y="259" type="curve" smooth="yes"/>
      <point x="213" y="374"/>
      <point x="287" y="344"/>
      <point x="331" y="445" type="curve" smooth="yes"/>
      <point x="354" y="499"/>
      <point x="305" y="551"/>
      <point x="250" y="551" type="curve" smooth="yes"/>
      <point x="199" y="551"/>
      <point x="136" y="485"/>
      <point x="175" y="438" type="curve" smooth="yes"/>
      <point x="202" y="406"/>
      <point x="163" y="394"/>
      <point x="113" y="419" type="curve" smooth="yes"/>
      <point x="75" y="438"/>
      <point x="67" y="449"/>
      <point x="70" y="481" type="curve" smooth="yes"/>
      <point x="77" y="568"/>
      <point x="151" y="617"/>
      <point x="231" y="618" type="curve" smooth="yes"/>
      <point x="303" y="618"/>
      <point x="387" y="576"/>
      <point x="416" y="506" type="curve" smooth="yes"/>
      <point x="501" y="315"/>
      <point x="75" y="312"/>
      <point x="140" y="151" type="curve"/>
      <point x="194" y="40"/>
      <point x="363" y="128"/>
      <point x="343" y="172" type="curve" smooth="yes"/>
      <point x="337" y="185"/>
      <point x="386" y="231"/>
      <point x="406" y="251" type="curve" smooth="yes"/>
      <point x="414" y="259"/>
      <point x="439" y="206"/>
      <point x="456" y="176" type="curve" smooth="yes"/>
      <point x="474" y="144"/>
      <point x="474" y="92"/>
      <point x="569" y="105" type="curve" smooth="yes"/>
      <point x="753" y="131"/>
      <point x="707" y="620"/>
      <point x="628" y="715" type="curve" smooth="yes"/>
      <point x="588" y="764"/>
      <point x="537" y="812"/>
      <point x="607" y="794" type="curve" smooth="yes"/>
      <point x="768" y="753"/>
      <point x="856" y="151"/>
      <point x="652" y="20" type="curve" smooth="yes"/>
      <point x="569" y="-33"/>
      <point x="455" y="32"/>
    </contour>
    <contour>
      <point x="492.107" y="773.265" type="curve" smooth="yes"/>
      <point x="561.938" y="819.231"/>
      <point x="625.582" y="805.087"/>
      <point x="668.012" y="745.863" type="curve" smooth="yes"/>
      <point x="704.254" y="694.594"/>
      <point x="707.789" y="629.182"/>
      <point x="665.36" y="579.681" type="curve" smooth="yes"/>
      <point x="618.511" y="524.876"/>
      <point x="523.929" y="509.849"/>
      <point x="472.66" y="569.958" type="curve" smooth="yes"/>
      <point x="411.667" y="641.557"/>
      <point x="424.927" y="729.068"/>
    </contour>
    <contour>
      <point x="523.929" y="614.155" type="curve" smooth="yes"/>
      <point x="548.679" y="589.405"/>
      <point x="592.876" y="593.824"/>
      <point x="615.859" y="617.691" type="curve" smooth="yes"/>
      <point x="638.842" y="641.557"/>
      <point x="647.681" y="684.871"/>
      <point x="622.047" y="714.925" type="curve" smooth="yes"/>
      <point x="596.412" y="744.979"/>
      <point x="550.447" y="743.211"/>
      <point x="525.697" y="719.345" type="curve" smooth="yes"/>
      <point x="499.178" y="693.71"/>
      <point x="487.687" y="650.397"/>
    </contour>
  </outline>
</glyph>
<glyph name="kn_b_ottu2" format="2">
  <advance width="442"/>
  <outline>
    <contour>
      <point x="312.485" y="351.873" type="curve" smooth="yes"/>
      <point x="424.248" y="216.58"/>
      <point x="471.306" y="105.798"/>
      <point x="471.306" y="-66.749" type="curve" smooth="yes"/>
      <point x="467.385" y="-148.12"/>
      <point x="442.875" y="-235.374"/>
      <point x="340.916" y="-227.531" type="curve" smooth="yes"/>
      <point x="292.878" y="-223.61"/>
      <point x="261.505" y="-171.65"/>
      <point x="248.76" y="-148.12" type="curve" smooth="yes"/>
      <point x="243.859" y="-138.317"/>
      <point x="194.84" y="-235.374"/>
      <point x="135.037" y="-235.374" type="curve" smooth="yes"/>
      <point x="54.6455" y="-235.374"/>
      <point x="-0.255756" y="-129.493"/>
      <point x="78.1745" y="-64.7883" type="curve"/>
      <point x="56.6062" y="-64.7883"/>
      <point x="10.5284" y="-65.7686"/>
      <point x="10.5284" y="-3.02439" type="curve" smooth="yes"/>
      <point x="10.5284" y="85.2097"/>
      <point x="99.7429" y="99.9154"/>
      <point x="142.88" y="87.1705" type="curve" smooth="yes"/>
      <point x="191.898" y="72.4648"/>
      <point x="217.388" y="33.2496"/>
      <point x="216.408" y="-13.8086" type="curve" smooth="yes"/>
      <point x="214.447" y="-90.2781"/>
      <point x="88.9587" y="-53.0237"/>
      <point x="78.1745" y="-126.552" type="curve" smooth="yes"/>
      <point x="78.1745" y="-205.963"/>
      <point x="149.742" y="-207.924"/>
      <point x="193.859" y="-163.807" type="curve" smooth="yes"/>
      <point x="205.624" y="-153.022"/>
      <point x="220.329" y="-133.415"/>
      <point x="214.447" y="-115.768" type="curve" smooth="yes"/>
      <point x="211.506" y="-107.925"/>
      <point x="248.76" y="-42.2395"/>
      <point x="253.662" y="-65.7686" type="curve" smooth="yes"/>
      <point x="258.564" y="-90.2781"/>
      <point x="258.564" y="-100.082"/>
      <point x="258.564" y="-116.748" type="curve" smooth="yes"/>
      <point x="258.564" y="-145.179"/>
      <point x="314.446" y="-166.748"/>
      <point x="337.975" y="-166.748" type="curve" smooth="yes"/>
      <point x="415.425" y="-166.748"/>
      <point x="448.758" y="-132.434"/>
      <point x="448.758" y="-57.9256" type="curve" smooth="yes"/>
      <point x="448.758" y="99.9154"/>
      <point x="417.386" y="169.522"/>
      <point x="285.034" y="301.873" type="curve" smooth="yes"/>
      <point x="269.348" y="317.559"/>
      <point x="286.015" y="378.343"/>
    </contour>
    <contour>
      <point x="58.567" y="1.87751" type="curve" smooth="yes"/>
      <point x="58.567" y="-11.8478"/>
      <point x="65.4296" y="-34.3965"/>
      <point x="85.0372" y="-41.2592" type="curve" smooth="yes"/>
      <point x="124.252" y="-54.9845"/>
      <point x="185.036" y="-46.1611"/>
      <point x="187.977" y="-3.02439" type="curve" smooth="yes"/>
      <point x="189.938" y="27.3674"/>
      <point x="150.723" y="45.0142"/>
      <point x="133.076" y="45.9946" type="curve" smooth="yes"/>
      <point x="99.7429" y="47.9553"/>
      <point x="58.567" y="39.1319"/>
    </contour>
  </outline>
</glyph>
<glyph name="kn_bh_ottu" format="2">
  <advance width="205"/>
  <outline>
    <contour>
      <point x="17.0774" y="335.187" type="curve" smooth="yes"/>
      <point x="17.0774" y="365.379"/>
      <point x="32.8296" y="348.314"/>
      <point x="45.9565" y="337.812" type="curve" smooth="yes"/>
      <point x="189.039" y="217.045"/>
      <point x="237.609" y="47.7087"/>
      <point x="204.791" y="-112.439" type="curve" smooth="yes"/>
      <point x="192.977" y="-171.51"/>
      <point x="158.847" y="-225.33"/>
      <point x="91.9005" y="-225.33" type="curve" smooth="yes"/>
      <point x="51.2072" y="-225.33"/>
      <point x="22.3281" y="-185.949"/>
      <point x="-5.2383" y="-161.008" type="curve" smooth="yes"/>
      <point x="-6.55099" y="-159.696"/>
      <point x="-10.489" y="-170.197"/>
      <point x="-10.489" y="-171.51" type="curve" smooth="yes"/>
      <point x="-22.3032" y="-212.203"/>
      <point x="-32.8047" y="-356.599"/>
      <point x="-36.7428" y="-365.787" type="curve" smooth="yes"/>
      <point x="-44.6189" y="-381.54"/>
      <point x="-74.8107" y="-357.911"/>
      <point x="-74.8107" y="-346.097" type="curve" smooth="yes"/>
      <point x="-74.8107" y="-287.026"/>
      <point x="-28.8666" y="-239.77"/>
      <point x="-28.8666" y="-180.699" type="curve" smooth="yes"/>
      <point x="-28.8666" y="-174.135"/>
      <point x="-30.1793" y="-155.758"/>
      <point x="-34.1174" y="-161.008" type="curve" smooth="yes"/>
      <point x="-53.8077" y="-184.637"/>
      <point x="-106.315" y="-230.581"/>
      <point x="-164.073" y="-225.33" type="curve" smooth="yes"/>
      <point x="-245.46" y="-217.454"/>
      <point x="-262.525" y="-99.3121"/>
      <point x="-191.64" y="-50.7428" type="curve" smooth="yes"/>
      <point x="-187.702" y="-48.1174"/>
      <point x="-208.705" y="-45.492"/>
      <point x="-217.893" y="-42.8666" type="curve" smooth="yes"/>
      <point x="-245.46" y="-36.3032"/>
      <point x="-254.649" y="-3.48607"/>
      <point x="-254.649" y="18.8296" type="curve" smooth="yes"/>
      <point x="-254.649" y="76.5878"/>
      <point x="-189.014" y="106.78"/>
      <point x="-139.132" y="106.78" type="curve" smooth="yes"/>
      <point x="-61.6838" y="106.78"/>
      <point x="-15.7398" y="29.3311"/>
      <point x="-69.5599" y="-29.7398" type="curve" smooth="yes"/>
      <point x="-106.315" y="-69.1204"/>
      <point x="-198.203" y="-49.4301"/>
      <point x="-198.203" y="-119.002" type="curve" smooth="yes"/>
      <point x="-198.203" y="-151.82"/>
      <point x="-162.761" y="-180.699"/>
      <point x="-131.256" y="-180.699" type="curve" smooth="yes"/>
      <point x="-107.628" y="-180.699"/>
      <point x="-64.3092" y="-163.634"/>
      <point x="-49.8696" y="-128.191" type="curve" smooth="yes"/>
      <point x="-44.6189" y="-116.377"/>
      <point x="-47.2443" y="-116.377"/>
      <point x="-51.1823" y="-108.501" type="curve" smooth="yes"/>
      <point x="-57.7457" y="-95.3741"/>
      <point x="-17.0525" y="-59.9316"/>
      <point x="-13.1144" y="-71.7457" type="curve" smooth="yes"/>
      <point x="-5.2383" y="-92.7487"/>
      <point x="-2.61293" y="-117.69"/>
      <point x="3.9505" y="-128.191" type="curve" smooth="yes"/>
      <point x="22.3281" y="-158.383"/>
      <point x="56.4579" y="-166.259"/>
      <point x="89.2751" y="-166.259" type="curve" smooth="yes"/>
      <point x="223.169" y="-166.259"/>
      <point x="195.603" y="47.7087"/>
      <point x="160.16" y="140.909" type="curve" smooth="yes"/>
      <point x="136.532" y="205.231"/>
      <point x="94.5258" y="268.24"/>
      <point x="56.4579" y="295.806" type="curve" smooth="yes"/>
      <point x="42.0184" y="306.308"/>
      <point x="17.0774" y="312.871"/>
    </contour>
    <contour>
      <point x="-208.705" y="29.3311" type="curve" smooth="yes"/>
      <point x="-224.457" y="4.39005"/>
      <point x="-213.955" y="-40.2413"/>
      <point x="-171.949" y="-40.2413" type="curve" smooth="yes"/>
      <point x="-139.132" y="-40.2413"/>
      <point x="-72.1853" y="-17.9256"/>
      <point x="-72.1853" y="21.455" type="curve" smooth="yes"/>
      <point x="-72.1853" y="47.7087"/>
      <point x="-105.002" y="70.0243"/>
      <point x="-128.631" y="70.0243" type="curve" smooth="yes"/>
      <point x="-153.572" y="70.0243"/>
      <point x="-189.014" y="60.8355"/>
    </contour>
  </outline>
</glyph>
<glyph name="kn_c_ottu" format="2">
  <advance width="602"/>
  <outline>
    <contour>
      <point x="-79.5679" y="18.2093" type="curve" smooth="yes"/>
      <point x="-79.5679" y="67.7691"/>
      <point x="-33.7484" y="98.6272"/>
      <point x="14.8764" y="98.6272" type="curve" smooth="yes"/>
      <point x="79.3978" y="98.6272"/>
      <point x="141.114" y="64.0288"/>
      <point x="141.114" y="-4.23294" type="curve" smooth="yes"/>
      <point x="141.114" y="-155.718"/>
      <point x="-52.4502" y="-94.9369"/>
      <point x="-52.4502" y="-185.641" type="curve" smooth="yes"/>
      <point x="-52.4502" y="-271.669"/>
      <point x="114.931" y="-281.02"/>
      <point x="165.426" y="-221.174" type="curve" smooth="yes"/>
      <point x="182.258" y="-201.537"/>
      <point x="197.219" y="-141.691"/>
      <point x="202.83" y="-166.939" type="curve" smooth="yes"/>
      <point x="213.116" y="-209.953"/>
      <point x="235.558" y="-266.059"/>
      <point x="304.755" y="-266.059" type="curve" smooth="yes"/>
      <point x="357.12" y="-266.059"/>
      <point x="441.278" y="-224.915"/>
      <point x="431.927" y="-138.886" type="curve" smooth="yes"/>
      <point x="430.057" y="-118.314"/>
      <point x="416.966" y="-115.509"/>
      <point x="277.637" y="-115.509" type="curve" smooth="yes"/>
      <point x="243.039" y="-115.509"/>
      <point x="258" y="-55.663"/>
      <point x="304.755" y="-55.663" type="curve" smooth="yes"/>
      <point x="386.108" y="-55.663"/>
      <point x="522.631" y="-51.9226"/>
      <point x="597.439" y="-51.9226" type="curve" smooth="yes"/>
      <point x="616.141" y="-51.9226"/>
      <point x="616.141" y="-115.509"/>
      <point x="598.374" y="-115.509" type="curve" smooth="yes"/>
      <point x="576.867" y="-115.509"/>
      <point x="517.956" y="-115.509"/>
      <point x="501.124" y="-115.509" type="curve" smooth="yes"/>
      <point x="488.033" y="-115.509"/>
      <point x="480.552" y="-117.379"/>
      <point x="478.682" y="-140.756" type="curve" smooth="yes"/>
      <point x="473.071" y="-229.59"/>
      <point x="452.499" y="-299.722"/>
      <point x="344.029" y="-305.333" type="curve" smooth="yes"/>
      <point x="267.351" y="-309.073"/>
      <point x="226.207" y="-284.761"/>
      <point x="201.895" y="-228.655" type="curve" smooth="yes"/>
      <point x="197.219" y="-219.304"/>
      <point x="158.881" y="-316.554"/>
      <point x="41.059" y="-309.073" type="curve" smooth="yes"/>
      <point x="-16.9167" y="-305.333"/>
      <point x="-75.8275" y="-258.578"/>
      <point x="-75.8275" y="-198.732" type="curve" smooth="yes"/>
      <point x="-75.8275" y="-47.2472"/>
      <point x="111.191" y="-115.509"/>
      <point x="111.191" y="-9.84349" type="curve" smooth="yes"/>
      <point x="111.191" y="86.471"/>
      <point x="-39.3589" y="96.757"/>
      <point x="-39.3589" y="5.11798" type="curve" smooth="yes"/>
      <point x="-39.3589" y="-5.16803"/>
      <point x="-29.0729" y="-11.7137"/>
      <point x="-29.0729" y="-21.9997" type="curve" smooth="yes"/>
      <point x="-29.0729" y="-43.5068"/>
      <point x="-41.2291" y="-54.7279"/>
      <point x="-56.1906" y="-45.377" type="curve" smooth="yes"/>
      <point x="-79.5679" y="-30.4155"/>
      <point x="-79.5679" y="2.3127"/>
    </contour>
  </outline>
</glyph>
<glyph name="kn_dd.base" format="2">
  <advance width="717"/>
  <outline>
    <contour>
      <point x="473.155" y="497.548" type="curve"/>
      <point x="424.736" y="496.586"/>
      <point x="571.021" y="447.824"/>
      <point x="564.33" y="378.262" type="curve" smooth="yes"/>
      <point x="560.354" y="334.588"/>
      <point x="606.775" y="354.886"/>
      <point x="647.99" y="312.11" type="curve" smooth="yes"/>
      <point x="672.713" y="286.767"/>
      <point x="675.289" y="238.379"/>
      <point x="675.995" y="202.871" type="curve" smooth="yes"/>
      <point x="678.271" y="88.2771"/>
      <point x="629.969" y="0.127288"/>
      <point x="518.603" y="-2.08511" type="curve" smooth="yes"/>
      <point x="413.693" y="-4.16926"/>
      <point x="369.154" y="43.3849"/>
      <point x="354.082" y="70.5343" type="curve" smooth="yes"/>
      <point x="347.402" y="81.704"/>
      <point x="311.691" y="9.95068"/>
      <point x="211.719" y="3.12074" type="curve" smooth="yes"/>
      <point x="90.7659" y="-4.12604"/>
      <point x="13.9249" y="125.133"/>
      <point x="48.7703" y="240.464" type="curve" smooth="yes"/>
      <point x="82.0978" y="350.921"/>
      <point x="294.098" y="489.147"/>
      <point x="244.064" y="488.153" type="curve" smooth="yes"/>
      <point x="119.819" y="484.07"/>
      <point x="119.786" y="485.684"/>
      <point x="74.5946" y="484.787" type="curve" smooth="yes"/>
      <point x="37.4726" y="484.049"/>
      <point x="36.8422" y="597.061"/>
      <point x="77.1921" y="597.862" type="curve" smooth="yes"/>
      <point x="141.784" y="597.531"/>
      <point x="343.598" y="598.311"/>
      <point x="472.781" y="597.648" type="curve"/>
      <point x="473.423" y="565.368"/>
      <point x="472.514" y="529.828"/>
    </contour>
    <contour>
      <point x="157.025" y="155.424" type="curve" smooth="yes"/>
      <point x="175.838" y="102.515"/>
      <point x="216.668" y="79.1068"/>
      <point x="266.638" y="83.3288" type="curve" smooth="yes"/>
      <point x="327.906" y="87.7752"/>
      <point x="338.573" y="201.011"/>
      <point x="357.257" y="154.558" type="curve" smooth="yes"/>
      <point x="399.723" y="48.8361"/>
      <point x="575.36" y="66.857"/>
      <point x="595.808" y="175.444" type="curve" smooth="yes"/>
      <point x="606.048" y="228.93"/>
      <point x="588.465" y="301.239"/>
      <point x="565.869" y="300.79" type="curve" smooth="yes"/>
      <point x="549.729" y="300.47"/>
      <point x="544.075" y="259.991"/>
      <point x="534.583" y="250.115" type="curve" smooth="yes"/>
      <point x="520.346" y="235.301"/>
      <point x="478.35" y="236.081"/>
      <point x="457.272" y="240.506" type="curve" smooth="yes"/>
      <point x="428.091" y="246.385"/>
      <point x="398.334" y="281.316"/>
      <point x="415.222" y="325.246" type="curve" smooth="yes"/>
      <point x="426.007" y="351.295"/>
      <point x="482.241" y="365.329"/>
      <point x="481.183" y="418.591" type="curve" smooth="yes"/>
      <point x="480.285" y="463.783"/>
      <point x="403.882" y="489.714"/>
      <point x="366.76" y="488.976" type="curve" smooth="yes"/>
      <point x="326.41" y="488.174"/>
      <point x="287.963" y="472.879"/>
      <point x="257.842" y="444.832" type="curve" smooth="yes"/>
      <point x="162.701" y="357.366"/>
      <point x="127.92" y="238.807"/>
    </contour>
  </outline>
</glyph>
<glyph name="kn_dd_ottu2" format="2">
  <advance width="412"/>
  <outline>
    <contour>
      <point x="10.016" y="-215.963" type="curve" smooth="yes"/>
      <point x="10.016" y="-115.763"/>
      <point x="116.211" y="44.3868"/>
      <point x="225.832" y="44.3868" type="curve" smooth="yes"/>
      <point x="310.617" y="44.3868"/>
      <point x="352.581" y="-59.2393"/>
      <point x="371.423" y="-81.506" type="curve" smooth="yes"/>
      <point x="384.269" y="-96.9215"/>
      <point x="441.648" y="-137.173"/>
      <point x="441.648" y="-184.276" type="curve" smooth="yes"/>
      <point x="441.648" y="-239.943"/>
      <point x="408.248" y="-301.604"/>
      <point x="346.587" y="-301.604" type="curve" smooth="yes"/>
      <point x="273.791" y="-301.604"/>
      <point x="233.54" y="-243.368"/>
      <point x="228.401" y="-250.22" type="curve" smooth="yes"/>
      <point x="200.996" y="-286.189"/>
      <point x="162.458" y="-308.456"/>
      <point x="117.924" y="-307.599" type="curve" smooth="yes"/>
      <point x="69.9649" y="-306.743"/>
      <point x="10.016" y="-291.327"/>
    </contour>
    <contour>
      <point x="66.5393" y="-151.732" type="curve" smooth="yes"/>
      <point x="44.2725" y="-236.517"/>
      <point x="146.186" y="-302.461"/>
      <point x="192.432" y="-262.209" type="curve" smooth="yes"/>
      <point x="213.842" y="-243.368"/>
      <point x="219.837" y="-190.271"/>
      <point x="233.54" y="-204.83" type="curve" smooth="yes"/>
      <point x="248.955" y="-221.958"/>
      <point x="252.381" y="-249.363"/>
      <point x="276.361" y="-259.64" type="curve" smooth="yes"/>
      <point x="333.74" y="-283.62"/>
      <point x="432.228" y="-199.691"/>
      <point x="391.12" y="-138.886" type="curve" smooth="yes"/>
      <point x="389.407" y="-136.316"/>
      <point x="383.412" y="-126.896"/>
      <point x="382.556" y="-127.752" type="curve" smooth="yes"/>
      <point x="346.587" y="-160.296"/>
      <point x="267.796" y="-162.865"/>
      <point x="267.796" y="-98.6343" type="curve" smooth="yes"/>
      <point x="267.796" y="-64.3778"/>
      <point x="306.335" y="-62.6649"/>
      <point x="315.756" y="-66.0906" type="curve" smooth="yes"/>
      <point x="333.74" y="-72.0855"/>
      <point x="270.366" y="8.4174"/>
      <point x="219.837" y="8.4174" type="curve" smooth="yes"/>
      <point x="148.755" y="8.4174"/>
      <point x="81.9547" y="-93.4958"/>
    </contour>
  </outline>
</glyph>
<glyph name="kn_ddh_ottu" format="2">
  <advance width="327"/>
  <outline>
    <contour>
      <point x="89.4076" y="-291.382" type="curve" smooth="yes"/>
      <point x="53.7407" y="-308.675"/>
      <point x="-61.9068" y="-331.372"/>
      <point x="-75.9574" y="-269.766" type="curve" smooth="yes"/>
      <point x="-99.7354" y="-168.169"/>
      <point x="8.34634" y="20.9742"/>
      <point x="133.721" y="20.9742" type="curve" smooth="yes"/>
      <point x="174.792" y="20.9742"/>
      <point x="226.671" y="-25.5009"/>
      <point x="242.884" y="-64.4103" type="curve" smooth="yes"/>
      <point x="254.773" y="-93.5924"/>
      <point x="252.611" y="-110.885"/>
      <point x="277.47" y="-123.855" type="curve" smooth="yes"/>
      <point x="301.248" y="-135.744"/>
      <point x="336.915" y="-155.199"/>
      <point x="336.915" y="-210.321" type="curve" smooth="yes"/>
      <point x="336.915" y="-275.17"/>
      <point x="278.551" y="-323.806"/>
      <point x="221.267" y="-316.241" type="curve" smooth="yes"/>
      <point x="186.681" y="-311.917"/>
      <point x="168.307" y="-281.655"/>
      <point x="152.095" y="-281.655" type="curve" smooth="yes"/>
      <point x="140.206" y="-281.655"/>
      <point x="141.287" y="-301.109"/>
      <point x="140.206" y="-309.756" type="curve" smooth="yes"/>
      <point x="136.964" y="-344.342"/>
      <point x="133.721" y="-350.827"/>
      <point x="133.721" y="-386.494" type="curve" smooth="yes"/>
      <point x="133.721" y="-408.11"/>
      <point x="161.822" y="-415.676"/>
      <point x="161.822" y="-437.292" type="curve" smooth="yes"/>
      <point x="161.822" y="-453.504"/>
      <point x="148.853" y="-474.04"/>
      <point x="130.479" y="-474.04" type="curve" smooth="yes"/>
      <point x="112.105" y="-474.04"/>
      <point x="95.8925" y="-455.666"/>
      <point x="95.8925" y="-437.292" type="curve" smooth="yes"/>
      <point x="95.8925" y="-384.332"/>
      <point x="118.59" y="-368.12"/>
      <point x="118.59" y="-312.998" type="curve" smooth="yes"/>
      <point x="118.59" y="-300.028"/>
      <point x="119.67" y="-276.25"/>
    </contour>
    <contour>
      <point x="139.125" y="-237.341" type="curve" smooth="yes"/>
      <point x="147.772" y="-243.826"/>
      <point x="159.661" y="-274.089"/>
      <point x="186.681" y="-281.655" type="curve" smooth="yes"/>
      <point x="238.56" y="-295.705"/>
      <point x="310.975" y="-245.988"/>
      <point x="303.409" y="-193.028" type="curve" smooth="yes"/>
      <point x="299.086" y="-163.845"/>
      <point x="278.551" y="-134.663"/>
      <point x="265.581" y="-135.744" type="curve" smooth="yes"/>
      <point x="236.399" y="-137.906"/>
      <point x="229.914" y="-175.734"/>
      <point x="216.944" y="-175.734" type="curve" smooth="yes"/>
      <point x="186.681" y="-175.734"/>
      <point x="162.903" y="-141.148"/>
      <point x="166.146" y="-118.451" type="curve" smooth="yes"/>
      <point x="167.226" y="-110.885"/>
      <point x="171.55" y="-104.401"/>
      <point x="178.035" y="-103.32" type="curve" smooth="yes"/>
      <point x="194.247" y="-100.077"/>
      <point x="224.51" y="-107.643"/>
      <point x="221.267" y="-75.2185" type="curve" smooth="yes"/>
      <point x="218.025" y="-40.6324"/>
      <point x="172.631" y="-15.7736"/>
      <point x="143.448" y="-10.3695" type="curve" smooth="yes"/>
      <point x="63.468" y="4.76196"/>
      <point x="-50.0178" y="-121.694"/>
      <point x="-50.0178" y="-197.351" type="curve" smooth="yes"/>
      <point x="-50.0178" y="-258.957"/>
      <point x="23.4778" y="-285.978"/>
      <point x="73.1954" y="-274.089" type="curve" smooth="yes"/>
      <point x="101.297" y="-267.604"/>
      <point x="125.075" y="-226.533"/>
    </contour>
  </outline>
</glyph>
<glyph name="kn_ddh_v" format="2">
  <advance width="903"/>
  <outline>
    <component base="kn_virama" xOffset="214" yOffset="138"/>
    <contour>
      <point x="357.742" y="77.1814" type="curve" smooth="yes"/>
      <point x="361.573" y="9.4992"/>
      <point x="361.573" y="-33.9196"/>
      <point x="366.681" y="-90.1086" type="curve" smooth="yes"/>
      <point x="369.235" y="-119.48"/>
      <point x="374.343" y="-148.852"/>
      <point x="337.31" y="-148.852" type="curve" smooth="yes"/>
      <point x="305.384" y="-148.852"/>
      <point x="290.06" y="-130.973"/>
      <point x="290.06" y="-100.325" type="curve" smooth="yes"/>
      <point x="290.06" y="-50.5209"/>
      <point x="333.479" y="13.3303"/>
      <point x="337.31" y="56.7491" type="curve" smooth="yes"/>
      <point x="339.864" y="91.2287"/>
      <point x="356.465" y="91.2287"/>
    </contour>
    <contour>
      <point x="472.674" y="492.214" type="curve" smooth="yes"/>
      <point x="508.431" y="476.89"/>
      <point x="571.005" y="447.518"/>
      <point x="564.62" y="378.559" type="curve" smooth="yes"/>
      <point x="560.789" y="335.14"/>
      <point x="606.762" y="354.296"/>
      <point x="647.626" y="312.154" type="curve" smooth="yes"/>
      <point x="673.167" y="286.613"/>
      <point x="675.721" y="238.086"/>
      <point x="675.721" y="202.33" type="curve" smooth="yes"/>
      <point x="678.275" y="88.6747"/>
      <point x="629.748" y="0.560038"/>
      <point x="518.647" y="-1.99401" type="curve" smooth="yes"/>
      <point x="413.931" y="-4.54806"/>
      <point x="369.235" y="43.9788"/>
      <point x="353.911" y="70.7963" type="curve" smooth="yes"/>
      <point x="347.526" y="82.2895"/>
      <point x="311.769" y="9.4992"/>
      <point x="212.161" y="3.11409" type="curve" smooth="yes"/>
      <point x="90.8441" y="-4.54806"/>
      <point x="14.2227" y="125.708"/>
      <point x="48.7023" y="240.64" type="curve" smooth="yes"/>
      <point x="81.905" y="350.464"/>
      <point x="203.222" y="460.288"/>
      <point x="244.087" y="488.383" type="curve" smooth="yes"/>
      <point x="287.506" y="517.755"/>
      <point x="434.363" y="508.815"/>
    </contour>
    <contour>
      <point x="157.249" y="155.08" type="curve" smooth="yes"/>
      <point x="176.405" y="102.722"/>
      <point x="217.269" y="79.7355"/>
      <point x="267.073" y="83.5666" type="curve" smooth="yes"/>
      <point x="328.37" y="87.3976"/>
      <point x="338.587" y="201.053"/>
      <point x="357.742" y="155.08" type="curve" smooth="yes"/>
      <point x="399.884" y="49.0869"/>
      <point x="574.836" y="66.9653"/>
      <point x="595.268" y="175.512" type="curve" smooth="yes"/>
      <point x="605.485" y="229.147"/>
      <point x="588.883" y="300.661"/>
      <point x="565.897" y="300.661" type="curve" smooth="yes"/>
      <point x="549.296" y="300.661"/>
      <point x="544.187" y="259.796"/>
      <point x="533.971" y="249.58" type="curve" smooth="yes"/>
      <point x="519.924" y="235.532"/>
      <point x="477.782" y="235.532"/>
      <point x="457.35" y="240.64" type="curve" smooth="yes"/>
      <point x="427.978" y="245.749"/>
      <point x="398.607" y="281.505"/>
      <point x="415.208" y="324.924" type="curve" smooth="yes"/>
      <point x="425.424" y="351.741"/>
      <point x="481.613" y="365.789"/>
      <point x="481.613" y="418.147" type="curve" smooth="yes"/>
      <point x="480.336" y="464.12"/>
      <point x="403.715" y="489.66"/>
      <point x="366.681" y="488.383" type="curve" smooth="yes"/>
      <point x="325.816" y="488.383"/>
      <point x="287.506" y="473.059"/>
      <point x="258.134" y="444.964" type="curve" smooth="yes"/>
      <point x="162.357" y="356.85"/>
      <point x="127.878" y="239.363"/>
    </contour>
  </outline>
</glyph>
<glyph name="kn_gh_aa" format="2">
  <advance width="1924"/>
  <outline>
    <component base="kn_ma_aa" xOffset="1200" yOffset="30"/>
    <component base="kn_gh"/>
    <contour>
      <point x="1022" y="560" type="curve" smooth="yes"/>
      <point x="1145" y="560"/>
      <point x="1290" y="560"/>
      <point x="1417" y="560" type="curve"/>
      <point x="1417" y="660" type="line"/>
      <point x="1290" y="660"/>
      <point x="1145" y="660"/>
      <point x="1022" y="660" type="curve" smooth="yes"/>
      <point x="1000" y="660"/>
      <point x="1000" y="560"/>
    </contour>
  </outline>
</glyph>
<glyph name="kn_h_ottu" format="2">
  <advance width="450"/>
  <outline>
    <contour>
      <point x="169.74" y="-161.906" type="curve" smooth="yes"/>
      <point x="241.799" y="-83.9175"/>
      <point x="291.967" y="-78.2962"/>
      <point x="351.374" y="-86.6566" type="curve" smooth="yes"/>
      <point x="446.854" y="-99.5373"/>
      <point x="465.65" y="-198.071"/>
      <point x="457.738" y="-268.526" type="curve" smooth="yes"/>
      <point x="449.938" y="-338.079"/>
      <point x="383.296" y="-394.763"/>
      <point x="317.35" y="-387.415" type="curve" smooth="yes"/>
      <point x="238.778" y="-378.486"/>
      <point x="206.435" y="-344.205"/>
      <point x="183.448" y="-308.349" type="curve" smooth="yes"/>
      <point x="177.364" y="-298.427"/>
      <point x="179.843" y="-300.57"/>
      <point x="175.332" y="-307.332" type="curve" smooth="yes"/>
      <point x="143.413" y="-357.375"/>
      <point x="90.0793" y="-395.575"/>
      <point x="26.8388" y="-388.566" type="curve" smooth="yes"/>
      <point x="-60.864" y="-379.408"/>
      <point x="-124.988" y="-313.666"/>
      <point x="-115.265" y="-221.454" type="curve" smooth="yes"/>
      <point x="-107.352" y="-150.999"/>
      <point x="-51.8645" y="-73.6816"/>
      <point x="38.2069" y="-78.5567" type="curve" smooth="yes"/>
      <point x="100.998" y="-81.8451"/>
      <point x="137.624" y="-118.494"/>
      <point x="156.664" y="-156.604" type="curve" smooth="yes"/>
      <point x="161.058" y="-165.398"/>
      <point x="163.425" y="-168.443"/>
    </contour>
    <contour>
      <point x="186.068" y="-221.659" type="curve" smooth="yes"/>
      <point x="175.786" y="-296.397"/>
      <point x="235.526" y="-324.035"/>
      <point x="298.316" y="-327.323" type="curve" smooth="yes"/>
      <point x="355.583" y="-330.836"/>
      <point x="401.924" y="-304.583"/>
      <point x="410.176" y="-231.423" type="curve" smooth="yes"/>
      <point x="418.089" y="-160.967"/>
      <point x="360.381" y="-124.425"/>
      <point x="317.883" y="-120.015" type="curve" smooth="yes"/>
      <point x="270.875" y="-115.04"/>
      <point x="197.027" y="-141.51"/>
    </contour>
    <contour>
      <point x="-88.2083" y="-217.517" type="curve" smooth="yes"/>
      <point x="-97.3643" y="-297.892"/>
      <point x="-19.821" y="-351.576"/>
      <point x="34.5166" y="-349.225" type="curve" smooth="yes"/>
      <point x="88.8542" y="-346.875"/>
      <point x="132.835" y="-295.595"/>
      <point x="140.852" y="-253.548" type="curve" smooth="yes"/>
      <point x="156.66" y="-171.259"/>
      <point x="110.237" y="-95.8268"/>
      <point x="12.1559" y="-111.016" type="curve" smooth="yes"/>
      <point x="-56.0503" y="-121.704"/>
      <point x="-83.3467" y="-171.411"/>
    </contour>
  </outline>
</glyph>
<glyph name="kn_h_v" format="2">
  <advance width="847"/>
  <outline>
    <component base="kn_virama" xOffset="55" yOffset="128"/>
    <contour>
      <point x="596" y="-3" type="curve" smooth="yes"/>
      <point x="491" y="-3"/>
      <point x="460" y="84"/>
      <point x="434" y="126" type="curve" smooth="yes"/>
      <point x="430" y="132"/>
      <point x="422" y="130"/>
      <point x="419" y="125" type="curve" smooth="yes"/>
      <point x="386" y="74"/>
      <point x="328" y="2"/>
      <point x="219" y="2" type="curve" smooth="yes"/>
      <point x="85" y="2"/>
      <point x="30" y="162"/>
      <point x="42" y="249" type="curve" smooth="yes"/>
      <point x="53" y="329"/>
      <point x="86" y="382"/>
      <point x="159" y="419" type="curve"/>
      <point x="181" y="431"/>
      <point x="201" y="442"/>
      <point x="203" y="445" type="curve" smooth="yes"/>
      <point x="207" y="452"/>
      <point x="191" y="471"/>
      <point x="173" y="485" type="curve" smooth="yes"/>
      <point x="163" y="493"/>
      <point x="157" y="499"/>
      <point x="143" y="508" type="curve"/>
      <point x="228" y="508" type="line"/>
      <point x="238" y="488"/>
      <point x="246" y="458"/>
      <point x="267" y="451" type="curve" smooth="yes"/>
      <point x="337" y="426"/>
      <point x="391" y="363"/>
      <point x="413" y="341" type="curve" smooth="yes"/>
      <point x="424" y="330"/>
      <point x="430" y="335"/>
      <point x="446" y="345" type="curve" smooth="yes"/>
      <point x="456" y="351"/>
      <point x="479" y="374"/>
      <point x="503" y="393" type="curve" smooth="yes"/>
      <point x="607" y="477"/>
      <point x="770" y="402"/>
      <point x="800" y="282" type="curve" smooth="yes"/>
      <point x="831" y="166"/>
      <point x="743" y="-3"/>
    </contour>
    <contour>
      <point x="219" y="102" type="curve" smooth="yes"/>
      <point x="307" y="102"/>
      <point x="387" y="154"/>
      <point x="387" y="252" type="curve" smooth="yes"/>
      <point x="387" y="322"/>
      <point x="298" y="396"/>
      <point x="227" y="396" type="curve" smooth="yes"/>
      <point x="142" y="396"/>
      <point x="94" y="335"/>
      <point x="84" y="266" type="curve" smooth="yes"/>
      <point x="71" y="168"/>
      <point x="133" y="102"/>
    </contour>
    <contour>
      <point x="597" y="93" type="curve" smooth="yes"/>
      <point x="682" y="93"/>
      <point x="761" y="136"/>
      <point x="761" y="234" type="curve" smooth="yes"/>
      <point x="761" y="330"/>
      <point x="672" y="396"/>
      <point x="583" y="385" type="curve" smooth="yes"/>
      <point x="512" y="376"/>
      <point x="444" y="311"/>
      <point x="444" y="234" type="curve" smooth="yes"/>
      <point x="444" y="154"/>
      <point x="520" y="93"/>
    </contour>
  </outline>
  <guideline angle="0" x="0" y="840"/>
</glyph>
<glyph name="kn_j_ottu" format="2">
  <advance width="406"/>
  <outline>
    <contour>
      <point x="48.9495" y="-308.535" type="curve" smooth="yes"/>
      <point x="-26.2216" y="-308.535"/>
      <point x="-79.5075" y="-272.377"/>
      <point x="-79.5075" y="-192.448" type="curve" smooth="yes"/>
      <point x="-79.5075" y="-71.6036"/>
      <point x="129.83" y="-92.5373"/>
      <point x="129.83" y="-15.4631" type="curve" smooth="yes"/>
      <point x="129.83" y="91.1085"/>
      <point x="-18.6094" y="58.7564"/>
      <point x="-18.6094" y="14.0344" type="curve" smooth="yes"/>
      <point x="-18.6094" y="3.56752"/>
      <point x="-12.9002" y="-4.99627"/>
      <point x="-12.9002" y="-15.4631" type="curve" smooth="yes"/>
      <point x="-12.9002" y="-28.7846"/>
      <point x="-20.5124" y="-40.203"/>
      <point x="-34.7854" y="-40.203" type="curve" smooth="yes"/>
      <point x="-56.6707" y="-40.203"/>
      <point x="-75.7013" y="-21.1723"/>
      <point x="-75.7013" y="0.712922" type="curve" smooth="yes"/>
      <point x="-75.7013" y="52.0957"/>
      <point x="-2.43331" y="96.8177"/>
      <point x="44.1918" y="98.7208" type="curve" smooth="yes"/>
      <point x="129.83" y="102.527"/>
      <point x="167.891" y="72.0779"/>
      <point x="167.891" y="-18.3177" type="curve" smooth="yes"/>
      <point x="167.891" y="-24.9785"/>
      <point x="166.94" y="-44.0091"/>
      <point x="174.552" y="-46.8637" type="curve" smooth="yes"/>
      <point x="224.031" y="-67.7974"/>
      <point x="368.664" y="-74.4582"/>
      <point x="378.18" y="13.0828" type="curve" smooth="yes"/>
      <point x="380.083" y="34.0166"/>
      <point x="366.761" y="70.1748"/>
      <point x="364.858" y="91.1085" type="curve" smooth="yes"/>
      <point x="364.858" y="95.8662"/>
      <point x="363.907" y="112.042"/>
      <point x="373.422" y="102.527" type="curve" smooth="yes"/>
      <point x="390.55" y="88.2539"/>
      <point x="415.29" y="47.338"/>
      <point x="415.29" y="7.37365" type="curve" smooth="yes"/>
      <point x="415.29" y="-51.6214"/>
      <point x="381.986" y="-83.9735"/>
      <point x="340.118" y="-92.5373" type="curve" smooth="yes"/>
      <point x="267.802" y="-107.762"/>
      <point x="224.983" y="-103.004"/>
      <point x="133.636" y="-88.7312" type="curve" smooth="yes"/>
      <point x="86.0592" y="-81.1189"/>
      <point x="-31.9308" y="-105.859"/>
      <point x="-31.9308" y="-189.594" type="curve" smooth="yes"/>
      <point x="-31.9308" y="-256.201"/>
      <point x="11.8397" y="-276.183"/>
      <point x="63.2225" y="-269.522" type="curve" smooth="yes"/>
      <point x="125.072" y="-261.91"/>
      <point x="151.715" y="-137.259"/>
      <point x="167.891" y="-158.193" type="curve" smooth="yes"/>
      <point x="179.309" y="-172.466"/>
      <point x="179.309" y="-185.787"/>
      <point x="184.067" y="-199.109" type="curve" smooth="yes"/>
      <point x="211.662" y="-277.135"/>
      <point x="326.797" y="-272.377"/>
      <point x="339.167" y="-218.14" type="curve" smooth="yes"/>
      <point x="343.925" y="-198.157"/>
      <point x="328.7" y="-158.193"/>
      <point x="362.004" y="-158.193" type="curve" smooth="yes"/>
      <point x="384.841" y="-158.193"/>
      <point x="383.889" y="-208.624"/>
      <point x="383.889" y="-224.8" type="curve" smooth="yes"/>
      <point x="383.889" y="-275.232"/>
      <point x="336.312" y="-319.954"/>
      <point x="292.542" y="-319.954" type="curve" smooth="yes"/>
      <point x="224.983" y="-319.954"/>
      <point x="177.406" y="-260.959"/>
      <point x="161.23" y="-212.43" type="curve" smooth="yes"/>
      <point x="156.473" y="-198.157"/>
      <point x="130.781" y="-308.535"/>
    </contour>
  </outline>
</glyph>
<glyph name="kn_j_v" format="2">
  <advance width="1092"/>
  <outline>
    <component base="kn_virama" xOffset="462" yOffset="134"/>
    <contour>
      <point x="174" y="0" type="curve" smooth="yes"/>
      <point x="127" y="0"/>
      <point x="71" y="16"/>
      <point x="45" y="131" type="curve" smooth="yes"/>
      <point x="14" y="275"/>
      <point x="141" y="314"/>
      <point x="244" y="350" type="curve" smooth="yes"/>
      <point x="304" y="372"/>
      <point x="346" y="418"/>
      <point x="317" y="488" type="curve" smooth="yes"/>
      <point x="262" y="620"/>
      <point x="71" y="560"/>
      <point x="121" y="415" type="curve" smooth="yes"/>
      <point x="129" y="391"/>
      <point x="50" y="384"/>
      <point x="50" y="428" type="curve" smooth="yes"/>
      <point x="50" y="716"/>
      <point x="417" y="671"/>
      <point x="378" y="405" type="curve"/>
      <point x="374" y="388"/>
      <point x="379" y="393"/>
      <point x="422" y="383" type="curve" smooth="yes"/>
      <point x="532" y="357"/>
      <point x="675" y="367"/>
      <point x="631" y="511" type="curve"/>
      <point x="649" y="535"/>
      <point x="681" y="524"/>
      <point x="681" y="475" type="curve" smooth="yes"/>
      <point x="681" y="389"/>
      <point x="665" y="351"/>
      <point x="598" y="315" type="curve" smooth="yes"/>
      <point x="494" y="260"/>
      <point x="379" y="338"/>
      <point x="303" y="325" type="curve" smooth="yes"/>
      <point x="240" y="314"/>
      <point x="167" y="297"/>
      <point x="123" y="253" type="curve" smooth="yes"/>
      <point x="79" y="210"/>
      <point x="96" y="118"/>
      <point x="174" y="100" type="curve" smooth="yes"/>
      <point x="232" y="87"/>
      <point x="343" y="130"/>
      <point x="362" y="184" type="curve" smooth="yes"/>
      <point x="363" y="186"/>
      <point x="358" y="196"/>
      <point x="349" y="202" type="curve" smooth="yes"/>
      <point x="339" y="209"/>
      <point x="340" y="225"/>
      <point x="346" y="234" type="curve" smooth="yes"/>
      <point x="364" y="261"/>
      <point x="389" y="239"/>
      <point x="389" y="194" type="curve" smooth="yes"/>
      <point x="389" y="119"/>
      <point x="460" y="93"/>
      <point x="524" y="100" type="curve" smooth="yes"/>
      <point x="560" y="104"/>
      <point x="594" y="124"/>
      <point x="612" y="161" type="curve" smooth="yes"/>
      <point x="616" y="170"/>
      <point x="620" y="194"/>
      <point x="613" y="206" type="curve" smooth="yes"/>
      <point x="606" y="218"/>
      <point x="616" y="232"/>
      <point x="627" y="237" type="curve" smooth="yes"/>
      <point x="648" y="247"/>
      <point x="666" y="229"/>
      <point x="666" y="166" type="curve" smooth="yes"/>
      <point x="666" y="95"/>
      <point x="602" y="0"/>
      <point x="525" y="0" type="curve" smooth="yes"/>
      <point x="412" y="-1"/>
      <point x="394" y="95"/>
      <point x="383" y="125" type="curve" smooth="yes"/>
      <point x="378" y="139"/>
      <point x="378" y="155"/>
      <point x="361" y="129" type="curve" smooth="yes"/>
      <point x="330" y="83"/>
      <point x="262" y="0"/>
    </contour>
  </outline>
  <guideline angle="0" x="0" y="100"/>
</glyph>
<glyph name="kn_jh_aa" format="2">
  <advance width="2057"/>
  <outline>
    <component base="kn_ma_aa" xOffset="1333" yOffset="-39"/>
    <component base="kn_jh"/>
    <contour>
      <point x="1315" y="491" type="curve" smooth="yes"/>
      <point x="1438" y="491"/>
      <point x="1226" y="491"/>
      <point x="1353" y="491" type="curve"/>
      <point x="1353" y="591" type="line"/>
      <point x="1226" y="591"/>
      <point x="1358" y="591"/>
      <point x="1235" y="591" type="curve" smooth="yes"/>
      <point x="1213" y="591"/>
      <point x="1293" y="491"/>
    </contour>
  </outline>
</glyph>
<glyph name="kn_k.base" format="2">
  <advance width="730"/>
  <outline>
    <contour>
      <point x="347" y="0" type="curve" smooth="yes"/>
      <point x="173" y="0"/>
      <point x="89" y="212"/>
      <point x="220" y="343" type="curve" smooth="yes"/>
      <point x="254" y="378"/>
      <point x="231" y="374"/>
      <point x="226" y="374" type="curve" smooth="yes"/>
      <point x="144" y="374"/>
      <point x="128" y="374"/>
      <point x="66" y="374" type="curve" smooth="yes"/>
      <point x="37" y="374"/>
      <point x="25" y="454"/>
      <point x="70" y="454" type="curve" smooth="yes"/>
      <point x="80" y="454"/>
      <point x="325" y="454"/>
      <point x="353" y="454" type="curve"/>
      <point x="356" y="481"/>
      <point x="339" y="530"/>
      <point x="312" y="530" type="curve" smooth="yes"/>
      <point x="277" y="530"/>
      <point x="172" y="530"/>
      <point x="75" y="530" type="curve" smooth="yes"/>
      <point x="27" y="530"/>
      <point x="23" y="630"/>
      <point x="85" y="630" type="curve" smooth="yes"/>
      <point x="494" y="630" type="line"/>
      <point x="494" y="587"/>
      <point x="494" y="567"/>
      <point x="494" y="530" type="curve"/>
      <point x="418" y="530" type="line"/>
      <point x="388" y="530"/>
      <point x="404" y="475"/>
      <point x="411" y="454" type="curve"/>
      <point x="507" y="454"/>
      <point x="575" y="454"/>
      <point x="638" y="454" type="curve" smooth="yes"/>
      <point x="685" y="454"/>
      <point x="687" y="374"/>
      <point x="634" y="374" type="curve" smooth="yes"/>
      <point x="594" y="374"/>
      <point x="484" y="376"/>
      <point x="475" y="376" type="curve" smooth="yes"/>
      <point x="467" y="376"/>
      <point x="470" y="377"/>
      <point x="492" y="355" type="curve" smooth="yes"/>
      <point x="633" y="214"/>
      <point x="551" y="0"/>
    </contour>
    <contour>
      <point x="423" y="126" type="curve" smooth="yes"/>
      <point x="471" y="169"/>
      <point x="490" y="240"/>
      <point x="459" y="298" type="curve" smooth="yes"/>
      <point x="405" y="399"/>
      <point x="285" y="355"/>
      <point x="251" y="299" type="curve" smooth="yes"/>
      <point x="217" y="244"/>
      <point x="226" y="156"/>
      <point x="279" y="119" type="curve" smooth="yes"/>
      <point x="300" y="104"/>
      <point x="369" y="79"/>
    </contour>
  </outline>
</glyph>
<glyph name="kn_k_i" format="2">
  <advance width="714"/>
  <outline>
    <component base="kn_ma_i" xOffset="193" yOffset="-48"/>
    <contour>
      <point x="347" y="0" type="curve" smooth="yes"/>
      <point x="173" y="0"/>
      <point x="89" y="212"/>
      <point x="220" y="343" type="curve" smooth="yes"/>
      <point x="254" y="378"/>
      <point x="231" y="374"/>
      <point x="226" y="374" type="curve" smooth="yes"/>
      <point x="144" y="374"/>
      <point x="128" y="374"/>
      <point x="66" y="374" type="curve" smooth="yes"/>
      <point x="37" y="374"/>
      <point x="25" y="454"/>
      <point x="70" y="454" type="curve" smooth="yes"/>
      <point x="259" y="454"/>
      <point x="449" y="454"/>
      <point x="638" y="454" type="curve" smooth="yes"/>
      <point x="685" y="454"/>
      <point x="687" y="374"/>
      <point x="634" y="374" type="curve" smooth="yes"/>
      <point x="594" y="374"/>
      <point x="484" y="376"/>
      <point x="475" y="376" type="curve" smooth="yes"/>
      <point x="467" y="376"/>
      <point x="470" y="377"/>
      <point x="492" y="355" type="curve" smooth="yes"/>
      <point x="633" y="214"/>
      <point x="551" y="0"/>
    </contour>
    <contour>
      <point x="423" y="126" type="curve" smooth="yes"/>
      <point x="471" y="169"/>
      <point x="490" y="240"/>
      <point x="459" y="298" type="curve" smooth="yes"/>
      <point x="405" y="399"/>
      <point x="285" y="355"/>
      <point x="251" y="299" type="curve" smooth="yes"/>
      <point x="217" y="244"/>
      <point x="226" y="156"/>
      <point x="279" y="119" type="curve" smooth="yes"/>
      <point x="300" y="104"/>
      <point x="369" y="79"/>
    </contour>
  </outline>
</glyph>
<glyph name="kn_k_ottu" format="2">
  <advance width="207"/>
  <outline>
    <contour>
      <point x="-1.616" y="-216.446" type="curve" smooth="yes"/>
      <point x="-1.616" y="-179.712"/>
      <point x="30.2199" y="-147.876"/>
      <point x="69.4026" y="-147.876" type="curve" smooth="yes"/>
      <point x="106.136" y="-147.876"/>
      <point x="137.972" y="-179.712"/>
      <point x="137.972" y="-216.446" type="curve" smooth="yes"/>
      <point x="137.972" y="-253.18"/>
      <point x="106.136" y="-285.016"/>
      <point x="69.4026" y="-285.016" type="curve" smooth="yes"/>
      <point x="30.2199" y="-285.016"/>
      <point x="-1.616" y="-253.18"/>
    </contour>
    <contour>
      <point x="-38.3498" y="-226.242" type="curve" smooth="yes"/>
      <point x="-38.3498" y="-285.016"/>
      <point x="8.17968" y="-331.545"/>
      <point x="69.4026" y="-331.545" type="curve" smooth="yes"/>
      <point x="128.177" y="-331.545"/>
      <point x="174.706" y="-285.016"/>
      <point x="174.706" y="-226.242" type="curve" smooth="yes"/>
      <point x="174.706" y="-165.019"/>
      <point x="128.177" y="-118.489"/>
      <point x="69.4026" y="-118.489" type="curve" smooth="yes"/>
      <point x="8.17968" y="-118.489"/>
      <point x="-38.3498" y="-165.019"/>
    </contour>
    <contour>
      <point x="-79.9814" y="-118.489" type="line" smooth="yes"/>
      <point x="-79.9814" y="-130.734"/>
      <point x="-72.6346" y="-138.081"/>
      <point x="-60.39" y="-138.081" type="curve" smooth="yes"/>
      <point x="196.746" y="-138.081" type="line" smooth="yes"/>
      <point x="208.991" y="-138.081"/>
      <point x="216.338" y="-130.734"/>
      <point x="216.338" y="-118.489" type="curve" smooth="yes"/>
      <point x="216.338" y="-113.591" type="line" smooth="yes"/>
      <point x="216.338" y="-101.347"/>
      <point x="208.991" y="-94"/>
      <point x="196.746" y="-94" type="curve" smooth="yes"/>
      <point x="-60.39" y="-94" type="line" smooth="yes"/>
      <point x="-72.6346" y="-94"/>
      <point x="-79.9814" y="-101.347"/>
      <point x="-79.9814" y="-113.591" type="curve" smooth="yes"/>
    </contour>
    <contour>
      <point x="25.3221" y="92.1178" type="curve" smooth="yes"/>
      <point x="15.5264" y="60.2818"/>
      <point x="-1.616" y="-79.3065"/>
      <point x="88.994" y="-113.591" type="curve"/>
      <point x="111.034" y="-113.591"/>
      <point x="120.83" y="-108.694"/>
      <point x="137.972" y="-103.796" type="curve"/>
      <point x="47.3624" y="-81.7554"/>
      <point x="32.6689" y="-5.83895"/>
      <point x="59.607" y="82.3221" type="curve" smooth="yes"/>
      <point x="64.5048" y="94.5667"/>
      <point x="30.2199" y="106.811"/>
    </contour>
  </outline>
</glyph>
<glyph name="kn_k_ottu2" format="2">
  <advance width="277"/>
  <outline>
    <contour>
      <point x="88.384" y="-216.446" type="curve" smooth="yes"/>
      <point x="88.384" y="-179.712"/>
      <point x="120.22" y="-147.876"/>
      <point x="159.403" y="-147.876" type="curve" smooth="yes"/>
      <point x="196.136" y="-147.876"/>
      <point x="227.972" y="-179.712"/>
      <point x="227.972" y="-216.446" type="curve" smooth="yes"/>
      <point x="227.972" y="-253.18"/>
      <point x="196.136" y="-285.016"/>
      <point x="159.403" y="-285.016" type="curve" smooth="yes"/>
      <point x="120.22" y="-285.016"/>
      <point x="88.384" y="-253.18"/>
    </contour>
    <contour>
      <point x="51.6502" y="-226.242" type="curve" smooth="yes"/>
      <point x="51.6502" y="-285.016"/>
      <point x="98.1797" y="-331.545"/>
      <point x="159.403" y="-331.545" type="curve" smooth="yes"/>
      <point x="218.177" y="-331.545"/>
      <point x="264.706" y="-285.016"/>
      <point x="264.706" y="-226.242" type="curve" smooth="yes"/>
      <point x="264.706" y="-165.019"/>
      <point x="218.177" y="-118.489"/>
      <point x="159.403" y="-118.489" type="curve" smooth="yes"/>
      <point x="98.1797" y="-118.489"/>
      <point x="51.6502" y="-165.019"/>
    </contour>
    <contour>
      <point x="10.0186" y="-118.489" type="line" smooth="yes"/>
      <point x="10.0186" y="-130.734"/>
      <point x="17.3654" y="-138.081"/>
      <point x="29.61" y="-138.081" type="curve" smooth="yes"/>
      <point x="286.746" y="-138.081" type="line" smooth="yes"/>
      <point x="298.991" y="-138.081"/>
      <point x="306.338" y="-130.734"/>
      <point x="306.338" y="-118.489" type="curve" smooth="yes"/>
      <point x="306.338" y="-113.591" type="line" smooth="yes"/>
      <point x="306.338" y="-101.347"/>
      <point x="298.991" y="-94"/>
      <point x="286.746" y="-94" type="curve" smooth="yes"/>
      <point x="29.61" y="-94" type="line" smooth="yes"/>
      <point x="17.3654" y="-94"/>
      <point x="10.0186" y="-101.347"/>
      <point x="10.0186" y="-113.591" type="curve" smooth="yes"/>
    </contour>
    <contour>
      <point x="115.322" y="92.1178" type="curve" smooth="yes"/>
      <point x="105.526" y="60.2818"/>
      <point x="88.384" y="-79.3065"/>
      <point x="178.994" y="-113.591" type="curve"/>
      <point x="201.034" y="-113.591"/>
      <point x="210.83" y="-108.694"/>
      <point x="227.972" y="-103.796" type="curve"/>
      <point x="137.362" y="-81.7554"/>
      <point x="122.669" y="-5.83895"/>
      <point x="149.607" y="82.3221" type="curve" smooth="yes"/>
      <point x="154.505" y="94.5667"/>
      <point x="120.22" y="106.811"/>
    </contour>
  </outline>
</glyph>
<glyph name="kn_k_v" format="2">
  <advance width="847"/>
  <outline>
    <component base="kn_virama" xOffset="198" yOffset="93"/>
    <contour>
      <point x="347" y="0" type="curve" smooth="yes"/>
      <point x="173" y="0"/>
      <point x="89" y="212"/>
      <point x="220" y="343" type="curve" smooth="yes"/>
      <point x="254" y="378"/>
      <point x="231" y="374"/>
      <point x="226" y="374" type="curve" smooth="yes"/>
      <point x="144" y="374"/>
      <point x="128" y="374"/>
      <point x="66" y="374" type="curve" smooth="yes"/>
      <point x="37" y="374"/>
      <point x="25" y="454"/>
      <point x="70" y="454" type="curve" smooth="yes"/>
      <point x="80" y="454"/>
      <point x="325" y="454"/>
      <point x="353" y="454" type="curve"/>
      <point x="380" y="454"/>
      <point x="391" y="454"/>
      <point x="411" y="454" type="curve"/>
      <point x="507" y="454"/>
      <point x="575" y="454"/>
      <point x="638" y="454" type="curve" smooth="yes"/>
      <point x="685" y="454"/>
      <point x="687" y="374"/>
      <point x="634" y="374" type="curve" smooth="yes"/>
      <point x="594" y="374"/>
      <point x="484" y="376"/>
      <point x="475" y="376" type="curve" smooth="yes"/>
      <point x="467" y="376"/>
      <point x="470" y="377"/>
      <point x="492" y="355" type="curve" smooth="yes"/>
      <point x="633" y="214"/>
      <point x="551" y="0"/>
    </contour>
    <contour>
      <point x="423" y="126" type="curve" smooth="yes"/>
      <point x="471" y="169"/>
      <point x="490" y="240"/>
      <point x="459" y="298" type="curve" smooth="yes"/>
      <point x="405" y="399"/>
      <point x="285" y="355"/>
      <point x="251" y="299" type="curve" smooth="yes"/>
      <point x="217" y="244"/>
      <point x="226" y="156"/>
      <point x="279" y="119" type="curve" smooth="yes"/>
      <point x="300" y="104"/>
      <point x="369" y="79"/>
    </contour>
  </outline>
</glyph>
<glyph name="kn_kh_v" format="2">
  <advance width="1110"/>
  <outline>
    <component base="kn_virama" xOffset="480" yOffset="261"/>
    <contour>
      <point x="289.054" y="267.938" type="curve" smooth="yes"/>
      <point x="347.895" y="245.872"/>
      <point x="387.823" y="193.336"/>
      <point x="395.179" y="195.437" type="curve" smooth="yes"/>
      <point x="461.375" y="210.147"/>
      <point x="508.658" y="422.396"/>
      <point x="367.859" y="533.774" type="curve" smooth="yes"/>
      <point x="282.75" y="601.021"/>
      <point x="137.748" y="560.043"/>
      <point x="137.748" y="503.303" type="curve" smooth="yes"/>
      <point x="137.748" y="480.187"/>
      <point x="155.611" y="519.064"/>
      <point x="208.147" y="508.557" type="curve" smooth="yes"/>
      <point x="251.228" y="500.151"/>
      <point x="260.684" y="460.223"/>
      <point x="260.684" y="433.954" type="curve" smooth="yes"/>
      <point x="260.684" y="368.809"/>
      <point x="171.372" y="344.642"/>
      <point x="124.088" y="374.062" type="curve" smooth="yes"/>
      <point x="99.9215" y="388.773"/>
      <point x="77.856" y="417.143"/>
      <point x="72.6023" y="453.918" type="curve" smooth="yes"/>
      <point x="42.1309" y="668.269"/>
      <point x="300.612" y="690.334"/>
      <point x="431.954" y="577.905" type="curve" smooth="yes"/>
      <point x="541.231" y="483.339"/>
      <point x="553.84" y="300.511"/>
      <point x="476.085" y="187.031" type="curve" smooth="yes"/>
      <point x="455.071" y="156.56"/>
      <point x="458.223" y="155.509"/>
      <point x="500.252" y="133.444" type="curve" smooth="yes"/>
      <point x="540.18" y="112.429"/>
      <point x="580.108" y="101.921"/>
      <point x="614.782" y="105.074" type="curve" smooth="yes"/>
      <point x="905.837" y="131.342"/>
      <point x="860.655" y="593.666"/>
      <point x="578.007" y="623.087" type="curve" smooth="yes"/>
      <point x="558.043" y="625.188"/>
      <point x="561.195" y="637.797"/>
      <point x="578.007" y="646.203" type="curve" smooth="yes"/>
      <point x="595.869" y="654.609"/>
      <point x="599.021" y="654.609"/>
      <point x="634.746" y="647.254" type="curve" smooth="yes"/>
      <point x="1013.01" y="569.499"/>
      <point x="979.388" y="71.4501"/>
      <point x="662.066" y="18.9133" type="curve" smooth="yes"/>
      <point x="599.021" y="8.40589"/>
      <point x="496.049" y="19.964"/>
      <point x="455.071" y="101.921" type="curve" smooth="yes"/>
      <point x="449.817" y="112.429"/>
      <point x="443.512" y="122.936"/>
      <point x="440.36" y="125.038" type="curve" smooth="yes"/>
      <point x="433.005" y="129.241"/>
      <point x="397.28" y="109.277"/>
      <point x="367.859" y="84.0589" type="curve" smooth="yes"/>
      <point x="328.982" y="50.4354"/>
      <point x="302.714" y="35.7251"/>
      <point x="256.481" y="19.964" type="curve" smooth="yes"/>
      <point x="155.611" y="-13.6596"/>
      <point x="40.0295" y="18.9133"/>
      <point x="40.0295" y="141.849" type="curve" smooth="yes"/>
      <point x="40.0295" y="260.583"/>
      <point x="194.488" y="302.612"/>
    </contour>
    <contour>
      <point x="216.553" y="229.061" type="curve" smooth="yes"/>
      <point x="120.936" y="232.213"/>
      <point x="76.8053" y="151.306"/>
      <point x="81.0082" y="129.241" type="curve"/>
      <point x="91.5156" y="58.8413"/>
      <point x="236.517" y="61.9935"/>
      <point x="323.728" y="145.002" type="curve" smooth="yes"/>
      <point x="347.895" y="167.067"/>
      <point x="342.642" y="172.321"/>
      <point x="305.866" y="196.488" type="curve" smooth="yes"/>
      <point x="277.496" y="214.35"/>
      <point x="242.822" y="228.01"/>
    </contour>
  </outline>
  <guideline angle="0" x="0" y="683"/>
</glyph>
<glyph name="kn_l.base" format="2">
  <advance width="747"/>
  <outline>
    <contour>
      <point x="76" y="494" type="curve" smooth="yes"/>
      <point x="105" y="554"/>
      <point x="131" y="579"/>
      <point x="159" y="597" type="curve" smooth="yes"/>
      <point x="292" y="680"/>
      <point x="468" y="593"/>
      <point x="442" y="432" type="curve" smooth="yes"/>
      <point x="419" y="289"/>
      <point x="181" y="291"/>
      <point x="185" y="451" type="curve" smooth="yes"/>
      <point x="186" y="517"/>
      <point x="178" y="518"/>
      <point x="139" y="467" type="curve" smooth="yes"/>
      <point x="32" y="329"/>
      <point x="166" y="107"/>
      <point x="328" y="105" type="curve" smooth="yes"/>
      <point x="555" y="102"/>
      <point x="678" y="313"/>
      <point x="620" y="541" type="curve" smooth="yes"/>
      <point x="611" y="575"/>
      <point x="609" y="613"/>
      <point x="637" y="623" type="curve" smooth="yes"/>
      <point x="686" y="640"/>
      <point x="707" y="610"/>
      <point x="707" y="558" type="curve" smooth="yes"/>
      <point x="707" y="269"/>
      <point x="674" y="0"/>
      <point x="331" y="0" type="curve" smooth="yes"/>
      <point x="90" y="0"/>
      <point x="-23" y="288"/>
    </contour>
    <contour>
      <point x="387" y="460" type="curve" smooth="yes"/>
      <point x="391" y="497"/>
      <point x="374" y="534"/>
      <point x="326" y="541" type="curve" smooth="yes"/>
      <point x="274" y="549"/>
      <point x="246" y="507"/>
      <point x="248" y="472" type="curve" smooth="yes"/>
      <point x="250" y="436"/>
      <point x="268" y="422"/>
      <point x="302" y="413" type="curve" smooth="yes"/>
      <point x="335" y="404"/>
      <point x="383" y="426"/>
    </contour>
  </outline>
</glyph>
<glyph name="kn_ll_e" format="2">
  <advance width="814"/>
  <outline>
    <component base="kn_ma_e.extra2" xOffset="40" yOffset="120"/>
    <contour>
      <point x="414" y="-243" type="curve" smooth="yes"/>
      <point x="357" y="-243"/>
      <point x="308" y="-186"/>
      <point x="298" y="-117" type="curve" smooth="yes"/>
      <point x="286" y="-40"/>
      <point x="332" y="-5"/>
      <point x="367" y="31" type="curve" smooth="yes"/>
      <point x="379" y="44"/>
      <point x="390" y="51"/>
      <point x="387" y="55" type="curve" smooth="yes"/>
      <point x="384" y="59"/>
      <point x="372" y="66"/>
      <point x="357" y="74" type="curve" smooth="yes"/>
      <point x="219" y="150"/>
      <point x="100" y="332"/>
      <point x="148" y="490" type="curve" smooth="yes"/>
      <point x="166" y="549"/>
      <point x="229" y="627"/>
      <point x="309" y="629" type="curve" smooth="yes"/>
      <point x="398" y="631"/>
      <point x="442" y="563"/>
      <point x="442" y="495" type="curve" smooth="yes"/>
      <point x="442" y="438"/>
      <point x="422" y="401"/>
      <point x="377" y="379" type="curve" smooth="yes"/>
      <point x="321" y="351"/>
      <point x="242" y="387"/>
      <point x="221" y="452" type="curve" smooth="yes"/>
      <point x="214" y="473"/>
      <point x="203" y="471"/>
      <point x="196" y="447" type="curve" smooth="yes"/>
      <point x="158" y="318"/>
      <point x="306" y="166"/>
      <point x="401" y="93" type="curve" smooth="yes"/>
      <point x="415" y="83"/>
      <point x="416" y="81"/>
      <point x="432" y="88" type="curve" smooth="yes"/>
      <point x="686" y="196"/>
      <point x="639" y="523"/>
      <point x="451" y="662" type="curve" smooth="yes"/>
      <point x="436" y="673"/>
      <point x="440" y="694"/>
      <point x="458" y="698" type="curve" smooth="yes"/>
      <point x="483" y="703"/>
      <point x="503" y="693"/>
      <point x="521" y="677" type="curve" smooth="yes"/>
      <point x="654" y="552"/>
      <point x="696" y="364"/>
      <point x="599" y="203" type="curve" smooth="yes"/>
      <point x="555" y="132"/>
      <point x="450" y="61"/>
      <point x="443" y="56" type="curve" smooth="yes"/>
      <point x="436" y="52"/>
      <point x="451" y="43"/>
      <point x="464" y="30" type="curve" smooth="yes"/>
      <point x="506" y="-12"/>
      <point x="546" y="-40"/>
      <point x="536" y="-117" type="curve" smooth="yes"/>
      <point x="528" y="-185"/>
      <point x="488" y="-243"/>
    </contour>
    <contour>
      <point x="478" y="-77" type="curve" smooth="yes"/>
      <point x="478" y="-31"/>
      <point x="448" y="25"/>
      <point x="414" y="25" type="curve" smooth="yes"/>
      <point x="387" y="25"/>
      <point x="351" y="-31"/>
      <point x="351" y="-77" type="curve" smooth="yes"/>
      <point x="351" y="-110"/>
      <point x="366" y="-158"/>
      <point x="414" y="-158" type="curve" smooth="yes"/>
      <point x="469" y="-158"/>
      <point x="478" y="-122"/>
    </contour>
    <contour>
      <point x="399" y="495" type="curve" smooth="yes"/>
      <point x="399" y="532"/>
      <point x="366" y="565"/>
      <point x="324" y="556" type="curve" smooth="yes"/>
      <point x="286" y="547"/>
      <point x="232" y="510"/>
      <point x="254" y="462" type="curve" smooth="yes"/>
      <point x="270" y="428"/>
      <point x="313" y="420"/>
      <point x="343" y="430" type="curve" smooth="yes"/>
      <point x="375" y="441"/>
      <point x="399" y="466"/>
    </contour>
  </outline>
  <guideline angle="0" x="0" y="846"/>
</glyph>
<glyph name="kn_ll_ottu" format="2">
  <advance width="228"/>
  <outline>
    <contour>
      <point x="104" y="-363" type="curve" smooth="yes"/>
      <point x="119" y="-378"/>
      <point x="144" y="-395"/>
      <point x="141" y="-450" type="curve" smooth="yes"/>
      <point x="138" y="-508"/>
      <point x="99" y="-541"/>
      <point x="70" y="-541" type="curve" smooth="yes"/>
      <point x="19" y="-541"/>
      <point x="1" y="-491"/>
      <point x="4" y="-446" type="curve" smooth="yes"/>
      <point x="8" y="-387"/>
      <point x="64" y="-363"/>
      <point x="48" y="-355" type="curve" smooth="yes"/>
      <point x="33" y="-348"/>
      <point x="3" y="-331"/>
      <point x="-12" y="-321" type="curve" smooth="yes"/>
      <point x="-94" y="-267"/>
      <point x="-121" y="-16"/>
      <point x="18" y="-17" type="curve" smooth="yes"/>
      <point x="68" y="-17"/>
      <point x="94" y="-55"/>
      <point x="94" y="-102" type="curve" smooth="yes"/>
      <point x="94" y="-176"/>
      <point x="2" y="-182"/>
      <point x="-20" y="-131" type="curve" smooth="yes"/>
      <point x="-30" y="-108"/>
      <point x="-34" y="-147"/>
      <point x="-34" y="-158" type="curve" smooth="yes"/>
      <point x="-34" y="-255"/>
      <point x="21" y="-334"/>
      <point x="81" y="-334" type="curve" smooth="yes"/>
      <point x="133" y="-334"/>
      <point x="199" y="-239"/>
      <point x="202" y="-187" type="curve" smooth="yes"/>
      <point x="206" y="-112"/>
      <point x="181" y="-91"/>
      <point x="118" y="-63" type="curve" smooth="yes"/>
      <point x="98" y="-54"/>
      <point x="112" y="-17"/>
      <point x="127" y="-21" type="curve" smooth="yes"/>
      <point x="299" y="-65"/>
      <point x="252" y="-262"/>
      <point x="108" y="-350" type="curve" smooth="yes"/>
      <point x="100" y="-355"/>
      <point x="100" y="-359"/>
    </contour>
    <contour>
      <point x="6" y="-96" type="curve" smooth="yes"/>
      <point x="6" y="-113"/>
      <point x="22" y="-120"/>
      <point x="34" y="-120" type="curve" smooth="yes"/>
      <point x="49" y="-120"/>
      <point x="62" y="-112"/>
      <point x="62" y="-96" type="curve" smooth="yes"/>
      <point x="62" y="-71"/>
      <point x="48" y="-57"/>
      <point x="26" y="-63" type="curve" smooth="yes"/>
      <point x="12" y="-67"/>
      <point x="6" y="-81"/>
    </contour>
    <contour>
      <point x="29" y="-455" type="curve" smooth="yes"/>
      <point x="30" y="-492"/>
      <point x="47" y="-512"/>
      <point x="71" y="-509" type="curve" smooth="yes"/>
      <point x="92" y="-507"/>
      <point x="102" y="-483"/>
      <point x="104" y="-456" type="curve" smooth="yes"/>
      <point x="107" y="-424"/>
      <point x="97" y="-388"/>
      <point x="76" y="-388" type="curve" smooth="yes"/>
      <point x="44" y="-388"/>
      <point x="28" y="-419"/>
    </contour>
  </outline>
</glyph>
<glyph name="kn_m_ottu" format="2">
  <advance width="200"/>
  <outline>
    <contour>
      <point x="-385" y="-123" type="curve" smooth="yes"/>
      <point x="-390" y="-123"/>
      <point x="-423" y="-123"/>
      <point x="-422" y="-115" type="curve" smooth="yes"/>
      <point x="-419" y="-101"/>
      <point x="-398" y="-75"/>
      <point x="-383" y="-76" type="curve" smooth="yes"/>
      <point x="-265" y="-85"/>
      <point x="-89" y="-86"/>
      <point x="57" y="-76" type="curve" smooth="yes"/>
      <point x="79" y="-75"/>
      <point x="118" y="-39"/>
      <point x="142" y="-12" type="curve" smooth="yes"/>
      <point x="171" y="21"/>
      <point x="168" y="69"/>
      <point x="139" y="92" type="curve" smooth="yes"/>
      <point x="130" y="99"/>
      <point x="106" y="102"/>
      <point x="95" y="105" type="curve" smooth="yes"/>
      <point x="89" y="106"/>
      <point x="79" y="170"/>
      <point x="105" y="167" type="curve" smooth="yes"/>
      <point x="141" y="162"/>
      <point x="192" y="114"/>
      <point x="194" y="77" type="curve" smooth="yes"/>
      <point x="201" y="-27"/>
      <point x="92" y="-78"/>
      <point x="107" y="-80" type="curve" smooth="yes"/>
      <point x="149" y="-86"/>
      <point x="197" y="-117"/>
      <point x="207" y="-167" type="curve" smooth="yes"/>
      <point x="218" y="-218"/>
      <point x="197" y="-291"/>
      <point x="136" y="-302" type="curve" smooth="yes"/>
      <point x="60" y="-316"/>
      <point x="14" y="-285"/>
      <point x="1" y="-214" type="curve" smooth="yes"/>
      <point x="-3" y="-189"/>
      <point x="4" y="-161"/>
      <point x="19" y="-140" type="curve" smooth="yes"/>
      <point x="24" y="-134"/>
      <point x="30" y="-121"/>
      <point x="18" y="-122" type="curve" smooth="yes"/>
      <point x="-114" y="-131"/>
      <point x="-299" y="-127"/>
    </contour>
    <contour>
      <point x="32" y="-223" type="curve" smooth="yes"/>
      <point x="46" y="-256"/>
      <point x="76" y="-270"/>
      <point x="120" y="-267" type="curve" smooth="yes"/>
      <point x="163" y="-264"/>
      <point x="179" y="-220"/>
      <point x="177" y="-189" type="curve" smooth="yes"/>
      <point x="173" y="-134"/>
      <point x="127" y="-117"/>
      <point x="91" y="-119" type="curve" smooth="yes"/>
      <point x="38" y="-123"/>
      <point x="12" y="-179"/>
    </contour>
  </outline>
</glyph>
<glyph name="kn_m_ottu2" format="2">
  <advance width="613"/>
  <outline>
    <contour>
      <point x="48" y="-123" type="curve" smooth="yes"/>
      <point x="43" y="-123"/>
      <point x="10" y="-123"/>
      <point x="11" y="-115" type="curve" smooth="yes"/>
      <point x="14" y="-101"/>
      <point x="35" y="-75"/>
      <point x="50" y="-76" type="curve" smooth="yes"/>
      <point x="168" y="-85"/>
      <point x="344" y="-86"/>
      <point x="490" y="-76" type="curve" smooth="yes"/>
      <point x="512" y="-75"/>
      <point x="551" y="-39"/>
      <point x="575" y="-12" type="curve" smooth="yes"/>
      <point x="604" y="21"/>
      <point x="601" y="69"/>
      <point x="572" y="92" type="curve" smooth="yes"/>
      <point x="563" y="99"/>
      <point x="539" y="102"/>
      <point x="528" y="105" type="curve" smooth="yes"/>
      <point x="522" y="106"/>
      <point x="512" y="170"/>
      <point x="538" y="167" type="curve" smooth="yes"/>
      <point x="574" y="162"/>
      <point x="625" y="114"/>
      <point x="627" y="77" type="curve" smooth="yes"/>
      <point x="634" y="-27"/>
      <point x="525" y="-78"/>
      <point x="540" y="-80" type="curve" smooth="yes"/>
      <point x="582" y="-86"/>
      <point x="630" y="-117"/>
      <point x="640" y="-167" type="curve" smooth="yes"/>
      <point x="651" y="-218"/>
      <point x="630" y="-291"/>
      <point x="569" y="-302" type="curve" smooth="yes"/>
      <point x="493" y="-316"/>
      <point x="447" y="-285"/>
      <point x="434" y="-214" type="curve" smooth="yes"/>
      <point x="430" y="-189"/>
      <point x="437" y="-161"/>
      <point x="452" y="-140" type="curve" smooth="yes"/>
      <point x="457" y="-134"/>
      <point x="463" y="-121"/>
      <point x="451" y="-122" type="curve" smooth="yes"/>
      <point x="319" y="-131"/>
      <point x="134" y="-127"/>
    </contour>
    <contour>
      <point x="465" y="-223" type="curve" smooth="yes"/>
      <point x="479" y="-256"/>
      <point x="509" y="-270"/>
      <point x="553" y="-267" type="curve" smooth="yes"/>
      <point x="596" y="-264"/>
      <point x="612" y="-220"/>
      <point x="610" y="-189" type="curve" smooth="yes"/>
      <point x="606" y="-134"/>
      <point x="560" y="-117"/>
      <point x="524" y="-119" type="curve" smooth="yes"/>
      <point x="471" y="-123"/>
      <point x="445" y="-179"/>
    </contour>
  </outline>
</glyph>
<glyph name="kn_ma_i3" format="2">
  <advance width="276"/>
  <outline>
    <contour>
      <point x="147.688" y="750.841" type="curve" smooth="yes"/>
      <point x="240.709" y="716.626"/>
      <point x="246.055" y="589.39"/>
      <point x="188.318" y="524.168" type="curve" smooth="yes"/>
      <point x="156.241" y="487.815"/>
      <point x="131.65" y="466.43"/>
      <point x="112.404" y="462.153" type="curve" smooth="yes"/>
      <point x="94.227" y="457.877"/>
      <point x="81.3965" y="469.638"/>
      <point x="94.227" y="483.538" type="curve" smooth="yes"/>
      <point x="114.542" y="504.922"/>
      <point x="156.241" y="523.099"/>
      <point x="174.418" y="573.352" type="curve" smooth="yes"/>
      <point x="176.556" y="580.836"/>
      <point x="174.418" y="581.905"/>
      <point x="172.28" y="579.767" type="curve" smooth="yes"/>
      <point x="123.096" y="540.206"/>
      <point x="55.7353" y="564.798"/>
      <point x="34.3511" y="628.951" type="curve" smooth="yes"/>
      <point x="7.62071" y="712.349"/>
      <point x="87.8117" y="772.225"/>
    </contour>
    <contour>
      <point x="148.757" y="612.913" type="curve" smooth="yes"/>
      <point x="169.072" y="622.535"/>
      <point x="182.972" y="647.127"/>
      <point x="177.626" y="670.65" type="curve" smooth="yes"/>
      <point x="170.141" y="700.588"/>
      <point x="136.996" y="717.695"/>
      <point x="109.196" y="710.211" type="curve" smooth="yes"/>
      <point x="82.4657" y="703.796"/>
      <point x="65.3583" y="678.135"/>
      <point x="72.8427" y="641.781" type="curve" smooth="yes"/>
      <point x="81.3965" y="604.359"/>
      <point x="119.888" y="599.013"/>
    </contour>
  </outline>
</glyph>
<glyph name="kn_ma_u.under" format="2">
  <advance width="692"/>
  <outline>
    <contour>
      <point x="629.665" y="659.608" type="curve" smooth="yes"/>
      <point x="766.575" y="395.167"/>
      <point x="682.179" y="-120.589"/>
      <point x="297.706" y="-84.9545" type="curve" smooth="yes"/>
      <point x="95.1553" y="-66.1998"/>
      <point x="40.7666" y="111.97"/>
      <point x="1.38167" y="243.253" type="curve" smooth="yes"/>
      <point x="-6.12023" y="269.51"/>
      <point x="7.00809" y="316.397"/>
      <point x="72.6497" y="207.619" type="curve" smooth="yes"/>
      <point x="113.91" y="140.102"/>
      <point x="162.672" y="23.8229"/>
      <point x="297.706" y="6.94367" type="curve" smooth="yes"/>
      <point x="659.673" y="-36.1922"/>
      <point x="665.299" y="410.171"/>
      <point x="592.156" y="642.729" type="curve" smooth="yes"/>
      <point x="573.401" y="693.367"/>
      <point x="609.035" y="698.993"/>
    </contour>
  </outline>
</glyph>
<glyph name="kn_n_ottu2" format="2">
  <advance width="265"/>
  <outline>
    <contour>
      <point x="66.3891" y="163.656" type="curve" smooth="yes"/>
      <point x="69.2707" y="178.377"/>
      <point x="81.0263" y="181.171"/>
      <point x="94.7656" y="178.481" type="curve" smooth="yes"/>
      <point x="219.4" y="154.084"/>
      <point x="316.356" y="40.3406"/>
      <point x="290.806" y="-90.1822" type="curve" smooth="yes"/>
      <point x="282.161" y="-134.344"/>
      <point x="245.441" y="-170.972"/>
      <point x="195.687" y="-185.689" type="curve"/>
      <point x="205.434" y="-219.185"/>
      <point x="176.535" y="-345.995"/>
      <point x="100.518" y="-364.741" type="curve" smooth="yes"/>
      <point x="91.899" y="-367.13"/>
      <point x="67.728" y="-355.266"/>
      <point x="83.7724" y="-346.179" type="curve" smooth="yes"/>
      <point x="128.962" y="-318.341"/>
      <point x="152.093" y="-267.844"/>
      <point x="163.619" y="-208.962" type="curve" smooth="yes"/>
      <point x="164.58" y="-204.055"/>
      <point x="161.018" y="-196.225"/>
      <point x="153.956" y="-195.861" type="curve" smooth="yes"/>
      <point x="138.851" y="-194.943"/>
      <point x="112.972" y="-197.01"/>
      <point x="93.3445" y="-193.168" type="curve" smooth="yes"/>
      <point x="55.0709" y="-185.676"/>
      <point x="2.76157" y="-150.981"/>
      <point x="11.4062" y="-106.819" type="curve" smooth="yes"/>
      <point x="15.2482" y="-87.1913"/>
      <point x="32.3619" y="-51.8201"/>
      <point x="73.9638" y="-57.9256" type="curve" smooth="yes"/>
      <point x="175.025" y="-72.6132"/>
      <point x="184.128" y="-140.629"/>
      <point x="196.886" y="-143.126" type="curve" smooth="yes"/>
      <point x="227.309" y="-149.081"/>
      <point x="252.19" y="-94.851"/>
      <point x="257.184" y="-69.3352" type="curve" smooth="yes"/>
      <point x="280.621" y="50.3925"/>
      <point x="142.485" y="115.135"/>
      <point x="95.3584" y="129.454" type="curve" smooth="yes"/>
      <point x="85.7367" y="132.357"/>
      <point x="61.9708" y="141.085"/>
    </contour>
    <contour>
      <point x="44.7312" y="-103.152" type="curve" smooth="yes"/>
      <point x="42.0418" y="-116.892"/>
      <point x="55.4385" y="-131.742"/>
      <point x="72.932" y="-141.28" type="curve" smooth="yes"/>
      <point x="99.663" y="-155.683"/>
      <point x="165.01" y="-165.418"/>
      <point x="163.945" y="-144.83" type="curve" smooth="yes"/>
      <point x="163.285" y="-127.378"/>
      <point x="131.606" y="-101.816"/>
      <point x="98.0262" y="-91.1672" type="curve" smooth="yes"/>
      <point x="84.6711" y="-86.515"/>
      <point x="48.5732" y="-83.5248"/>
    </contour>
  </outline>
</glyph>
<glyph name="kn_ng_ottu" format="2">
  <advance width="406"/>
  <outline>
    <contour>
      <point x="-54.3487" y="-40.7783" type="curve" smooth="yes"/>
      <point x="-54.3487" y="23.7707"/>
      <point x="-17.5916" y="73.9754"/>
      <point x="50.5434" y="73.9754" type="curve" smooth="yes"/>
      <point x="92.6795" y="73.9754"/>
      <point x="124.954" y="55.1487"/>
      <point x="149.16" y="21.9777" type="curve" smooth="yes"/>
      <point x="167.09" y="-3.1247"/>
      <point x="176.952" y="-30.9166"/>
      <point x="180.538" y="-30.9166" type="curve"/>
      <point x="284.533" y="-34.5027"/>
      <point x="240.604" y="61.4243"/>
      <point x="316.808" y="61.4243" type="curve" smooth="yes"/>
      <point x="363.426" y="61.4243"/>
      <point x="415.424" y="-30.0201"/>
      <point x="415.424" y="-71.2597" type="curve" smooth="yes"/>
      <point x="415.424" y="-86.5004"/>
      <point x="410.942" y="-108.017"/>
      <point x="396.597" y="-99.0516" type="curve" smooth="yes"/>
      <point x="375.978" y="-86.5004"/>
      <point x="355.358" y="-14.7794"/>
      <point x="316.808" y="-3.1247" type="curve" smooth="yes"/>
      <point x="265.707" y="12.116"/>
      <point x="263.914" y="-52.4329"/>
      <point x="187.71" y="-52.4329" type="curve" smooth="yes"/>
      <point x="186.813" y="-52.4329"/>
      <point x="184.124" y="-56.9155"/>
      <point x="178.745" y="-61.3981" type="curve" smooth="yes"/>
      <point x="59.5085" y="-166.29"/>
      <point x="-29.2463" y="-125.05"/>
      <point x="-29.2463" y="-207.53" type="curve" smooth="yes"/>
      <point x="-29.2463" y="-236.218"/>
      <point x="-14.0056" y="-262.217"/>
      <point x="15.5794" y="-265.803" type="curve" smooth="yes"/>
      <point x="117.782" y="-276.561"/>
      <point x="138.402" y="-142.981"/>
      <point x="153.642" y="-169.876" type="curve" smooth="yes"/>
      <point x="176.952" y="-211.116"/>
      <point x="208.33" y="-268.493"/>
      <point x="257.638" y="-268.493" type="curve" smooth="yes"/>
      <point x="299.774" y="-268.493"/>
      <point x="334.738" y="-230.839"/>
      <point x="334.738" y="-188.703" type="curve" smooth="yes"/>
      <point x="334.738" y="-166.29"/>
      <point x="306.946" y="-155.532"/>
      <point x="306.946" y="-133.119" type="curve" smooth="yes"/>
      <point x="306.946" y="-124.154"/>
      <point x="315.911" y="-123.257"/>
      <point x="322.187" y="-123.257" type="curve" smooth="yes"/>
      <point x="364.323" y="-123.257"/>
      <point x="372.392" y="-168.98"/>
      <point x="372.392" y="-203.944" type="curve" smooth="yes"/>
      <point x="372.392" y="-285.526"/>
      <point x="324.876" y="-321.387"/>
      <point x="255.845" y="-321.387" type="curve" smooth="yes"/>
      <point x="204.744" y="-321.387"/>
      <point x="185.917" y="-300.767"/>
      <point x="156.332" y="-236.218" type="curve" smooth="yes"/>
      <point x="148.263" y="-219.184"/>
      <point x="115.092" y="-318.697"/>
      <point x="36.1992" y="-318.697" type="curve" smooth="yes"/>
      <point x="-24.7637" y="-318.697"/>
      <point x="-79.451" y="-298.078"/>
      <point x="-79.451" y="-216.495" type="curve" smooth="yes"/>
      <point x="-79.451" y="-92.776"/>
      <point x="133.919" y="-124.154"/>
      <point x="133.919" y="-37.1922" type="curve" smooth="yes"/>
      <point x="133.919" y="56.0452"/>
      <point x="-14.0056" y="44.3905"/>
      <point x="-14.0056" y="-6.71075" type="curve" smooth="yes"/>
      <point x="-14.0056" y="-26.434"/>
      <point x="-3.24742" y="-75.7423"/>
      <point x="-20.2812" y="-81.1214" type="curve" smooth="yes"/>
      <point x="-44.487" y="-89.19"/>
      <point x="-54.3487" y="-63.1911"/>
    </contour>
  </outline>
</glyph>
<glyph name="kn_ng_u" format="2">
  <advance width="1103"/>
  <outline>
    <component base="kn_ng"/>
    <contour>
      <point x="884.979" y="629.241" type="curve" smooth="yes"/>
      <point x="863.907" y="636.486"/>
      <point x="892.636" y="668.533"/>
      <point x="925.529" y="652.188" type="curve" smooth="yes"/>
      <point x="970.524" y="630.869"/>
      <point x="1005.57" y="585.346"/>
      <point x="1024.47" y="528.068" type="curve"/>
      <point x="1050.37" y="439.622"/>
      <point x="1005.07" y="298.389"/>
      <point x="874.612" y="301.07" type="curve" smooth="yes"/>
      <point x="781.805" y="302.426"/>
      <point x="712.157" y="363.582"/>
      <point x="690.553" y="417.726" type="curve" smooth="yes"/>
      <point x="679.146" y="445.047"/>
      <point x="697.463" y="506.836"/>
      <point x="706.3" y="490.473" type="curve" smooth="yes"/>
      <point x="739.227" y="426.017"/>
      <point x="765.804" y="383.975"/>
      <point x="826.167" y="369.073" type="curve" smooth="yes"/>
      <point x="943.975" y="339.053"/>
      <point x="1045.88" y="452.786"/>
      <point x="953.98" y="576.839" type="curve" smooth="yes"/>
      <point x="937.666" y="599.104"/>
      <point x="903.63" y="622.992"/>
    </contour>
  </outline>
</glyph>
<glyph name="kn_ng_v" format="2">
  <advance width="979"/>
  <outline>
    <component base="kn_virama" xOffset="349" yOffset="222"/>
    <contour>
      <point x="451" y="123" type="curve"/>
      <point x="405" y="48"/>
      <point x="322" y="0"/>
      <point x="219" y="0" type="curve" smooth="yes"/>
      <point x="78" y="0"/>
      <point x="23" y="168"/>
      <point x="187" y="286" type="curve" smooth="yes"/>
      <point x="231" y="317"/>
      <point x="322" y="397"/>
      <point x="321" y="469" type="curve" smooth="yes"/>
      <point x="319" y="630"/>
      <point x="59" y="569"/>
      <point x="109" y="408" type="curve" smooth="yes"/>
      <point x="120" y="373"/>
      <point x="127" y="344"/>
      <point x="95" y="351" type="curve" smooth="yes"/>
      <point x="41" y="363"/>
      <point x="34" y="440"/>
      <point x="45" y="489" type="curve" smooth="yes"/>
      <point x="63" y="570"/>
      <point x="141" y="620"/>
      <point x="239" y="619" type="curve" smooth="yes"/>
      <point x="342" y="617"/>
      <point x="414" y="560"/>
      <point x="390" y="469" type="curve" smooth="yes"/>
      <point x="350" y="316"/>
      <point x="82" y="224"/>
      <point x="179" y="123" type="curve" smooth="yes"/>
      <point x="188" y="113"/>
      <point x="203" y="107"/>
      <point x="220" y="103" type="curve" smooth="yes"/>
      <point x="339" y="76"/>
      <point x="437" y="168"/>
      <point x="437" y="264" type="curve" smooth="yes"/>
      <point x="437" y="285"/>
      <point x="469" y="283"/>
      <point x="469" y="262" type="curve" smooth="yes"/>
      <point x="469" y="234"/>
      <point x="500" y="100"/>
      <point x="597" y="100" type="curve" smooth="yes"/>
      <point x="709" y="100"/>
      <point x="715" y="171"/>
      <point x="698" y="252" type="curve" smooth="yes"/>
      <point x="694" y="271"/>
      <point x="673" y="285"/>
      <point x="664" y="285" type="curve" smooth="yes"/>
      <point x="627" y="285"/>
      <point x="646" y="323"/>
      <point x="676" y="323" type="curve" smooth="yes"/>
      <point x="709" y="323"/>
      <point x="736" y="307"/>
      <point x="751" y="264" type="curve" smooth="yes"/>
      <point x="791" y="148"/>
      <point x="760" y="0"/>
      <point x="612" y="0" type="curve" smooth="yes"/>
      <point x="522" y="0"/>
      <point x="475" y="47"/>
    </contour>
    <contour>
      <point x="368" y="489" type="line"/>
      <point x="544" y="479"/>
      <point x="470" y="621"/>
      <point x="582" y="620" type="curve" smooth="yes"/>
      <point x="668" y="620"/>
      <point x="751" y="459"/>
      <point x="762" y="388" type="curve" smooth="yes"/>
      <point x="767" y="354"/>
      <point x="719" y="368"/>
      <point x="714" y="377" type="curve" smooth="yes"/>
      <point x="688" y="424"/>
      <point x="639" y="519"/>
      <point x="581" y="521" type="curve" smooth="yes"/>
      <point x="524" y="522"/>
      <point x="512" y="411"/>
      <point x="358" y="411" type="curve"/>
    </contour>
  </outline>
  <guideline angle="0" x="0" y="620"/>
</glyph>
<glyph name="kn_ny.base" format="2">
  <advance width="1218"/>
  <outline>
    <contour>
      <point x="899.675" y="227.848" type="curve" smooth="yes"/>
      <point x="884.878" y="207.132"/>
      <point x="891.783" y="203.186"/>
      <point x="919.404" y="165.7" type="curve" smooth="yes"/>
      <point x="996.349" y="62.1206"/>
      <point x="936.174" y="-106.566"/>
      <point x="823.717" y="-147.011" type="curve" smooth="yes"/>
      <point x="799.055" y="-155.889"/>
      <point x="790.177" y="-142.079"/>
      <point x="812.866" y="-118.404" type="curve" smooth="yes"/>
      <point x="902.634" y="-26.6618"/>
      <point x="894.743" y="64.0935"/>
      <point x="864.162" y="101.579" type="curve" smooth="yes"/>
      <point x="859.23" y="107.498"/>
      <point x="857.257" y="110.458"/>
      <point x="853.311" y="103.552" type="curve" smooth="yes"/>
      <point x="822.73" y="54.2288"/>
      <point x="708.3" y="-24.6888"/>
      <point x="614.585" y="1.94588" type="curve" smooth="yes"/>
      <point x="502.127" y="34.4994"/>
      <point x="521.857" y="190.362"/>
      <point x="623.463" y="243.631" type="curve" smooth="yes"/>
      <point x="680.678" y="274.212"/>
      <point x="769.461" y="287.036"/>
      <point x="835.554" y="238.699" type="curve" smooth="yes"/>
      <point x="858.243" y="221.929"/>
      <point x="860.216" y="221.929"/>
      <point x="866.135" y="230.807" type="curve" smooth="yes"/>
      <point x="908.553" y="288.022"/>
      <point x="895.729" y="396.534"/>
      <point x="848.378" y="438.952" type="curve" smooth="yes"/>
      <point x="729.016" y="541.545"/>
      <point x="512.978" y="527.735"/>
      <point x="516.924" y="354.116" type="curve" smooth="yes"/>
      <point x="517.911" y="312.684"/>
      <point x="492.262" y="312.684"/>
      <point x="489.303" y="354.116" type="curve" smooth="yes"/>
      <point x="484.371" y="426.128"/>
      <point x="364.021" y="507.019"/>
      <point x="295.955" y="515.897" type="curve" smooth="yes"/>
      <point x="159.822" y="532.667"/>
      <point x="55.2559" y="417.25"/>
      <point x="97.6741" y="282.104" type="curve" smooth="yes"/>
      <point x="116.417" y="221.929"/>
      <point x="187.443" y="186.416"/>
      <point x="250.577" y="167.673" type="curve" smooth="yes"/>
      <point x="267.347" y="162.741"/>
      <point x="290.036" y="140.052"/>
      <point x="273.266" y="123.282" type="curve" smooth="yes"/>
      <point x="252.55" y="102.566"/>
      <point x="197.308" y="125.255"/>
      <point x="175.605" y="137.092" type="curve" smooth="yes"/>
      <point x="54.2694" y="203.186"/>
      <point x="-7.87824" y="400.48"/>
      <point x="85.8365" y="523.789" type="curve" smooth="yes"/>
      <point x="219.997" y="702.34"/>
      <point x="409.399" y="573.113"/>
      <point x="483.384" y="483.344" type="curve"/>
      <point x="537.64" y="585.937"/>
      <point x="664.895" y="667.814"/>
      <point x="821.744" y="566.207" type="curve" smooth="yes"/>
      <point x="842.46" y="552.397"/>
      <point x="852.324" y="550.424"/>
      <point x="864.162" y="573.113" type="curve" smooth="yes"/>
      <point x="921.377" y="682.611"/>
      <point x="1046.66" y="702.34"/>
      <point x="1131.5" y="586.923" type="curve" smooth="yes"/>
      <point x="1202.52" y="489.262"/>
      <point x="1180.82" y="398.507"/>
      <point x="1135.44" y="351.157" type="curve" smooth="yes"/>
      <point x="1100.92" y="315.644"/>
      <point x="1021.01" y="311.698"/>
      <point x="991.417" y="359.048" type="curve" smooth="yes"/>
      <point x="956.89" y="414.291"/>
      <point x="997.336" y="447.831"/>
      <point x="1038.77" y="470.52" type="curve" smooth="yes"/>
      <point x="1146.29" y="529.708"/>
      <point x="1079.21" y="584.95"/>
      <point x="1004.24" y="584.95" type="curve" smooth="yes"/>
      <point x="930.256" y="584.95"/>
      <point x="862.189" y="486.303"/>
      <point x="884.878" y="447.831" type="curve" smooth="yes"/>
      <point x="904.607" y="413.304"/>
      <point x="956.89" y="306.765"/>
    </contour>
    <contour>
      <point x="789.19" y="105.525" type="curve" smooth="yes"/>
      <point x="847.392" y="147.944"/>
      <point x="837.527" y="200.227"/>
      <point x="759.596" y="217.983" type="curve" smooth="yes"/>
      <point x="707.313" y="229.821"/>
      <point x="599.788" y="186.416"/>
      <point x="599.788" y="121.309" type="curve" smooth="yes"/>
      <point x="599.788" y="86.7824"/>
      <point x="622.477" y="76.9177"/>
      <point x="655.03" y="73.9583" type="curve" smooth="yes"/>
      <point x="710.273" y="68.0394"/>
      <point x="763.542" y="86.7824"/>
    </contour>
  </outline>
</glyph>
<glyph name="kn_ny_ottu3" format="2">
  <advance width="675"/>
  <outline>
    <contour>
      <point x="-79.1875" y="-102.405" type="curve" smooth="yes"/>
      <point x="-71.2257" y="15.2538"/>
      <point x="98.6279" y="108.143"/>
      <point x="212.748" y="-28.0942" type="curve" smooth="yes"/>
      <point x="217.172" y="-33.4021"/>
      <point x="224.249" y="-3.32389"/>
      <point x="246.365" y="18.7925" type="curve" smooth="yes"/>
      <point x="293.252" y="64.7945"/>
      <point x="403.834" y="51.5247"/>
      <point x="462.221" y="15.2538" type="curve"/>
      <point x="475.491" y="51.5247"/>
      <point x="497.607" y="105.489"/>
      <point x="566.61" y="105.489" type="curve" smooth="yes"/>
      <point x="636.498" y="105.489"/>
      <point x="684.269" y="37.3702"/>
      <point x="684.269" y="-28.0942" type="curve" smooth="yes"/>
      <point x="684.269" y="-66.1343"/>
      <point x="642.69" y="-96.2126"/>
      <point x="606.419" y="-96.2126" type="curve" smooth="yes"/>
      <point x="581.649" y="-96.2126"/>
      <point x="556.879" y="-71.4423"/>
      <point x="556.879" y="-46.6719" type="curve" smooth="yes"/>
      <point x="556.879" y="-11.2858"/>
      <point x="624.997" y="-14.8244"/>
      <point x="624.997" y="17.0232" type="curve" smooth="yes"/>
      <point x="624.997" y="47.1014"/>
      <point x="594.034" y="56.8326"/>
      <point x="570.149" y="56.8326" type="curve" smooth="yes"/>
      <point x="534.762" y="56.8326"/>
      <point x="479.029" y="34.7162"/>
      <point x="479.029" y="-5.97785" type="curve" smooth="yes"/>
      <point x="479.029" y="-10.4011"/>
      <point x="508.223" y="-58.1724"/>
      <point x="510.877" y="-67.9036" type="curve" smooth="yes"/>
      <point x="529.454" y="-125.406"/>
      <point x="503.8" y="-162.562"/>
      <point x="503.8" y="-186.447" type="curve" smooth="yes"/>
      <point x="503.8" y="-212.102"/>
      <point x="555.109" y="-228.911"/>
      <point x="555.109" y="-289.952" type="curve" smooth="yes"/>
      <point x="555.109" y="-347.454"/>
      <point x="520.608" y="-387.264"/>
      <point x="489.645" y="-409.38" type="curve" smooth="yes"/>
      <point x="479.914" y="-416.457"/>
      <point x="448.066" y="-404.957"/>
      <point x="448.066" y="-396.995" type="curve" smooth="yes"/>
      <point x="448.066" y="-390.802"/>
      <point x="459.567" y="-387.264"/>
      <point x="463.99" y="-384.61" type="curve" smooth="yes"/>
      <point x="516.185" y="-355.416"/>
      <point x="520.608" y="-297.914"/>
      <point x="488.76" y="-252.796" type="curve"/>
      <point x="478.145" y="-270.489"/>
      <point x="440.104" y="-332.415"/>
      <point x="355.178" y="-332.415" type="curve" smooth="yes"/>
      <point x="302.098" y="-332.415"/>
      <point x="255.212" y="-291.721"/>
      <point x="255.212" y="-246.604" type="curve" smooth="yes"/>
      <point x="255.212" y="-193.525"/>
      <point x="318.907" y="-156.369"/>
      <point x="371.101" y="-152.83" type="curve" smooth="yes"/>
      <point x="423.296" y="-149.292"/>
      <point x="444.528" y="-174.947"/>
      <point x="463.99" y="-174.947" type="curve" smooth="yes"/>
      <point x="478.145" y="-174.947"/>
      <point x="485.222" y="-142.215"/>
      <point x="485.222" y="-113.906" type="curve" smooth="yes"/>
      <point x="485.222" y="-38.7101"/>
      <point x="431.258" y="-6.86251"/>
      <point x="360.486" y="-6.86251" type="curve" smooth="yes"/>
      <point x="284.405" y="-6.86251"/>
      <point x="235.749" y="-28.9789"/>
      <point x="245.481" y="-104.174" type="curve" smooth="yes"/>
      <point x="248.134" y="-123.637"/>
      <point x="233.095" y="-122.752"/>
      <point x="224.249" y="-122.752" type="curve" smooth="yes"/>
      <point x="206.556" y="-122.752"/>
      <point x="216.287" y="-92.674"/>
      <point x="207.44" y="-75.8655" type="curve" smooth="yes"/>
      <point x="150.823" y="30.293"/>
      <point x="-83.6108" y="-21.017"/>
      <point x="-19.9157" y="-181.139" type="curve" smooth="yes"/>
      <point x="-3.99195" y="-220.949"/>
      <point x="45.5487" y="-212.102"/>
      <point x="65.8957" y="-228.911" type="curve" smooth="yes"/>
      <point x="80.9348" y="-241.296"/>
      <point x="75.6269" y="-254.566"/>
      <point x="56.1645" y="-254.566" type="curve" smooth="yes"/>
      <point x="-25.2236" y="-254.566"/>
      <point x="-83.6108" y="-174.947"/>
    </contour>
    <contour>
      <point x="306.522" y="-243.065" type="curve" smooth="yes"/>
      <point x="306.522" y="-278.451"/>
      <point x="330.407" y="-283.759"/>
      <point x="367.563" y="-280.221" type="curve" smooth="yes"/>
      <point x="413.565" y="-275.797"/>
      <point x="448.066" y="-250.142"/>
      <point x="466.644" y="-217.41" type="curve" smooth="yes"/>
      <point x="478.145" y="-197.948"/>
      <point x="409.142" y="-190.871"/>
      <point x="373.755" y="-190.871" type="curve" smooth="yes"/>
      <point x="332.177" y="-190.871"/>
      <point x="306.522" y="-217.41"/>
    </contour>
  </outline>
</glyph>
